<svg xmlns="http://www.w3.org/2000/svg" viewBox="0 0 142.25 177.49"><defs><style>.cls-1{fill:none;stroke:#4d4d4d;}.cls-1,.cls-2{stroke-miterlimit:10;stroke-width:0.5px;}.cls-2{fill:#2d7e7d;stroke:#2d7e7d;}.cls-3{fill:#fff;}.cls-4{fill:#cccbc9;}.cls-5{fill:#ffda7a;}.cls-6{fill:#e9c770;}.cls-7{fill:#484f59;}.cls-8{fill:#232e38;}.cls-9{fill:#f2f2f2;}.cls-10{fill:#e1e1df;}</style></defs><title>graphic1</title><g id="Layer_2" data-name="Layer 2"><g id="Layer_1-2" data-name="Layer 1"><rect class="cls-1" x="0.25" y="17.54" width="122" height="159.69"/><rect class="cls-2" x="0.25" y="0.25" width="122" height="17.29"/><polygon class="cls-3" points="142.25 48.85 137.37 32.8 132.48 48.85 142.25 48.85"/><polygon class="cls-4" points="137.37 32.8 142.25 48.85 139.18 48.85 137.37 32.8"/><rect class="cls-5" x="132.48" y="48.85" width="9.77" height="114.76"/><rect class="cls-6" x="139.18" y="48.85" width="3.07" height="114.76"/><polygon class="cls-7" points="139.27 39.08 137.37 32.8 135.44 39.08 139.27 39.08"/><polygon class="cls-8" points="139.27 39.08 137.37 32.8 138.08 39.08 139.27 39.08"/><rect class="cls-9" x="132.48" y="163.62" width="9.77" height="5.67"/><rect class="cls-4" x="139.18" y="163.62" width="3.07" height="5.67"/><path class="cls-7" d="M142.25,172.36a4.88,4.88,0,0,1-4.88,4.88h0a4.88,4.88,0,0,1-4.89-4.88v-3.08h9.77Z"/><path class="cls-8" d="M139.18,169.28a4.88,4.88,0,0,1-4.89,4.89,5,5,0,0,1-1.54-.27,4.8,4.8,0,0,0,1.16,1.91,4.89,4.89,0,0,0,8.34-3.45v-3.08Z"/><rect class="cls-10" x="9.79" y="26.92" width="46.91" height="48.14"/><rect class="cls-10" x="66.09" y="26.92" width="46.9" height="48.14"/><rect class="cls-10" x="9.79" y="141.31" width="103.2" height="4.79"/><rect class="cls-10" x="9.79" y="150.88" width="103.2" height="4.81"/><rect class="cls-10" x="9.79" y="160.48" width="103.2" height="4.79"/><rect class="cls-10" x="9.79" y="84.45" width="103.2" height="47.48"/></g></g></svg>