<svg xmlns="http://www.w3.org/2000/svg" viewBox="0 0 113.43 144.97"><defs><style>.cls-1{fill:#e5bf9e;}.cls-2{fill:#ddac8c;opacity:0.1;isolation:isolate;}.cls-3{fill:#e4be92;}.cls-4{fill:#056c8e;}.cls-5{fill:#262421;}.cls-6{fill:#fff;}</style></defs><title>person</title><g id="Layer_2" data-name="Layer 2"><g id="Layer_1-2" data-name="Layer 1"><path class="cls-1" d="M104.66,106.2c-6.37-12.13-48-19.82-48-19.82S15.2,94.1,8.71,106.32C4,123.33,0,144.83,0,144.83l113.28-.17C113.43,144.81,110.71,121.63,104.66,106.2Z"/><path class="cls-1" d="M56.63,86.53s41.51,7.69,48,19.82c6.19,15.43,8.77,38.46,8.77,38.46L56.79,145l-.16-58.44Z"/><rect class="cls-1" x="45.46" y="61.58" width="22.57" height="37.81" transform="translate(-0.1 0.07) rotate(-0.07)"/><rect class="cls-1" x="56.52" y="61.61" width="11.36" height="37.81" transform="translate(-0.1 0.08) rotate(-0.07)"/><path class="cls-2" d="M45.31,79c2.07,5.83,10.27,9.16,16.25,9.19a22.06,22.06,0,0,0,6.28-1l0-25.56-22.57,0Z"/><path class="cls-1" d="M85.72,37.66c0-23.61-13-37-29.1-37.06-16-.08-28.91,13.46-29,36.92,0,31.68,13.09,42.81,29.08,42.74C72.81,80.49,85.72,68.15,85.72,37.66Z"/><path class="cls-1" d="M78.62,54.22c-5.23-.48-8.79-6.33-8-12.6.93-6.57,5.74-11.18,11.11-10.7s8.94,6.17,8,12.59-6,11.18-11.11,10.71Z"/><path class="cls-1" d="M23.82,44.08c-1.31-6.44,2-12.25,7.09-13.12,5.24-.87,10.44,3.64,11.76,9.92s-2,12.25-7.09,13.12S25.13,50.51,23.82,44.08Z"/><path class="cls-3" d="M85.72,37.66c0-23.61-13-37-29.1-37.06l.19,79.81C72.66,80.49,85.72,68.15,85.72,37.66Z"/><path class="cls-4" d="M104.66,106.2C101,99,85.14,93.55,72.76,90.2L56.82,108.5l-16-18.31c-12.43,3.38-28.15,9-31.92,16.13-4.72,17-8.71,38.51-8.71,38.51l113.28-.17C113.43,144.81,110.71,121.63,104.66,106.2Z"/><path class="cls-5" d="M31.26,49.94s-1-29.15,17.62-25.46c-.19,7,11.19,3.79,11.19,3.79s15-7.4,13.12-23.55c-22.66-12.07-40.36,2-44.43,8.6C24.84,19.72,23,38.84,31.26,49.94Z"/><path class="cls-5" d="M70.31,11.28c-5.71,7.9,11.42,18.14,11.32,37.27,6.78-10,14-41.92-8.44-44a33.76,33.76,0,0,0-2.88,6.71Z"/><path class="cls-6" d="M77.43,112.34,64.78,100.77l-8.26,7.88L70.07,89.14a7.79,7.79,0,0,1,6.1,5.41c.71,7.48,1.41,17.94,1.26,17.79Z"/><path class="cls-6" d="M36,112.43l12.46-11.74,8.33,7.81L43.17,89a7.83,7.83,0,0,0-6,5.35c-.64,7.76-1.14,18.07-1.14,18.07Z"/></g></g></svg>