<svg xmlns="http://www.w3.org/2000/svg" viewBox="0 0 79 105.35"><defs><style>.cls-1{fill:#d2b1a0;}.cls-2{fill:#c8aa9a;}.cls-3{fill:#f1c9a5;}.cls-4{fill:#3d1c0f;}.cls-5{fill:#ee2a7b;}.cls-6{fill:#733578;}</style></defs><title>person3</title><g id="Layer_2" data-name="Layer 2"><g id="Layer_1-2" data-name="Layer 1"><path class="cls-1" d="M72.85,78.76c-4.52-8.39-33.33-13.63-33.33-13.63S10.73,70.38,6.15,78.79C2.77,90.4,0,105.31,0,105.31l78.9,0c-.1-.2-1.93-16.1-6.05-26.59Z"/><path class="cls-1" d="M39.42,65s28.91,5.34,33.33,13.63C77,89.25,78.9,105.15,78.9,105.15l-39.4,0Z"/><rect class="cls-1" x="25.23" y="52.84" width="26.1" height="15.8" transform="translate(-22.53 98.91) rotate(-89.89)"/><rect class="cls-1" x="39.41" y="47.96" width="7.9" height="26"/><path class="cls-2" d="M31.61,59.94c1.41,4,7.11,6.29,11.31,6.38a12.84,12.84,0,0,0,4.4-.71l0-17.7-15.7,0,0,12Z"/><path class="cls-1" d="M59.65,31.59c0-16.3-9-25.48-20.15-25.56S19.32,15.27,19.35,31.47s9.06,29.38,20.16,29.46S59.59,47.79,59.65,31.59Z"/><path class="cls-3" d="M56.48,42.79c-3.6-.39-6.11-4.48-5.52-9.28s4.18-8.21,7.78-7.72,6.11,4.49,5.42,9.29C63.67,39.68,60.18,43.19,56.48,42.79Z"/><path class="cls-1" d="M59.65,31.59c0-16.3-9-25.48-20.15-25.56v54.9C50.61,60.91,59.59,47.79,59.65,31.59Z"/><path class="cls-4" d="M26.3,53.85a21.53,21.53,0,0,1-3.13-16.19c2-9.2,6.78-10.81,6.77-15,8,9.48,11.59-1.53,22.51,4.15,3.9,2.29,6.83,16.89,3.24,22.4C72.17,40.26,67,4.47,47,.71,6-7.11-7.61,51.92,26.3,53.85Z"/><path class="cls-5" d="M39.42,16.13A21.13,21.13,0,0,1,60.26,33.39a21.21,21.21,0,0,0-41.72-7.62,20,20,0,0,0,0,7.7A21.31,21.31,0,0,1,39.42,16.13Z"/><path class="cls-5" d="M21.33,69.66c2.81,3.2,12.12,11.68,18,11.67,7.8.08,20.58-10.74,20.58-10.74l-3.2-1.2a32.21,32.21,0,0,0-9.91-2.78c-7.78,10-15.4.13-15.4.13a44,44,0,0,0-10.09,2.92Z"/><path class="cls-6" d="M72.85,78.76C71.34,76,66.94,73.47,62,71.38a23.38,23.38,0,0,1-44.9,0c-5,2-9.39,4.52-10.88,7.32C2.87,90.3.1,105.21.1,105.21l78.9,0c-.2-.1-2-16-6.15-26.49Z"/></g></g></svg>