<svg xmlns="http://www.w3.org/2000/svg" viewBox="0 0 78.29 104.05"><defs><style>.cls-1{fill:#c68458;}.cls-2{fill:#a56a42;opacity:0.1;isolation:isolate;}.cls-3{fill:#172d39;}.cls-4{fill:#b2a1a1;}.cls-5{fill:#1c4760;}.cls-6{fill:#d1c6c6;}.cls-7{fill:#262421;}</style></defs><title>person2</title><g id="Layer_2" data-name="Layer 2"><g id="Layer_1-2" data-name="Layer 1"><path class="cls-1" d="M72.14,77.29C67.66,68.87,39,63.67,39,63.67S10.4,69.07,5.93,77.48C2.73,89.19,0,104.05,0,104.05l78.29-.32c0,.22-1.88-15.81-6.15-26.44Z"/><path class="cls-1" d="M39,63.76S67.62,69,72.1,77.39c4.18,10.58,6.11,26.52,6.11,26.52L39,104,39,63.76Z"/><rect class="cls-1" x="31.23" y="46.63" width="15.6" height="26.1" transform="translate(-0.21 0.14) rotate(-0.2)"/><rect class="cls-1" x="38.97" y="46.58" width="7.8" height="26.1" transform="translate(-0.21 0.15) rotate(-0.2)"/><path class="cls-2" d="M31.17,58.67c1.4,4,7.06,6.29,11.23,6.27a13,13,0,0,0,4.35-.71l0-17.72-15.53,0V58.67Z"/><path class="cls-1" d="M59,30.07c0-16.3-9.06-25.54-20.12-25.5s-20,9.34-19.94,25.63C19,52.09,28,59.68,39.05,59.64S59,51.06,59,30.07Z"/><path class="cls-1" d="M56,41.4c-3.65-.4-6.07-4.31-5.53-8.77s4-7.76,7.66-7.45S64.15,29.5,63.6,34,59.54,41.68,56,41.4Z"/><path class="cls-1" d="M15.3,33.2c-.66-4.45,1.84-8.37,5.4-8.77s7.13,2.93,7.7,7.33-1.84,8.37-5.4,8.77S15.87,37.6,15.3,33.2Z"/><path class="cls-1" d="M59,30.07c0-16.3-9.06-25.54-20.12-25.5l.19,55.07C50,59.55,59,51.06,59,30.07Z"/><path class="cls-3" d="M72.14,77.29c-2.65-4.88-13.5-8.79-22-11l-11,37.78L27.91,66.31c-8.57,2.33-19.4,6.3-22,11.17C2.73,89.19,0,104.05,0,104.05l78.29-.32c0,.22-1.88-15.81-6.15-26.44Z"/><polygon class="cls-4" points="27.56 66.37 39.13 104.05 50.12 66.27 39.04 78.98 27.56 66.37"/><path class="cls-5" d="M37.52,102.24,22.67,85.86a.53.53,0,0,1,0-.77c0-.09.13,0,.17-.14l4.36-1.69a.61.61,0,0,0,.32-.73l-.05-.13L18.07,70.27a.45.45,0,0,1,.1-.72l.13,0c.93-.36,2.51-1,3.39-1.24a51.68,51.68,0,0,1,5.47-1.74c.26-.1.5.11.6.38l10.63,34.85a.41.41,0,0,1-.37.6c-.17.15-.35.07-.5-.11Z"/><path class="cls-6" d="M24.85,81.68l8.47-8.07.09,0,5.4,5.12s.13-.06,0-.1l-7.66-13.1-.09,0-4.69,1.21,0,.09c-.3,4.89-1.5,13.55-1.52,14.85h0c-.06-.14,0-.1,0,0Z"/><path class="cls-7" d="M60.91,26.43s-3.62-2.69-5.07,5.31c.45-7.46,0-17.69-6-19.59-3.34,6.07-16.53,10-25.32,7.84-4.38.26-.72,1.87-3.54,14,.14-5.52.07-8.83-3.37-7.72C16.69,14.69,22.93.06,39.9,0s22.66,11.31,21,26.43Z"/><path class="cls-5" d="M40.52,102.14,55.26,85.58a.6.6,0,0,0,0-.76l-.18-.08-4.42-1.62a.57.57,0,0,1-.35-.7l.08-.18L59.7,70.06a.57.57,0,0,0-.08-.8l-.18-.08c-1-.32-2.52-1-3.38-1.28-1.78-.67-3.64-1.16-5.5-1.66-.31,0-.57.08-.6.39h0l-10.41,35a.44.44,0,0,0,.39.61.35.35,0,0,0,.58-.08Z"/><path class="cls-6" d="M53.13,81.48,44.6,73.56l-.09,0L39.2,78.61c0,.09-.09,0-.09,0L46.67,65.4h0l4.72,1.21.09,0c.28,4.82,1.5,13.45,1.65,14.83Z"/></g></g></svg>