<svg xmlns="http://www.w3.org/2000/svg" viewBox="0 0 262.47 101.53"><defs><style>.cls-1{fill:#23504f;stroke-width:1.48px;}.cls-1,.cls-2,.cls-3{stroke:#000;}.cls-2{fill:#001b1a;stroke-width:0.87px;}.cls-3{fill:#2d7e7d;stroke-width:1.18px;}.cls-4{fill:#231f20;}</style></defs><title>Final-Logo</title><g id="Layer_2" data-name="Layer 2"><g id="Layer_1-2" data-name="Layer 1"><rect class="cls-1" x="9.72" y="9.6" width="32.18" height="32.18" transform="translate(-10.6 25.77) rotate(-45)"/><rect class="cls-2" x="16.31" y="16.18" width="19" height="19" transform="translate(-10.6 25.77) rotate(-45)"/><path class="cls-3" d="M29.68,44.37a10.78,10.78,0,0,0,1-.91L44.37,29.78a9.48,9.48,0,0,0,.91-1l4.38-4.38a4.68,4.68,0,0,0,.68-.89,4.21,4.21,0,0,1,.54,2.58l-.19,2.06a5,5,0,0,1-1.31,3.18L32.24,48.47a5,5,0,0,1-3.19,1.31L27,50a4.21,4.21,0,0,1-2.58-.54,4.38,4.38,0,0,0,.89-.68Z"/><path class="cls-3" d="M29.68,7a10.78,10.78,0,0,1,1,.91L44.37,21.6a8.71,8.71,0,0,1,.91,1L49.66,27a4.68,4.68,0,0,1,.68.89,4.18,4.18,0,0,0,.54-2.57l-.19-2.06a5,5,0,0,0-1.31-3.19L32.24,2.9a5,5,0,0,0-3.19-1.31L27,1.4A4.28,4.28,0,0,0,24.41,2a4.33,4.33,0,0,1,.89.67Z"/><path class="cls-3" d="M21.94,44.37a9.62,9.62,0,0,1-1-.91L7.25,29.78a9.9,9.9,0,0,1-.92-1L2,24.39a4.61,4.61,0,0,1-.67-.89,4.21,4.21,0,0,0-.54,2.58l.18,2.06a5,5,0,0,0,1.31,3.18L19.38,48.47a5,5,0,0,0,3.19,1.31l2.06.19a4.22,4.22,0,0,0,2.58-.54,4.12,4.12,0,0,1-.89-.68Z"/><path class="cls-3" d="M21.94,7a9.62,9.62,0,0,0-1,.91L7.25,21.6a9.07,9.07,0,0,0-.92,1L2,27a4.61,4.61,0,0,0-.67.89A4.18,4.18,0,0,1,.74,25.3l.18-2.06a5,5,0,0,1,1.31-3.19L19.38,2.9a5,5,0,0,1,3.19-1.31l2.06-.19A4.3,4.3,0,0,1,27.21,2a4.08,4.08,0,0,0-.89.67Z"/><rect class="cls-1" x="58.45" y="9.6" width="32.18" height="32.18" transform="translate(3.67 60.23) rotate(-45)"/><rect class="cls-2" x="65.03" y="16.18" width="19" height="19" transform="translate(3.67 60.23) rotate(-45)"/><path class="cls-3" d="M55.85,29.56a10.78,10.78,0,0,0,.91,1L70.44,44.25a10.78,10.78,0,0,0,1,.91l4.38,4.38a4.68,4.68,0,0,0,.89.68,4.18,4.18,0,0,1-2.57.54l-2.07-.19a5,5,0,0,1-3.18-1.31L51.75,32.11a5,5,0,0,1-1.31-3.18l-.19-2.06a4.21,4.21,0,0,1,.54-2.58,4.68,4.68,0,0,0,.68.89Z"/><path class="cls-3" d="M93.22,29.56a10.78,10.78,0,0,1-.91,1L78.63,44.25a10.78,10.78,0,0,1-1,.91l-4.38,4.38a4.68,4.68,0,0,1-.89.68,4.18,4.18,0,0,0,2.57.54L77,50.57a5,5,0,0,0,3.18-1.31L97.32,32.11a5,5,0,0,0,1.31-3.18l.19-2.06a4.15,4.15,0,0,0-.55-2.58,4.24,4.24,0,0,1-.67.89Z"/><path class="cls-3" d="M55.85,21.81a9.8,9.8,0,0,1,.91-1L70.44,7.13a9.9,9.9,0,0,1,1-.92l4.38-4.38a4.61,4.61,0,0,1,.89-.67A4.25,4.25,0,0,0,74.15.61L72.08.8A5,5,0,0,0,68.9,2.11L51.75,19.26a5,5,0,0,0-1.31,3.19l-.19,2.06a4.18,4.18,0,0,0,.54,2.57,4.68,4.68,0,0,1,.68-.89Z"/><path class="cls-3" d="M93.22,21.81a9.8,9.8,0,0,0-.91-1L78.63,7.13a9.9,9.9,0,0,0-1-.92L73.24,1.83a4.61,4.61,0,0,0-.89-.67A4.25,4.25,0,0,1,74.92.61L77,.8a5,5,0,0,1,3.18,1.31L97.32,19.26a5,5,0,0,1,1.31,3.19l.19,2.06a4.12,4.12,0,0,1-.55,2.57,4.24,4.24,0,0,0-.67-.89Z"/><rect class="cls-1" x="8.81" y="59.76" width="32.18" height="32.18" transform="translate(-46.34 39.82) rotate(-45)"/><rect class="cls-2" x="15.39" y="66.34" width="19" height="19" transform="translate(-46.34 39.82) rotate(-45)"/><path class="cls-3" d="M43.58,79.72a10.78,10.78,0,0,1-.91,1L29,94.41a10.78,10.78,0,0,1-1,.91L23.6,99.7a4.68,4.68,0,0,1-.89.68,4.21,4.21,0,0,0,2.58.54l2.06-.19a5,5,0,0,0,3.18-1.31L47.68,82.27A5,5,0,0,0,49,79.09L49.18,77a4.18,4.18,0,0,0-.54-2.57,4.68,4.68,0,0,1-.68.89Z"/><path class="cls-3" d="M6.21,79.72a9.9,9.9,0,0,0,.92,1L20.81,94.41a9.8,9.8,0,0,0,1,.91l4.38,4.38a4.68,4.68,0,0,0,.89.68,4.18,4.18,0,0,1-2.57.54l-2.06-.19a5,5,0,0,1-3.19-1.31L2.11,82.27A5,5,0,0,1,.8,79.09L.61,77a4.25,4.25,0,0,1,.55-2.57,4.61,4.61,0,0,0,.67.89Z"/><path class="cls-3" d="M43.58,72a10.78,10.78,0,0,0-.91-1L29,57.28a10.78,10.78,0,0,0-1-.91L23.6,52a4.24,4.24,0,0,0-.89-.67,4.28,4.28,0,0,1,2.58-.55l2.06.19a5,5,0,0,1,3.18,1.31L47.68,69.42A5,5,0,0,1,49,72.6l.19,2.07a4.18,4.18,0,0,1-.54,2.57,4.68,4.68,0,0,0-.68-.89Z"/><path class="cls-3" d="M6.21,72a9.9,9.9,0,0,1,.92-1L20.81,57.28a9.8,9.8,0,0,1,1-.91L26.19,52a4.24,4.24,0,0,1,.89-.67,4.25,4.25,0,0,0-2.57-.55L22.45,51a5,5,0,0,0-3.19,1.31L2.11,69.42A5,5,0,0,0,.8,72.6L.61,74.67a4.25,4.25,0,0,0,.55,2.57,4.61,4.61,0,0,1,.67-.89Z"/><rect class="cls-1" x="58.45" y="59.76" width="32.18" height="32.18" transform="translate(-31.8 74.92) rotate(-45)"/><rect class="cls-2" x="65.03" y="66.34" width="19" height="19" transform="translate(-31.8 74.92) rotate(-45)"/><path class="cls-3" d="M70.66,94.53a10.78,10.78,0,0,1-1-.91L56,79.94a10.78,10.78,0,0,1-.91-1l-4.38-4.38a4.68,4.68,0,0,1-.68-.89,4.18,4.18,0,0,0-.54,2.57l.19,2.07A5,5,0,0,0,51,81.48L68.11,98.63a5,5,0,0,0,3.18,1.31l2.07.19a4.18,4.18,0,0,0,2.57-.54,4.68,4.68,0,0,1-.89-.68Z"/><path class="cls-3" d="M70.66,57.16a10.78,10.78,0,0,0-1,.91L56,71.75a10.78,10.78,0,0,0-.91,1l-4.38,4.38A4.68,4.68,0,0,0,50,78a4.18,4.18,0,0,1-.54-2.57l.19-2.07A5,5,0,0,1,51,70.21L68.11,53.06a5,5,0,0,1,3.18-1.31l2.07-.19a4.18,4.18,0,0,1,2.57.55,4.24,4.24,0,0,0-.89.67Z"/><path class="cls-3" d="M78.41,94.53a10.78,10.78,0,0,0,1-.91L93.1,79.94a10.78,10.78,0,0,0,.91-1l4.38-4.38a4.24,4.24,0,0,0,.67-.89,4.12,4.12,0,0,1,.55,2.57l-.19,2.07a5,5,0,0,1-1.31,3.18L81,98.63a5,5,0,0,1-3.18,1.31l-2.07.19a4.18,4.18,0,0,1-2.57-.54,4.68,4.68,0,0,0,.89-.68Z"/><path class="cls-3" d="M78.41,57.16a10.78,10.78,0,0,1,1,.91L93.1,71.75a10.78,10.78,0,0,1,.91,1l4.38,4.38a4.24,4.24,0,0,1,.67.89,4.12,4.12,0,0,0,.55-2.57l-.19-2.07a5,5,0,0,0-1.31-3.18L81,53.06a5,5,0,0,0-3.18-1.31l-2.07-.19a4.18,4.18,0,0,0-2.57.55,4.24,4.24,0,0,1,.89.67Z"/><path class="cls-4" d="M135.3,41.81l.16-.05a9.21,9.21,0,0,1-.38-2.58V11.23h4.51V48.79h-4.51L115.44,18.63l-.16.05a9.21,9.21,0,0,1,.38,2.58V48.79h-4.51V11.23h4.51Z"/><path class="cls-4" d="M167.58,45v3.76h-24V11.23h24V15H148.05V27.86h16.52v3.76H148.05V45Z"/><path class="cls-4" d="M171.82,11.23h28.33V15H188.24V48.79h-4.51V15H171.82Z"/><path class="cls-4" d="M132,70.67v.27a2.55,2.55,0,0,1,1.5.69l2.58,2.1a2.14,2.14,0,0,1,.61.77,4.23,4.23,0,0,1,.14,1.32v9.66a3.36,3.36,0,0,1-1.29,2.68c-.29.21-.72.57-1.29,1.07a4,4,0,0,1-2.57,1.08h-20.5V52.75H131a4,4,0,0,1,2.58,1.07l1.29,1.07a3.35,3.35,0,0,1,1.28,2.69v9.17a2.22,2.22,0,0,1-.85,1.82L133.47,70A2.51,2.51,0,0,1,132,70.67ZM115.66,56.5V69.38H127.3a6.25,6.25,0,0,0,1.26-.08,2.44,2.44,0,0,0,.83-.51l1.4-1.13a2.59,2.59,0,0,0,.75-.8,4,4,0,0,0,.11-1.18v-7a4.33,4.33,0,0,0-.08-1A1.68,1.68,0,0,0,131,57a2.82,2.82,0,0,0-.75-.46A5.88,5.88,0,0,0,129,56.5Zm15.72,18.3-1.18-1a3.42,3.42,0,0,0-.91-.61,4.27,4.27,0,0,0-1.08-.08H115.66V86.55h14a5.93,5.93,0,0,0,1.24-.08,2.71,2.71,0,0,0,.75-.46,1.6,1.6,0,0,0,.56-.61,3.94,3.94,0,0,0,.08-1.05V76.73a3.45,3.45,0,0,0-.11-1.13A2.7,2.7,0,0,0,131.38,74.8Z"/><path class="cls-4" d="M144.38,52.75H164a4,4,0,0,1,2.58,1.07l1.29,1.07a3.36,3.36,0,0,1,1.29,2.69v27.9a3.36,3.36,0,0,1-1.29,2.68l-1.29,1.07A4,4,0,0,1,164,90.31H144.38a4,4,0,0,1-2.58-1.08l-1.29-1.07a3.38,3.38,0,0,1-1.28-2.68V57.58a3.38,3.38,0,0,1,1.28-2.69l1.29-1.07A4,4,0,0,1,144.38,52.75Zm20.28,31.6V58.7a4.33,4.33,0,0,0-.08-1A1.59,1.59,0,0,0,164,57a2.82,2.82,0,0,0-.75-.46A5.81,5.81,0,0,0,162,56.5H146.36a5.88,5.88,0,0,0-1.23.08,2.82,2.82,0,0,0-.75.46,1.59,1.59,0,0,0-.57.62,4.33,4.33,0,0,0-.08,1V84.35a4.44,4.44,0,0,0,.08,1.05,1.65,1.65,0,0,0,.57.61,2.58,2.58,0,0,0,.75.46,5.88,5.88,0,0,0,1.23.08H162a5.81,5.81,0,0,0,1.23-.08A2.58,2.58,0,0,0,164,86a1.65,1.65,0,0,0,.57-.61A4.44,4.44,0,0,0,164.66,84.35Z"/><path class="cls-4" d="M177.92,52.75h19.63a4,4,0,0,1,2.58,1.07l1.29,1.07a3.35,3.35,0,0,1,1.28,2.69v27.9a3.35,3.35,0,0,1-1.28,2.68l-1.29,1.07a4,4,0,0,1-2.58,1.08H177.92a4,4,0,0,1-2.58-1.08l-1.29-1.07a3.35,3.35,0,0,1-1.28-2.68V57.58a3.35,3.35,0,0,1,1.28-2.69l1.29-1.07A4,4,0,0,1,177.92,52.75Zm20.28,31.6V58.7a4.33,4.33,0,0,0-.08-1,1.59,1.59,0,0,0-.57-.62,2.82,2.82,0,0,0-.75-.46,5.88,5.88,0,0,0-1.23-.08H179.9a5.88,5.88,0,0,0-1.23.08,2.82,2.82,0,0,0-.75.46,1.59,1.59,0,0,0-.57.62,4.33,4.33,0,0,0-.08,1V84.35a4.44,4.44,0,0,0,.08,1.05,1.65,1.65,0,0,0,.57.61,2.58,2.58,0,0,0,.75.46,5.88,5.88,0,0,0,1.23.08h15.67a5.88,5.88,0,0,0,1.23-.08,2.58,2.58,0,0,0,.75-.46,1.65,1.65,0,0,0,.57-.61A4.44,4.44,0,0,0,198.2,84.35Z"/><path class="cls-4" d="M224.55,73.14H211.72a4,4,0,0,1-2.57-1.08l-1.45-1.23a2.7,2.7,0,0,1-1.13-2.15V57.58a3.36,3.36,0,0,1,1.29-2.69l1.29-1.07a4,4,0,0,1,2.57-1.07H226a4,4,0,0,1,2.57,1.07l1.29,1.07a3.36,3.36,0,0,1,1.29,2.69v2.14h-4.51v-1a4.33,4.33,0,0,0-.08-1A1.54,1.54,0,0,0,226,57a3,3,0,0,0-.76-.46A5.88,5.88,0,0,0,224,56.5h-10.3a5.93,5.93,0,0,0-1.24.08,2.82,2.82,0,0,0-.75.46,1.54,1.54,0,0,0-.56.62,4.33,4.33,0,0,0-.08,1v8.48a4.44,4.44,0,0,0,.08,1,1.6,1.6,0,0,0,.56.61,2.58,2.58,0,0,0,.75.46,5.93,5.93,0,0,0,1.24.08h12.82a4.07,4.07,0,0,1,2.58,1.07l1.28,1.08a3.34,3.34,0,0,1,1.29,2.68V85.48a3.36,3.36,0,0,1-1.29,2.68l-1.28,1.07a4,4,0,0,1-2.58,1.08H211.18a4,4,0,0,1-2.57-1.08l-1.29-1.07A3.36,3.36,0,0,1,206,85.48V83.33h4.51v1a4.44,4.44,0,0,0,.08,1.05,1.69,1.69,0,0,0,.56.61,2.73,2.73,0,0,0,.76.46,5.88,5.88,0,0,0,1.23.08h11.38a5.88,5.88,0,0,0,1.23-.08,2.58,2.58,0,0,0,.75-.46,1.6,1.6,0,0,0,.56-.61,3.8,3.8,0,0,0,.09-1.05v-9a3.75,3.75,0,0,0-.09-1,1.61,1.61,0,0,0-.56-.62,2.49,2.49,0,0,0-.75-.45A5.23,5.23,0,0,0,224.55,73.14Z"/><path class="cls-4" d="M234.14,52.75h28.33V56.5H250.56V90.31h-4.51V56.5H234.14Z"/></g></g></svg>