<svg xmlns="http://www.w3.org/2000/svg" xmlns:xlink="http://www.w3.org/1999/xlink" viewBox="0 0 136.3 115.2"><defs><style>.cls-1,.cls-2{fill:none;}.cls-2{stroke:#e6e6e6;stroke-miterlimit:10;stroke-width:0.8px;}.cls-3{fill:#ffda7a;}.cls-4{fill:#e6e4e4;}.cls-5{fill:#328a89;}.cls-6{fill:#226f6d;}.cls-7{fill:#014444;}.cls-8{fill:#fff;}.cls-9{clip-path:url(#clip-path);}.cls-10{fill:#353f49;}.cls-11{fill:#a6262c;}</style><clipPath id="clip-path"><circle class="cls-1" cx="96.71" cy="46.65" r="21.91"/></clipPath></defs><title>homepage_2</title><g id="Layer_2" data-name="Layer 2"><g id="Layer_1-2" data-name="Layer 1"><g id="Layer_2-2" data-name="Layer 2"><g id="Layer_1-2-2" data-name="Layer 1-2"><rect class="cls-2" x="0.4" y="11.22" width="78.86" height="103.58"/><rect class="cls-3" x="0.4" width="78.06" height="11.22"/><rect class="cls-4" x="5.43" y="17.3" width="30.43" height="31.23"/><rect class="cls-4" x="41.95" y="17.3" width="30.42" height="31.23"/><rect class="cls-4" x="5.43" y="91.5" width="66.94" height="3.11"/><rect class="cls-4" x="5.43" y="97.7" width="66.94" height="3.12"/><rect class="cls-4" x="5.43" y="103.93" width="66.94" height="3.11"/><rect class="cls-4" x="5.43" y="54.62" width="66.94" height="30.8"/><path class="cls-5" d="M57.16,4.31A4.31,4.31,0,0,1,61.46,0H132a4.31,4.31,0,0,1,4.3,4.31V110.5a4.32,4.32,0,0,1-4.3,4.3H61.46a4.32,4.32,0,0,1-4.3-4.3Z"/><path class="cls-6" d="M92.35,110a1.92,1.92,0,0,1-1.91-1.91h0v-.47a1.92,1.92,0,0,1,1.91-1.92h8.73a1.93,1.93,0,0,1,1.92,1.92v.47a1.92,1.92,0,0,1-1.92,1.91Z"/><path class="cls-6" d="M96.71,7.58a2,2,0,1,1,2-2A2,2,0,0,1,96.71,7.58Z"/><path class="cls-7" d="M96.72,6.43a.82.82,0,0,1-.82-.82h0a.82.82,0,1,1,1.64,0A.84.84,0,0,1,96.72,6.43Z"/><rect class="cls-8" x="61.65" y="11.22" width="70.13" height="89.68"/><rect class="cls-5" x="83.97" y="77.94" width="25.48" height="4.75"/><rect class="cls-3" x="83.97" y="85.12" width="25.48" height="4.75"/><circle class="cls-3" cx="96.71" cy="46.65" r="21.91"/><g class="cls-9"><polygon class="cls-10" points="103.41 39.04 90.01 39.04 89.09 58.53 104.33 58.53 103.41 39.04"/><path class="cls-8" d="M81.56,62.73v.11l-.91,2.9h0l-1.2,3.8H114l-1.2-3.8-1.32-4.17a4.78,4.78,0,0,0-1.07-1.85,4.93,4.93,0,0,0-1.77-1.22l-6.93-2.74a2,2,0,0,1-.88-.72,1.94,1.94,0,0,1-.33-1V50.58H92.93V54a2,2,0,0,1-1.23,1.81L84.77,58.5A4.93,4.93,0,0,0,83,59.72a4.8,4.8,0,0,0-1.08,1.85l-.37,1.16Z"/><path class="cls-8" d="M96.71,33.42c-4.14,0-7.09,3-7.09,9.42,0,5.41,3.17,10,7.09,10s7.1-4.58,7.1-10C103.81,36.44,100.85,33.42,96.71,33.42Z"/><path class="cls-10" d="M103.08,33.76H90.34s-.9,6.37.25,7.66c.06-.52.52-.67,1.36-.67a7,7,0,0,0,1.22-3,9.45,9.45,0,0,1,.22,3c.9.06,2,.15,3.32.16h1a1.46,1.46,0,0,0,.55-.8,1.5,1.5,0,0,1,.28.76c2.72-.15,4.24-.46,4.33.51C104,40.13,103.08,33.76,103.08,33.76Z"/><path class="cls-10" d="M91.7,55.76A2,2,0,0,0,92.93,54V52.51H90.79a44.46,44.46,0,0,1-.43-5.87c0-5.56.38-7.64,1.92-9.52a8.47,8.47,0,0,1,4.43-2.91,8.49,8.49,0,0,1,4.44,2.91c1.54,1.88,1.91,4,1.91,9.52a42.7,42.7,0,0,1-.43,5.87H100.5V54a1.93,1.93,0,0,0,.34,1.09,2,2,0,0,0,.88.72l4,1.58a3.38,3.38,0,0,0,.73-2.09V52.51c0-4.6-.14-10.61-1.11-15-.85-3.76-4.07-7.39-8.61-6.41-4.54-1-7.75,2.65-8.6,6.41-1,4.38-1.12,10.39-1.12,15v2.74a3.32,3.32,0,0,0,.75,2.09Z"/><path class="cls-11" d="M85.42,69.54H108a21.77,21.77,0,0,1-1.71-8.87,25.16,25.16,0,0,1,.18-3h0l-1.86-.74-.79,3.2a7.27,7.27,0,0,1-2.59,4,7.59,7.59,0,0,1-9,0,7.36,7.36,0,0,1-2.59-4l-.8-3.2L87,57.65h0a25.16,25.16,0,0,1,.18,3A21.91,21.91,0,0,1,85.42,69.54Z"/></g></g></g></g></g></svg>