<?xml version="1.0" encoding="utf-8"?>
<!-- Generator: Adobe Illustrator 22.1.0, SVG Export Plug-In . SVG Version: 6.00 Build 0)  -->
<svg version="1.1" id="Layer_1" xmlns="http://www.w3.org/2000/svg" xmlns:xlink="http://www.w3.org/1999/xlink" x="0px" y="0px"
	 viewBox="0 0 96.1 109.1" style="enable-background:new 0 0 96.1 109.1;" xml:space="preserve">
<style type="text/css">
	.st0{fill:#328A89;}
	.st1{fill:#A6262C;}
	.st2{fill:#353F49;}
	.st3{opacity:0.1;fill:#DDAC8C;enable-background:new    ;}
	.st4{fill:#328A89;stroke:#328A89;stroke-width:0.5;stroke-miterlimit:10;}
	.st5{fill:#F1C9A5;}
	.st6{fill:#A6262C;stroke:#A6262C;stroke-width:0.577;stroke-miterlimit:10;}
	.st7{fill:#2E150B;}
</style>
<title>homepage_1</title>
<rect x="47.1" y="52.4" class="st0" width="1.7" height="2.1"/>
<path class="st0" d="M48.8,48.4h-1.7v-4h1.7V48.4z M48.8,40.4h-1.7v-4h1.7V40.4z M48.8,32.4h-1.7v-4h1.7V32.4z M48.8,24.4h-1.7v-4
	h1.7V24.4z M48.8,16.4h-1.7v-4h1.7V16.4z"/>
<rect x="47.1" y="6.3" class="st0" width="1.7" height="2.1"/>
<rect x="47.1" y="54.5" class="st0" width="1.7" height="2.1"/>
<path class="st0" d="M48.8,96.7h-1.7v-4h1.7V96.7z M48.8,88.7h-1.7v-4h1.7V88.7z M48.8,80.7h-1.7v-4h1.7V80.7z M48.8,72.7h-1.7v-4
	h1.7V72.7z M48.8,64.7h-1.7v-4h1.7V64.7z"/>
<rect x="47.1" y="100.7" class="st0" width="1.7" height="2.1"/>
<rect x="6.1" y="77.6" transform="matrix(0.867 -0.4983 0.4983 0.867 -38.1362 14.0113)" class="st0" width="2.1" height="1.7"/>
<path class="st0" d="M11.9,76.3l-0.8-1.4l3.5-2l0.8,1.4L11.9,76.3z M18.8,72.3L18,70.9l3.5-2l0.8,1.4L18.8,72.3z M25.8,68.3
	l-0.9-1.4l3.5-2l0.8,1.4L25.8,68.3z M32.7,64.3l-0.8-1.4l3.5-2l0.8,1.5L32.7,64.3z M39.7,60.3l-0.8-1.5l3.5-2l0.8,1.5L39.7,60.3z"/>
<polygon class="st0" points="46.6,56.3 45.7,54.9 46.3,54.5 45.7,54.2 46.6,52.8 49.6,54.5 "/>
<path class="st0" d="M42.3,52.2l-3.5-2l0.8-1.5l3.5,2L42.3,52.2z M35.3,48.2l-3.5-2l0.8-1.5l3.5,2L35.3,48.2z M28.4,44.2l-3.5-2
	l0.8-1.5l3.5,2L28.4,44.2z M21.4,40.2l-3.5-2l0.8-1.5l3.5,2L21.4,40.2z M14.5,36.2l-3.5-2l0.9-1.5l3.5,2L14.5,36.2z"/>
<rect x="6.2" y="29.9" transform="matrix(0.5 -0.866 0.866 0.5 -23.2328 21.576)" class="st0" width="1.7" height="2.1"/>
<rect x="87.8" y="30.1" transform="matrix(0.8659 -0.5003 0.5003 0.8659 -3.5611 48.6185)" class="st0" width="2.1" height="1.7"/>
<path class="st0" d="M53.7,52.2l-0.8-1.4l3.5-2l0.8,1.5L53.7,52.2z M60.6,48.2l-0.8-1.5l3.5-2l0.8,1.5L60.6,48.2z M67.5,44.2
	l-0.8-1.5l3.5-2l0.8,1.5L67.5,44.2z M74.5,40.2l-0.8-1.5l3.5-2l0.8,1.5L74.5,40.2z M81.4,36.2l-0.8-1.5l3.5-2l0.8,1.4L81.4,36.2z"/>
<polygon class="st0" points="49.4,56.3 46.3,54.5 49.4,52.8 50.2,54.2 49.6,54.5 50.2,54.9 "/>
<path class="st0" d="M84.1,76.3l-3.5-2l0.8-1.4l3.5,2L84.1,76.3z M77.1,72.3l-3.5-2l0.8-1.4l3.5,2L77.1,72.3z M70.1,68.3l-3.5-2
	l0.8-1.4l3.5,2L70.1,68.3z M63.2,64.3l-3.5-2l0.8-1.5l3.5,2L63.2,64.3z M56.3,60.3l-3.5-2l0.8-1.5l3.5,2L56.3,60.3z"/>
<rect x="88" y="77.1" transform="matrix(0.5005 -0.8658 0.8658 0.5005 -23.2646 115.9869)" class="st0" width="1.7" height="2.1"/>
<polygon class="st0" points="48,103.8 45.7,102.5 46.6,101 48,101.8 49.4,101 50.2,102.5 "/>
<path class="st0" d="M42.3,100.5l-3.5-2l0.8-1.5l3.5,2L42.3,100.5z M35.3,96.5l-3.5-2l0.8-1.5l3.5,2L35.3,96.5z M28.4,92.5l-3.5-2
	l0.8-1.5l3.5,2L28.4,92.5z M21.4,88.5l-3.5-2l0.8-1.5l3.5,2L21.4,88.5z M14.5,84.5l-3.5-2l0.9-1.5l3.5,2L14.5,84.5z"/>
<polygon class="st0" points="7.6,80.4 5.3,79.1 5.3,76.6 7,76.6 7,78.2 8.4,79 "/>
<path class="st0" d="M7,72.6H5.3v-4H7C7,68.6,7,72.6,7,72.6z M7,64.6H5.3v-4H7C7,60.6,7,64.6,7,64.6z M5.3,56.6v-4H7v4H5.3z M7,48.6
	H5.3v-4H7C7,44.6,7,48.6,7,48.6z M7,40.6H5.3v-4H7C7,36.6,7,40.6,7,40.6z"/>
<polygon class="st0" points="7,32.5 5.3,32.5 5.3,29.9 7.6,28.6 8.4,30.1 7,30.9 "/>
<path class="st0" d="M11.9,28.1l-0.8-1.4l3.5-2l0.8,1.5L11.9,28.1z M18.8,24.1L18,22.6l3.5-2l0.8,1.5L18.8,24.1z M25.8,20.1
	l-0.9-1.5l3.5-2l0.8,1.5L25.8,20.1z M32.7,16.1l-0.8-1.5l3.5-2l0.8,1.4L32.7,16.1z M39.7,12.1l-0.9-1.5l3.5-2l0.8,1.4L39.7,12.1z"/>
<polygon class="st0" points="46.6,8 45.7,6.6 48,5.3 50.2,6.6 49.4,8 48,7.2 "/>
<path class="st0" d="M84.1,28.1l-3.5-2l0.8-1.5l3.5,2L84.1,28.1z M77.1,24.1l-3.5-2l0.8-1.5l3.5,2L77.1,24.1z M70.2,20.1l-3.5-2
	l0.8-1.4l3.5,2L70.2,20.1z M63.2,16.1l-3.5-2l0.8-1.4l3.5,2L63.2,16.1z M56.3,12.1l-3.5-2l0.8-1.4l3.5,2L56.3,12.1z"/>
<polygon class="st0" points="90.6,32.5 88.9,32.5 88.9,30.9 87.5,30.1 88.4,28.6 90.6,29.9 "/>
<path class="st0" d="M90.6,72.6h-1.7v-4h1.7V72.6z M90.6,64.6h-1.7v-4h1.7V64.6z M90.6,56.6h-1.7v-4h1.7V56.6z M90.6,48.6h-1.7v-4
	h1.7V48.6z M90.6,40.6h-1.7v-4h1.7V40.6z"/>
<polygon class="st0" points="88.4,80.4 87.5,79 88.9,78.2 88.9,76.6 90.6,76.6 90.6,79.1 "/>
<path class="st0" d="M53.7,100.5L52.8,99l3.5-2l0.8,1.4L53.7,100.5z M60.6,96.5L59.8,95l3.5-2l0.8,1.4L60.6,96.5z M67.5,92.5
	L66.7,91l3.5-2l0.8,1.4L67.5,92.5z M74.5,88.5L73.6,87l3.5-2l0.8,1.4L74.5,88.5z M81.4,84.5L80.6,83l3.5-2l0.8,1.4L81.4,84.5z"/>
<path class="st1" d="M11.6,27.3c1.7,3,0.7,6.8-2.3,8.6s-6.8,0.7-8.6-2.3S0,26.8,3,25l0,0C6,23.3,9.9,24.3,11.6,27.3z"/>
<path class="st2" d="M53.4,3.1c1.7,3,0.7,6.8-2.3,8.6c-3,1.7-6.8,0.7-8.6-2.3c-1.7-3-0.7-6.8,2.3-8.6l0,0
	C47.8-0.9,51.7,0.1,53.4,3.1z"/>
<path class="st0" d="M95.2,27.3c1.7,3,0.7,6.8-2.3,8.6s-6.8,0.7-8.6-2.3c-1.7-3-0.7-6.8,2.3-8.6l0,0C89.6,23.3,93.4,24.3,95.2,27.3z
	"/>
<path class="st1" d="M95.2,75.5c1.7,3,0.7,6.8-2.3,8.6c-3,1.7-6.8,0.7-8.6-2.3s-0.7-6.8,2.3-8.6l0,0C89.6,71.5,93.4,72.5,95.2,75.5
	L95.2,75.5z"/>
<path class="st2" d="M53.4,99.7c1.7,3,0.7,6.8-2.3,8.6c-3,1.7-6.8,0.7-8.6-2.3c-1.7-3-0.7-6.8,2.3-8.6l0,0
	C47.8,95.6,51.7,96.6,53.4,99.7C53.4,99.6,53.4,99.6,53.4,99.7z"/>
<path class="st0" d="M11.6,75.5c1.7,3,0.7,6.8-2.3,8.6c-3,1.7-6.8,0.7-8.6-2.3S0,75,3,73.2l0,0C6,71.5,9.9,72.5,11.6,75.5z"/>
<title>person5</title>
<path class="st3" d="M45.4,59.4c0.5,1.3,2.3,2,3.6,2c0.5,0,0.9-0.1,1.4-0.2l0-5.7h-5L45.4,59.4L45.4,59.4z"/>
<g>
	<g>
		<g>
			<g>
				<g>
					<defs>
						<path id="SVGID_1_" d="M66.7,54.5c0,10.3-8.4,18.7-18.7,18.7s-18.7-8.4-18.7-18.7S37.7,35.8,48,35.8l0,0
							C58.3,35.8,66.7,44.2,66.7,54.5z"/>
					</defs>
					<clipPath id="SVGID_2_">
						<use xlink:href="#SVGID_1_"  style="overflow:visible;"/>
					</clipPath>
				</g>
			</g>
		</g>
	</g>
</g>
<path class="st4" d="M47.9,60.9c0,0,1.2,0.2,2.8,0.6c0,0,0,0,0,0c0.3,0.1,0.7,0.2,1,0.3c0,0,0.1,0,0.1,0c0.2,0.1,0.4,0.1,0.6,0.2
	c1.7,0.5,3.6,1.2,4.8,2c0.1,0,0.1,0.1,0.2,0.1c0.1,0.1,0.3,0.2,0.4,0.3c0.1,0.1,0.2,0.2,0.3,0.3c0,0,0.1,0.1,0.1,0.2
	c0.1,0.1,0.2,0.3,0.3,0.4c0.5,1.2,0.8,2.5,1.1,3.8c4.3-3.4,7.1-8.7,7.1-14.6c0-10.3-8.4-18.7-18.7-18.7s-18.7,8.4-18.7,18.7
	c0,5.9,2.8,11.2,7.1,14.6c0.3-1.2,0.6-2.5,0.9-3.7C38.8,62.7,47.9,60.9,47.9,60.9z"/>
<path class="st5" d="M37.3,65.4c0.9-1.7,5-3.1,7.8-3.8c0,1.5,1.2,2.7,2.8,2.7l0-3.4c0,0,1.2,0.2,2.8,0.6c0,0,0,0,0,0
	c-1.6-0.4-2.8-0.6-2.8-0.6S38.8,62.7,37.3,65.4c-0.3,1.2-0.6,2.5-0.9,3.7c0,0,0,0,0,0C36.7,67.9,37,66.6,37.3,65.4z"/>
<path class="st5" d="M59.7,69.1C59.7,69.1,59.7,69.1,59.7,69.1c-0.3-1.3-0.7-2.6-1.1-3.8C59,66.5,59.4,67.8,59.7,69.1z"/>
<path class="st5" d="M52.4,62c1.7,0.5,3.6,1.2,4.8,2C56,63.2,54.2,62.5,52.4,62z"/>
<path class="st5" d="M51.7,61.8c0,0,0.1,0,0.1,0C51.8,61.8,51.7,61.8,51.7,61.8z"/>
<path class="st5" d="M58.1,64.7c0,0,0.1,0.1,0.1,0.2C58.2,64.8,58.2,64.8,58.1,64.7z"/>
<path class="st5" d="M57.4,64.2c0.1,0.1,0.3,0.2,0.4,0.3C57.7,64.4,57.6,64.3,57.4,64.2z"/>
<path class="st5" d="M50.7,61.6c-1.6-0.4-2.8-0.6-2.8-0.6l0,3.4c0,0,0,0,0,0C49.5,64.3,50.7,63.1,50.7,61.6z"/>
<path class="st6" d="M57.3,64.1c0.1,0,0.1,0.1,0.2,0.1C57.4,64.1,57.3,64.1,57.3,64.1z"/>
<path class="st6" d="M57.8,64.4c0.1,0.1,0.2,0.2,0.3,0.3C58,64.6,57.9,64.5,57.8,64.4z"/>
<path class="st6" d="M51.8,61.8c0.2,0.1,0.4,0.1,0.6,0.2C52.2,62,52,61.9,51.8,61.8z"/>
<path class="st6" d="M58.2,64.9c0.1,0.1,0.2,0.3,0.3,0.4C58.5,65.2,58.4,65,58.2,64.9z"/>
<path class="st6" d="M50.7,61.5C50.7,61.5,50.7,61.5,50.7,61.5c0.3,0.1,0.7,0.2,1,0.3C51.4,61.7,51,61.6,50.7,61.5z"/>
<path class="st6" d="M58.2,64.9c0-0.1-0.1-0.1-0.1-0.2c-0.1-0.1-0.2-0.2-0.3-0.3c-0.1-0.1-0.2-0.2-0.4-0.3c-0.1,0-0.1-0.1-0.2-0.1
	c-1.2-0.8-3.1-1.5-4.8-2c-0.2-0.1-0.4-0.1-0.6-0.2c0,0-0.1,0-0.1,0c-0.3-0.1-0.7-0.2-1-0.3c0,0,0,0,0,0c2.8,0.7,6.9,2,7.8,3.8
	c0.5,1.2,0.8,2.5,1.1,3.8c0,0,0,0,0,0c-0.3-1.3-0.7-2.6-1.1-3.8C58.5,65.2,58.4,65,58.2,64.9z"/>
<rect x="47.9" y="55.4" transform="matrix(1 -4.363309e-03 4.363309e-03 1 -0.2597 0.215)" class="st5" width="2.5" height="8.4"/>
<path class="st5" d="M54.2,48.7C53.7,44.4,51,42,47.8,42c-3.2,0-5.8,2.4-6.3,6.7c-1.1,0.2-1.8,1.4-1.6,2.8c0.2,1.1,0.9,2,1.8,2.3
	c0.6,3,1.9,4.7,3.6,5.4l0,4.7l5,0l0-4.7c1.7-0.8,3-2.5,3.6-5.4c0.9-0.2,1.7-1.2,1.8-2.3C56,50.1,55.3,48.9,54.2,48.7z"/>
<path class="st6" d="M58.5,65.3c-0.9-1.7-5-3-7.8-3.8c0,1.5-1.2,2.8-2.7,2.8c0,0,0,0,0,0c-1.5,0-2.8-1.2-2.8-2.7
	c-2.8,0.7-6.9,2.1-7.8,3.8c-0.3,1.2-0.6,2.5-0.9,3.7c3.2,2.5,7.2,4.1,11.6,4.1c0,0,0,0,0.1,0c4.4,0,8.4-1.5,11.6-4.1
	C59.4,67.8,59,66.5,58.5,65.3z"/>
<path class="st7" d="M54.8,42.4c-0.9-1.4-5.3-2.3-9.8-1.8c0,0,0,0,0,0.1c-5.5,1.4-5.1,6.1-3.5,8.7c0.1,0.8,0.1,1.6,0.2,2.6
	c0,0,0.8-1.5,1.2-4.4c0.1-0.1,0.1-0.3,0.2-0.4c2.6,2.4,5.7,2.7,9.8-0.2c0.1,2.4,0.8,3.9,1.6,4.9c0.1-0.7,0.2-1.4,0.2-2
	C56.1,47.4,55.7,43.7,54.8,42.4z"/>
</svg>
