<svg xmlns="http://www.w3.org/2000/svg" viewBox="0 0 114.83 114.84"><defs><style>.cls-1{fill:#ffda7a;}.cls-2{fill:#353f49;}.cls-3{fill:#a6262c;}.cls-4{fill:#328a89;}</style></defs><title>homepage_3_2</title><g id="Layer_2" data-name="Layer 2"><g id="Layer_1-2" data-name="Layer 1"><path class="cls-1" d="M98,57.42A40.4,40.4,0,0,1,86.08,86.09L98,98a57.27,57.27,0,0,0,16.81-40.61Z"/><path class="cls-2" d="M57.41,16.87A40.57,40.57,0,0,1,98,57.42h16.86A57.42,57.42,0,0,0,57.41,0V16.87Z"/><path class="cls-3" d="M57.4,16.87V0A56.72,56.72,0,0,0,35.45,4.38L41.9,20A40.55,40.55,0,0,1,57.4,16.87Z"/><path class="cls-4" d="M86.06,86.11A40.55,40.55,0,1,1,41.9,20L35.45,4.38A57.42,57.42,0,1,0,98,98.05Z"/><path class="cls-2" d="M57.42,88.09A30.67,30.67,0,1,1,88.09,57.42,30.71,30.71,0,0,1,57.42,88.09Zm0-58.32A27.65,27.65,0,1,0,85.07,57.42,27.69,27.69,0,0,0,57.42,29.77Z"/><path class="cls-2" d="M57.42,88.09c-9,0-16.1-13.47-16.1-30.67s7.07-30.67,16.1-30.67v3c-7.09,0-13.07,12.66-13.07,27.65s6,27.65,13.07,27.65Z"/><path class="cls-2" d="M57.42,88.09v-3c7.08,0,13.07-12.66,13.07-27.65s-6-27.65-13.07-27.65v-3c9,0,16.09,13.47,16.09,30.67S66.44,88.09,57.42,88.09Z"/><rect class="cls-2" x="55.91" y="28.26" width="3.02" height="58.33"/><rect class="cls-2" x="28.25" y="55.91" width="58.33" height="3.02"/><path class="cls-2" d="M57.42,44.35a74.25,74.25,0,0,1-23.23-3.71l.94-2.87a72,72,0,0,0,44.58,0l.94,2.87A74.25,74.25,0,0,1,57.42,44.35Z"/><path class="cls-2" d="M35.13,77.07l-1-2.87a74.93,74.93,0,0,1,46.47,0l-.94,2.87A72,72,0,0,0,35.13,77.07Z"/></g></g></svg>