<svg xmlns="http://www.w3.org/2000/svg" xmlns:xlink="http://www.w3.org/1999/xlink" viewBox="0 0 291.87 115.27"><defs><style>.cls-1,.cls-2{fill:none;}.cls-2{stroke:#e6e6e6;stroke-miterlimit:10;stroke-width:0.8px;}.cls-3{fill:#ffda7a;}.cls-4{fill:#e6e4e4;}.cls-5{fill:#328a89;}.cls-6{fill:#226f6d;}.cls-7{fill:#014444;}.cls-8{fill:#fff;}.cls-9{clip-path:url(#clip-path);}.cls-10{fill:#353f49;}.cls-11{fill:#a6262c;}</style><clipPath id="clip-path"><circle class="cls-1" cx="252.28" cy="46.72" r="21.91"/></clipPath></defs><title>homepage_8</title><g id="Layer_2" data-name="Layer 2"><g id="Layer_1-2" data-name="Layer 1"><g id="Layer_2-2" data-name="Layer 2"><g id="Layer_1-2-2" data-name="Layer 1-2"><rect class="cls-2" x="155.97" y="11.29" width="78.86" height="103.58"/><rect class="cls-3" x="155.97" y="0.07" width="78.06" height="11.22"/><rect class="cls-4" x="161" y="17.37" width="30.43" height="31.23"/><rect class="cls-4" x="197.52" y="17.37" width="30.42" height="31.23"/><rect class="cls-4" x="161" y="91.57" width="66.94" height="3.11"/><rect class="cls-4" x="161" y="97.77" width="66.94" height="3.12"/><rect class="cls-4" x="161" y="104" width="66.94" height="3.11"/><rect class="cls-4" x="161" y="54.69" width="66.94" height="30.8"/><path class="cls-5" d="M212.73,4.38A4.31,4.31,0,0,1,217,.07h70.54a4.31,4.31,0,0,1,4.3,4.31V110.57a4.32,4.32,0,0,1-4.3,4.3H217a4.31,4.31,0,0,1-4.3-4.3Z"/><path class="cls-6" d="M247.92,110.07a1.91,1.91,0,0,1-1.91-1.91h0v-.47a1.92,1.92,0,0,1,1.91-1.92h8.73a1.94,1.94,0,0,1,1.92,1.92v.47a1.92,1.92,0,0,1-1.92,1.91Z"/><path class="cls-6" d="M252.28,7.65a2,2,0,1,1,2-2A2,2,0,0,1,252.28,7.65Z"/><path class="cls-7" d="M252.29,6.5a.82.82,0,0,1-.82-.82h0a.82.82,0,0,1,.82-.82.83.83,0,0,1,.82.82A.84.84,0,0,1,252.29,6.5Z"/><rect class="cls-8" x="217.22" y="11.29" width="70.13" height="89.68"/><rect class="cls-5" x="239.54" y="78.01" width="25.48" height="4.75"/><rect class="cls-3" x="239.54" y="85.19" width="25.48" height="4.75"/><circle class="cls-3" cx="252.28" cy="46.72" r="21.91"/><g class="cls-9"><polygon class="cls-10" points="258.98 39.11 245.57 39.11 244.66 58.6 259.89 58.6 258.98 39.11"/><path class="cls-8" d="M237.13,62.8v.11l-.91,2.9h0l-1.2,3.8h34.55l-1.2-3.8-1.32-4.17A4.91,4.91,0,0,0,266,59.79a5,5,0,0,0-1.77-1.22l-6.93-2.74a1.94,1.94,0,0,1-.88-.72,1.86,1.86,0,0,1-.33-1V50.65H248.5v3.42a2,2,0,0,1-1.23,1.81l-6.93,2.69a4.85,4.85,0,0,0-1.77,1.22,4.68,4.68,0,0,0-1.08,1.85l-.37,1.16Z"/><path class="cls-8" d="M252.28,33.49c-4.14,0-7.09,3-7.09,9.42,0,5.41,3.17,10,7.09,10s7.1-4.58,7.1-10C259.38,36.51,256.42,33.49,252.28,33.49Z"/><path class="cls-10" d="M258.65,33.83H245.91s-.9,6.37.25,7.66c.06-.52.52-.67,1.36-.67a7.12,7.12,0,0,0,1.22-3,9.75,9.75,0,0,1,.22,3c.9.06,2,.15,3.32.16h1a1.46,1.46,0,0,0,.55-.8,1.71,1.71,0,0,1,.28.76c2.72-.15,4.24-.46,4.33.51C259.57,40.2,258.65,33.83,258.65,33.83Z"/><path class="cls-10" d="M247.27,55.83a2,2,0,0,0,1.23-1.76V52.58h-2.14a42.7,42.7,0,0,1-.43-5.87c0-5.56.38-7.64,1.92-9.52a8.43,8.43,0,0,1,4.43-2.91,8.53,8.53,0,0,1,4.44,2.91c1.54,1.88,1.91,4,1.91,9.52a44.33,44.33,0,0,1-.43,5.87h-2.13v1.49a1.85,1.85,0,0,0,.34,1.09,1.94,1.94,0,0,0,.88.72l4,1.58a3.45,3.45,0,0,0,.73-2.09V52.58c0-4.6-.14-10.61-1.11-15-.85-3.76-4.07-7.39-8.61-6.41-4.54-1-7.75,2.65-8.6,6.41-1,4.38-1.12,10.39-1.12,15v2.74a3.27,3.27,0,0,0,.75,2.09Z"/><path class="cls-11" d="M241,69.61h22.58a21.61,21.61,0,0,1-1.71-8.87,25.16,25.16,0,0,1,.18-3h0L260.18,57l-.79,3.2a7.29,7.29,0,0,1-2.59,4,7.59,7.59,0,0,1-9,0,7.31,7.31,0,0,1-2.59-4l-.8-3.2-1.84.72h0a25.16,25.16,0,0,1,.18,3A22.25,22.25,0,0,1,241,69.61Z"/></g></g></g><path class="cls-3" d="M98,57.42A40.4,40.4,0,0,1,86.08,86.09L98,98a57.27,57.27,0,0,0,16.81-40.61Z"/><path class="cls-10" d="M57.41,16.87A40.57,40.57,0,0,1,98,57.42h16.86A57.42,57.42,0,0,0,57.41,0V16.87Z"/><path class="cls-11" d="M57.4,16.87V0A56.72,56.72,0,0,0,35.45,4.38L41.9,20A40.55,40.55,0,0,1,57.4,16.87Z"/><path class="cls-5" d="M86.06,86.11A40.55,40.55,0,1,1,41.9,20L35.45,4.38A57.42,57.42,0,1,0,98,98.05Z"/><path class="cls-10" d="M57.42,88.09A30.67,30.67,0,1,1,88.09,57.42,30.71,30.71,0,0,1,57.42,88.09Zm0-58.32A27.65,27.65,0,1,0,85.07,57.42,27.69,27.69,0,0,0,57.42,29.77Z"/><path class="cls-10" d="M57.42,88.09c-9,0-16.1-13.47-16.1-30.67s7.07-30.67,16.1-30.67v3c-7.09,0-13.07,12.66-13.07,27.65s6,27.65,13.07,27.65Z"/><path class="cls-10" d="M57.42,88.09v-3c7.08,0,13.07-12.66,13.07-27.65s-6-27.65-13.07-27.65v-3c9,0,16.09,13.47,16.09,30.67S66.44,88.09,57.42,88.09Z"/><rect class="cls-10" x="55.91" y="28.26" width="3.02" height="58.33"/><rect class="cls-10" x="28.25" y="55.91" width="58.33" height="3.02"/><path class="cls-10" d="M57.42,44.35a74.25,74.25,0,0,1-23.23-3.71l.94-2.87a72,72,0,0,0,44.58,0l.94,2.87A74.25,74.25,0,0,1,57.42,44.35Z"/><path class="cls-10" d="M35.13,77.07l-1-2.87a74.93,74.93,0,0,1,46.47,0l-.94,2.87A72,72,0,0,0,35.13,77.07Z"/></g></g></svg>