<svg xmlns="http://www.w3.org/2000/svg" viewBox="0 0 22.03 24.06"><defs><style>.cls-1{fill:#a6262c;}</style></defs><title>maple</title><g id="Layer_2" data-name="Layer 2"><g id="Layer_1-2" data-name="Layer 1"><path class="cls-1" d="M1.14,11.81,0,12.2l5.29,4.64c.4,1.19-.14,1.55-.48,2.17l5.74-.73-.15,5.78,1.19,0-.26-5.73,5.75.68a2.66,2.66,0,0,1-.34-2.35L22,12.23l-.93-.34c-.76-.58.33-2.81.49-4.21,0,0-3.09,1.06-3.29.5l-.79-1.51-2.8,3.09a.37.37,0,0,1-.51-.31L15.49,3,13.44,4.16A.36.36,0,0,1,13,4L11,0,9,4.12a.31.31,0,0,1-.44.06L6.58,3.09,7.75,9.48a.37.37,0,0,1-.58.19l-2.68-3c-.35.56-.59,1.48-1.06,1.69s-2-.39-3.06-.62C.73,9,1.84,11.11,1.14,11.81Z"/></g></g></svg>