<svg xmlns="http://www.w3.org/2000/svg" viewBox="0 0 363.24 57.4"><defs><style>.cls-1{fill:#fff;}</style></defs><title>finalLogoWhite</title><g id="Layer_2" data-name="Layer 2"><g id="Layer_1-2" data-name="Layer 1"><path class="cls-1" d="M36.9,46.74l.24-.08a14.17,14.17,0,0,1-.57-3.94V0h6.89V57.4H36.57l-30-46.08-.25.08a14.06,14.06,0,0,1,.58,3.93V57.4H0V0H6.89Z"/><path class="cls-1" d="M84.23,51.66V57.4H47.49V0H84.23V5.74H54.38V25.42H79.64v5.74H54.38v20.5Z"/><path class="cls-1" d="M87.72,0H131V5.74h-18.2V57.4h-6.89V5.74H87.72Z"/><path class="cls-1" d="M166.81,27.39v.41a3.89,3.89,0,0,1,2.3,1.06l3.93,3.2a3.32,3.32,0,0,1,1,1.19,6.76,6.76,0,0,1,.2,2V50a5.11,5.11,0,0,1-2,4.1c-.44.33-1.09.87-2,1.64a6.17,6.17,0,0,1-3.93,1.64H135V0h30.34a6.17,6.17,0,0,1,3.93,1.64l2,1.64a5.13,5.13,0,0,1,2,4.1v14a3.43,3.43,0,0,1-1.31,2.79l-2.79,2.13A3.92,3.92,0,0,1,166.81,27.39ZM141.88,5.74V25.42h17.8a9.61,9.61,0,0,0,1.93-.12,4.41,4.41,0,0,0,1.27-.78L165,22.79a4,4,0,0,0,1.14-1.22,6.06,6.06,0,0,0,.17-1.81V9.1a6.55,6.55,0,0,0-.12-1.6,2.61,2.61,0,0,0-.86-.94,4.28,4.28,0,0,0-1.15-.7,8.86,8.86,0,0,0-1.89-.12Zm24,28-1.8-1.48a5.25,5.25,0,0,0-1.4-.94,7.08,7.08,0,0,0-1.64-.12H141.88v20.5h21.41a7.9,7.9,0,0,0,1.88-.13,4,4,0,0,0,1.15-.69,2.45,2.45,0,0,0,.86-1,6.4,6.4,0,0,0,.12-1.59V36.65a5.67,5.67,0,0,0-.16-1.72A4.19,4.19,0,0,0,165.91,33.7Z"/><path class="cls-1" d="M185.77,0h30a6.19,6.19,0,0,1,3.94,1.64l2,1.64a5.12,5.12,0,0,1,2,4.1V50a5.13,5.13,0,0,1-2,4.1l-2,1.64a6.19,6.19,0,0,1-3.94,1.64h-30a6.17,6.17,0,0,1-3.93-1.64l-2-1.64a5.14,5.14,0,0,1-2-4.1V7.38a5.13,5.13,0,0,1,2-4.1l2-1.64A6.17,6.17,0,0,1,185.77,0Zm31,48.3V9.1a5.92,5.92,0,0,0-.13-1.6,2.43,2.43,0,0,0-.86-.94,4.11,4.11,0,0,0-1.14-.7,8.93,8.93,0,0,0-1.89-.12H188.81a8.8,8.8,0,0,0-1.89.12,4.13,4.13,0,0,0-1.15.7,2.51,2.51,0,0,0-.86.94,6.55,6.55,0,0,0-.12,1.6V48.3a6.4,6.4,0,0,0,.12,1.59,2.45,2.45,0,0,0,.86,1,4,4,0,0,0,1.15.69,7.94,7.94,0,0,0,1.89.13h23.94a8.06,8.06,0,0,0,1.89-.13,4,4,0,0,0,1.14-.69,2.37,2.37,0,0,0,.86-1A5.78,5.78,0,0,0,216.77,48.3Z"/><path class="cls-1" d="M236,0h30A6.17,6.17,0,0,1,270,1.64l2,1.64a5.13,5.13,0,0,1,2,4.1V50a5.14,5.14,0,0,1-2,4.1l-2,1.64A6.17,6.17,0,0,1,266,57.4H236a6.17,6.17,0,0,1-3.94-1.64l-2-1.64a5.14,5.14,0,0,1-2-4.1V7.38a5.13,5.13,0,0,1,2-4.1l2-1.64A6.17,6.17,0,0,1,236,0Zm31,48.3V9.1a6.55,6.55,0,0,0-.12-1.6,2.57,2.57,0,0,0-.87-.94,4.11,4.11,0,0,0-1.14-.7A8.86,8.86,0,0,0,263,5.74H239.06a8.93,8.93,0,0,0-1.89.12,4.11,4.11,0,0,0-1.14.7,2.57,2.57,0,0,0-.87.94A6.55,6.55,0,0,0,235,9.1V48.3a6.4,6.4,0,0,0,.12,1.59,2.5,2.5,0,0,0,.87,1,4,4,0,0,0,1.14.69,8.06,8.06,0,0,0,1.89.13H263a8,8,0,0,0,1.89-.13,4,4,0,0,0,1.14-.69,2.5,2.5,0,0,0,.87-1A6.4,6.4,0,0,0,267,48.3Z"/><path class="cls-1" d="M306.29,31.16h-19.6a6.21,6.21,0,0,1-3.94-1.64l-2.21-1.89a4.11,4.11,0,0,1-1.72-3.28v-17a5.12,5.12,0,0,1,2-4.1l2-1.64A6.21,6.21,0,0,1,286.69,0H308.5a6.17,6.17,0,0,1,3.93,1.64l2,1.64a5.13,5.13,0,0,1,2,4.1v3.28h-6.89V9.1a6.55,6.55,0,0,0-.12-1.6,2.51,2.51,0,0,0-.86-.94,4.13,4.13,0,0,0-1.15-.7,8.74,8.74,0,0,0-1.88-.12H289.72a8.74,8.74,0,0,0-1.88.12,4,4,0,0,0-1.15.7,2.51,2.51,0,0,0-.86.94,6.38,6.38,0,0,0-.13,1.6v13a6.38,6.38,0,0,0,.13,1.6,2.51,2.51,0,0,0,.86.94,4.24,4.24,0,0,0,1.15.7,8.74,8.74,0,0,0,1.88.12h19.6a6.17,6.17,0,0,1,3.93,1.64l2,1.64a5.13,5.13,0,0,1,2,4.1V50a5.14,5.14,0,0,1-2,4.1l-2,1.64a6.17,6.17,0,0,1-3.93,1.64H285.87a6.19,6.19,0,0,1-3.94-1.64l-2-1.64a5.13,5.13,0,0,1-2-4.1V46.74h6.88V48.3a6.23,6.23,0,0,0,.13,1.59,2.45,2.45,0,0,0,.86,1,3.91,3.91,0,0,0,1.15.69,7.9,7.9,0,0,0,1.88.13h17.39a7.9,7.9,0,0,0,1.88-.13,4,4,0,0,0,1.15-.69,2.45,2.45,0,0,0,.86-1,6.4,6.4,0,0,0,.12-1.59V34.52a6.55,6.55,0,0,0-.12-1.6,2.51,2.51,0,0,0-.86-.94,4.13,4.13,0,0,0-1.15-.7A8.74,8.74,0,0,0,306.29,31.16Z"/><path class="cls-1" d="M320,0h43.29V5.74H345V57.4h-6.89V5.74H320Z"/></g></g></svg>