<svg xmlns="http://www.w3.org/2000/svg" viewBox="0 0 155 155"><defs><style>.cls-1{fill:#ffda7b;}.cls-2{fill:#fff;}.cls-3{fill:#338b89;}</style></defs><title>request2</title><g id="Layer_2" data-name="Layer 2"><g id="Layer_3" data-name="Layer 3"><circle class="cls-1" cx="77.5" cy="77.5" r="77.5" transform="translate(-23.76 35.56) rotate(-22.5)"/><path class="cls-2" d="M37.32,47.81h0c0-.3,0-.6,0-.91a31.4,31.4,0,0,1,61.46-9.09A18.31,18.31,0,0,1,123.66,61l.6,0a11.74,11.74,0,1,1,0,23.48H37.32a18.31,18.31,0,1,1,0-36.62Z"/><polygon class="cls-3" points="45.06 115.12 43.75 113.81 51.75 105.81 51.75 72.05 53.6 72.05 53.6 106.58 45.06 115.12"/><polygon class="cls-3" points="59.6 138.18 57.75 138.18 57.75 114 65.94 105.81 65.94 62.8 67.78 62.8 67.78 106.58 59.6 114.77 59.6 138.18"/><polygon class="cls-3" points="67.33 120.36 66.02 119.05 69.55 115.52 69.55 109.31 73.03 105.81 73.03 72.05 74.88 72.05 74.88 106.58 71.39 110.07 71.39 116.29 67.33 120.36"/><polygon class="cls-3" points="48.77 128.39 47.46 127.09 53.57 120.97 53.57 111.08 58.85 105.81 58.85 72.05 60.69 72.05 60.69 106.58 55.41 111.85 55.41 121.74 48.77 128.39"/><path class="cls-3" d="M42.84,119.15A3.13,3.13,0,1,1,46,116,3.12,3.12,0,0,1,42.84,119.15Zm0-4.41A1.29,1.29,0,1,0,44.13,116,1.28,1.28,0,0,0,42.84,114.74Z"/><path class="cls-3" d="M46.56,132.41a3.13,3.13,0,1,1,3.12-3.12A3.12,3.12,0,0,1,46.56,132.41Zm0-4.39a1.28,1.28,0,1,0,1.28,1.27A1.27,1.27,0,0,0,46.56,128Z"/><path class="cls-3" d="M58.67,143.5a3.12,3.12,0,1,1,3.12-3.12A3.12,3.12,0,0,1,58.67,143.5Zm0-4.4A1.28,1.28,0,1,0,60,140.38,1.29,1.29,0,0,0,58.67,139.1Z"/><path class="cls-3" d="M52.68,73a3.13,3.13,0,1,1,3.12-3.12A3.13,3.13,0,0,1,52.68,73Zm0-4.4A1.28,1.28,0,1,0,54,69.85,1.28,1.28,0,0,0,52.68,68.57Z"/><path class="cls-3" d="M59.77,73a3.13,3.13,0,1,1,3.12-3.12A3.12,3.12,0,0,1,59.77,73Zm0-4.4a1.28,1.28,0,1,0,1.28,1.28A1.28,1.28,0,0,0,59.77,68.57Z"/><path class="cls-3" d="M74,73a3.13,3.13,0,1,1,3.12-3.12A3.13,3.13,0,0,1,74,73Zm0-4.4a1.28,1.28,0,1,0,1.27,1.28A1.28,1.28,0,0,0,74,68.57Z"/><path class="cls-3" d="M66.86,63.73A3.13,3.13,0,1,1,70,60.6,3.13,3.13,0,0,1,66.86,63.73Zm0-4.41a1.28,1.28,0,1,0,1.28,1.28A1.28,1.28,0,0,0,66.86,59.32Z"/><path class="cls-3" d="M81.05,73a3.13,3.13,0,1,1,3.12-3.12A3.13,3.13,0,0,1,81.05,73Zm0-4.4a1.28,1.28,0,1,0,1.27,1.28A1.28,1.28,0,0,0,81.05,68.57Z"/><path class="cls-3" d="M88.14,63.73a3.13,3.13,0,1,1,3.12-3.13A3.13,3.13,0,0,1,88.14,63.73Zm0-4.41a1.28,1.28,0,1,0,1.28,1.28A1.29,1.29,0,0,0,88.14,59.32Z"/><path class="cls-3" d="M95.23,73a3.13,3.13,0,1,1,3.13-3.12A3.12,3.12,0,0,1,95.23,73Zm0-4.4a1.28,1.28,0,1,0,1.28,1.28A1.28,1.28,0,0,0,95.23,68.57Z"/><path class="cls-3" d="M102.32,73a3.13,3.13,0,1,1,3.14-3.12A3.12,3.12,0,0,1,102.32,73Zm0-4.4a1.28,1.28,0,1,0,1.28,1.28A1.27,1.27,0,0,0,102.32,68.57Z"/><path class="cls-3" d="M65.12,124.38a3.13,3.13,0,1,1,3.12-3.12A3.12,3.12,0,0,1,65.12,124.38Zm0-4.41a1.29,1.29,0,1,0,1.28,1.29A1.29,1.29,0,0,0,65.12,120Z"/><polygon class="cls-3" points="109.95 115.12 101.4 106.58 101.4 72.05 103.24 72.05 103.24 105.81 111.25 113.81 109.95 115.12"/><polygon class="cls-3" points="97.25 138.18 95.41 138.18 95.41 114.77 87.22 106.58 87.22 62.8 89.06 62.8 89.06 105.81 97.25 114 97.25 138.18"/><polygon class="cls-3" points="87.68 120.36 83.62 116.29 83.62 110.08 80.13 106.58 80.13 72.05 81.97 72.05 81.97 105.81 85.46 109.31 85.46 115.52 88.98 119.05 87.68 120.36"/><polygon class="cls-3" points="106.24 128.39 99.58 121.74 99.58 111.85 94.31 106.58 94.31 72.05 96.15 72.05 96.15 105.81 101.44 111.08 101.44 120.97 107.54 127.09 106.24 128.39"/><path class="cls-3" d="M112.15,119.15a3.13,3.13,0,1,1,3.13-3.12A3.12,3.12,0,0,1,112.15,119.15Zm0-4.41a1.28,1.28,0,1,0,1.28,1.29A1.28,1.28,0,0,0,112.15,114.74Z"/><path class="cls-3" d="M108.44,132.41a3.13,3.13,0,1,1,3.12-3.12A3.12,3.12,0,0,1,108.44,132.41Zm0-4.39a1.28,1.28,0,1,0,1.28,1.27A1.27,1.27,0,0,0,108.44,128Z"/><path class="cls-3" d="M96.33,143.5a3.12,3.12,0,1,1,3.12-3.12A3.12,3.12,0,0,1,96.33,143.5Zm0-4.4a1.28,1.28,0,1,0,1.28,1.28A1.28,1.28,0,0,0,96.33,139.1Z"/><path class="cls-3" d="M89.88,124.38A3.13,3.13,0,1,1,93,121.24,3.13,3.13,0,0,1,89.88,124.38Zm0-4.41a1.27,1.27,0,0,0-1.28,1.27A1.29,1.29,0,1,0,89.88,120Z"/></g></g></svg>