<svg xmlns="http://www.w3.org/2000/svg" viewBox="0 0 155 155"><defs><style>.cls-1{fill:#ffdb7a;}.cls-2{fill:#fff;}.cls-3{fill:#353f49;}.cls-4{fill:#d9d8d7;}.cls-5{fill:#338b89;}.cls-6{fill:#24504f;}.cls-7{fill:#f2f2f2;}.cls-8{fill:#cccbca;}.cls-9{fill:#474f59;}.cls-10{fill:#232e38;}</style></defs><title>request</title><g id="Layer_2" data-name="Layer 2"><g id="Layer_3" data-name="Layer 3"><circle class="cls-1" cx="77.5" cy="77.5" r="77.5"/><rect class="cls-2" x="18.16" y="31" width="118.67" height="90.63"/><rect class="cls-3" x="18.16" y="21.63" width="118.67" height="9.37"/><rect class="cls-4" x="24.41" y="104.23" width="31.23" height="2.23"/><rect class="cls-4" x="24.41" y="108.69" width="31.23" height="2.23"/><rect class="cls-4" x="24.41" y="113.15" width="31.23" height="2.23"/><rect class="cls-3" x="61.89" y="37.24" width="31.23" height="2.23"/><rect class="cls-4" x="32.91" y="41.7" width="89.19" height="2.23"/><rect class="cls-4" x="32.91" y="46.17" width="89.19" height="2.23"/><rect class="cls-4" x="61.89" y="104.23" width="31.23" height="2.23"/><rect class="cls-4" x="61.89" y="108.69" width="31.23" height="2.23"/><rect class="cls-4" x="61.89" y="113.15" width="31.23" height="2.23"/><rect class="cls-4" x="99.36" y="104.23" width="31.23" height="2.23"/><rect class="cls-4" x="99.36" y="108.69" width="31.23" height="2.23"/><rect class="cls-4" x="99.36" y="113.15" width="31.23" height="2.23"/><rect class="cls-5" x="18.16" y="54.64" width="118.67" height="43.34"/><rect class="cls-6" x="55.63" y="54.64" width="43.73" height="43.34"/><polygon class="cls-2" points="78.68 60.7 76.31 60.7 75.62 64.15 79.37 64.15 78.68 60.7"/><polygon class="cls-2" points="70.72 62.2 68.66 63.39 69.79 66.72 73.04 64.84 70.72 62.2"/><polygon class="cls-2" points="64.57 67.48 63.38 69.53 66.02 71.85 67.9 68.61 64.57 67.48"/><polygon class="cls-2" points="61.88 75.13 61.88 77.5 65.33 78.19 65.33 74.44 61.88 75.13"/><polygon class="cls-2" points="63.38 83.09 64.57 85.14 67.9 84.02 66.02 80.77 63.38 83.09"/><polygon class="cls-2" points="68.66 89.24 70.72 90.42 73.04 87.79 69.79 85.91 68.66 89.24"/><polygon class="cls-2" points="76.32 91.92 78.68 91.92 79.37 88.48 75.62 88.48 76.32 91.92"/><polygon class="cls-2" points="84.28 90.42 86.33 89.24 85.2 85.91 81.96 87.79 84.28 90.42"/><polygon class="cls-2" points="90.43 85.14 91.61 83.09 88.97 80.77 87.09 84.02 90.43 85.14"/><polygon class="cls-2" points="93.11 77.5 93.11 75.13 89.67 74.44 89.67 78.19 93.11 77.5"/><polygon class="cls-2" points="91.61 69.53 90.43 67.48 87.09 68.61 88.97 71.85 91.61 69.53"/><polygon class="cls-2" points="86.33 63.39 84.28 62.2 81.96 64.84 85.2 66.72 86.33 63.39"/><path class="cls-2" d="M77.5,64A12.31,12.31,0,1,0,89.8,76.32,12.31,12.31,0,0,0,77.5,64Zm0,15.71a3.41,3.41,0,1,1,3.4-3.4A3.41,3.41,0,0,1,77.5,79.72Z"/><path class="cls-3" d="M77.5,70.41a5.91,5.91,0,1,0,5.91,5.91A5.9,5.9,0,0,0,77.5,70.41Zm0,8.86a3,3,0,1,1,2.94-3A3,3,0,0,1,77.5,79.27Z"/><polygon class="cls-2" points="24.41 76.32 32.91 84.81 32.91 67.81 24.41 76.32"/><polygon class="cls-2" points="130.59 76.32 122.1 84.81 122.1 67.81 130.59 76.32"/><polygon class="cls-7" points="15.17 130.87 0 126.25 15.17 121.63 15.17 130.87"/><polygon class="cls-8" points="0 126.25 15.17 130.87 15.17 127.96 0 126.25"/><rect class="cls-9" x="15.17" y="121.63" width="124.65" height="9.24"/><rect class="cls-10" x="15.17" y="127.96" width="124.65" height="2.9"/><polygon class="cls-9" points="5.94 128.05 0 126.25 5.94 124.42 5.94 128.05"/><polygon class="cls-10" points="5.94 128.05 0 126.25 5.94 126.92 5.94 128.05"/><rect class="cls-2" x="139.83" y="121.63" width="3.05" height="9.24"/><rect class="cls-8" x="139.83" y="127.96" width="3.05" height="2.9"/><rect class="cls-9" x="142.88" y="121.63" width="12.12" height="9.24"/><rect class="cls-10" x="142.88" y="127.96" width="12.12" height="2.9"/></g></g></svg>