<svg xmlns="http://www.w3.org/2000/svg" xmlns:xlink="http://www.w3.org/1999/xlink" viewBox="0 0 155 170.99"><defs><style>.cls-1{fill:none;}.cls-2{fill:#338b89;}.cls-3{fill:#fff;}.cls-4,.cls-7{fill:#353f49;}.cls-4{fill-rule:evenodd;}.cls-5{clip-path:url(#clip-path);}.cls-6{fill:#474f59;}.cls-8{fill:#ffda7b;}</style><clipPath id="clip-path"><circle class="cls-1" cx="77.5" cy="77.5" r="77.5"/></clipPath></defs><title>request1</title><g id="Layer_2" data-name="Layer 2"><g id="Layer_3" data-name="Layer 3"><circle class="cls-2" cx="77.5" cy="77.5" r="77.5"/><path class="cls-3" d="M102,77.5A24.48,24.48,0,1,1,77.5,53,24.49,24.49,0,0,1,102,77.5Z"/><path class="cls-4" d="M71.77,98a1.49,1.49,0,0,0,.44-.09c-.18-.15-.58-.16-.8-.3,0,0-.74-.45-.58-.08,0,.09.18,0,.25.06-.09.13-.13.09,0,.15s-.84-.45,0-.48c-.58-.53,0-.36-.15-.69s.5-.45.16-.64c-.15-.09-.33-.08-.49-.19s0-.46.2-.43c0,0,.13-.53.17-.61s-.49-.56-.39-.68.69.35.83,0c.06-.14-.19-.48-.17-.62.25,0,1.92,0,1.64-.73-.1-.27-.81-.66-.73-.89.24.05.65.4.91.25s.39.13.61-.12c0-.05.41-.44.31-.52s-.18.07-.19.19c-.13-.17.1-.3.21-.43l.09.12C74.2,91,75,90,75,90c.39-.46.07-1.08.46-1.45a3.86,3.86,0,0,1,1.19-.73,3.37,3.37,0,0,1,.73-.28c.82.25.72-.73,1.24-1.17s.14-2.71.57-2.88a9.53,9.53,0,0,0,1.29-1.35,1.33,1.33,0,0,0,.26-1.34c-.21-.73-.41-.31-.94-.63s-.75-.76-1.28-.83a5.79,5.79,0,0,1-.93,0c-.13,0-.48-.26-.62-.08a1.26,1.26,0,0,0-.26.13s0-.4-.1-.5a3.39,3.39,0,0,0-.91-.36c-.46-.11-.57.43-.68-.21-.38-.11-.76-.55-.69-.66s-.58-1.35-.67-1.23c0-.44-1.37-1-1.71-.77s-.89-.21-1.08-.41-.21-.48-.57-.63c-.15-.07-.42,0-.36-.3s-.67-.34-.74-.61c.1,0,.19,0,.29-.06-.29.1-.63-.11-.91.12s-.65-.16-1.1-.07-.19-.1-.55-.32c.15.09-.66-.37-.47-.35-.17,0,0,.28-.16.34s-.56.18-.36.54c.32.64-.68.34-.21-.1.09-.08.11-.93.2-.89a4,4,0,0,0-1.14.67c-.29-.47-.79,1.18-1,1.19-.08-.41-.46-.57-.8-.69s-.57.57-.94.2c-.66-.67-.37-1.75,0-2.52.14-.35-1.22-.46-1.38-.32-.34.28,0-.55,0-.53,0-.33.12-.56.27-.55a6.46,6.46,0,0,0,.54-1.22c-.21-.48-1.07.37-1.15.58s-.25.32-.33.51-.24,0-.38,0c-.37.21-.9.1-.82-.43s-.16-1.94.57-2.38c.22-.14.26-.78.51-1,0,0,.77-.45.7-.54.11.11.69-.12.76,0a.52.52,0,0,0,.52.18s.06-.28.06-.29-.24,0-.23-.1.72,0,.74,0c.33,0,.57.3.81.13s.15,1.43.3,1.58,0,.29.18.28S64,65.45,64.6,65a8.61,8.61,0,0,1,1.3-.86,1.84,1.84,0,0,0,.59-.39c0-.08-.08-.16-.16-.08,0-.13.2-.05.24-.19s-.11-.19-.09-.24.13-.28.09-.24a0,0,0,0,0,0,0c.22,0,0-.21-.07-.25.3.16.17-.32.46-.34-.2.08-.16.31-.14.45.06.31.33-.42.3-.39a5.87,5.87,0,0,0,1-.55c-.07,0-.14,0-.23,0a7,7,0,0,0,.93-.22.64.64,0,0,1,.51-.68A11.69,11.69,0,0,0,71,60.43c-.08.18,0,0,.19.11-.17-.44-1.1.81-.66.56s1.63-.41,1.8-.77l-.08-.26c-.31,0-.34.38-.72.38-.69,0-.28-.44-.42-.63a.29.29,0,0,1-.31-.1c.07,0,.92-.21.47-.31-.73-.16-1.22.66-1.82.63a5.41,5.41,0,0,1,1.61-.93c.58-.08,1.39.21,1.9-.15s.77-.09,1-.6c.08-.14-.34-.32-.44-.34s.14,0,.17-.08c-.69-.32-.83-.62-.91-1.41-.35.26-1.52.8-.9-.09-.22-.09-.93-.69-1.21-.27a1.64,1.64,0,0,1-.53.58c-.47.21,0,.17-.21.48-.26.52-.9.45-1.2.9-.19.28-.25.48-.54.61s-.36-.2-.23-.43c.09.1.17.11.25,0s-.14-.06-.19-.1a2.3,2.3,0,0,1,.33-.44s-.7-.13-.67-.3c0-.36-.42-.16-.49-.27.35-.44.35-.65,1-1,.23-.12,1.56-.8,1.8-.63,0,.15-.19.12-.28.2a1.73,1.73,0,0,0,.93,0s-.26-.41-.15-.49H71c.21,0,.45-.08.57-.29a1.23,1.23,0,0,1,1-.34c.92.52-1.23,1.06-1.25,1,0,.16.62-.1.76.3,0,.1.7.31.77.22s-.2-.29-.2-.35c.69.34.65.16.54-.3s.4,0,.43,0,.58-.21.66-.3c-.17-.14-.47-.13-.61-.29s.36-.17.18-.32-.54-.13-.42-.46a.43.43,0,0,0-.35,0c0,.07.11,0,.13,0a.59.59,0,0,1-.37.08c0-.06.16-.06.16-.17-.36-.05-.55.17-.86.27.09-.13.24-.17.35-.27a1.82,1.82,0,0,0-.94.39.41.41,0,0,1,.1.13,3.33,3.33,0,0,1-.91.44c0-.2.27-.15.35-.31a.73.73,0,0,0-.33.08,2.62,2.62,0,0,0,.61-.5c-.56-.07-.79.66-1.32.55.11-.13.33-.06.41-.26-.2,0-.93.52-1.06.26a9,9,0,0,0,1.5-.75c-.09,0-.2.09-.28,0s.17-.08.25-.16c-.44,0-1.77.53-1.66.84a.54.54,0,0,1-.57.09c.08-.13.37-.13.14-.32-.43.16-.84.34-1.26.52a22.23,22.23,0,0,0-2.77,1.47,20.49,20.49,0,0,0-3.88,3.18c-.65.65-3.09,3.51-3.09,4.11a3.21,3.21,0,0,1-.41,1.22c-.13.33-.15.78-.31,1.08-.36.63-.2,1.36-.36,2.09.21-.15.62-3.48,1-3.36a6.87,6.87,0,0,1-.3,1.55c-.3.7.1,1.56-.1,2.29a4.7,4.7,0,0,0-.12.51c-.34.26.08.65.08.93s.86.92,1,1c.36.22.43-.17.76-.1s.38.6.54.83,1,.28,1.15.43,0,.72.38.81c0,0,0-.26,0-.29s.35.34.27.42a.31.31,0,0,1-.31-.13c0,.06-.06.86.18.7a.77.77,0,0,1,0-.15c.3.14.28.59.5.65s.52.46.75.56.14-.7.53-.74.48.77.59,1-.22,1,0,1.19-.53.75-.57,1-.4.34-.39.41a1.38,1.38,0,0,1-.15.62c-.19.5-.09.55.23.78,0,0-.6,1.22-.25,1.54a5.51,5.51,0,0,1,1.47,2.29,3.54,3.54,0,0,0,1.85,2.06,2.22,2.22,0,0,1,1.29,2,4.86,4.86,0,0,0,.18,1.7c.16.36-.14.93.08,1.25s0,.31,0,.49a2.32,2.32,0,0,1,.28.76c0,.38,0,.84,0,1.22,0,.13-.12.35,0,.43a6.58,6.58,0,0,1,.6,1.75c0,.09.4,0,0-.39.43-.24.34.77.37.78-.38-.13-.13,0-.11.46,0,.3-.07.15.17.21s0,.33.14.54a11.1,11.1,0,0,0,1,1.11c.49.51,1.32.43,1.9.55Zm1.6-39.89a1.05,1.05,0,0,1-.44.18C73,58.09,73.2,58.12,73.37,58.07ZM72.09,58a.23.23,0,0,1,.23.08s-.52.07-.6.2c.07-.23.26-.19.37-.28C72.14,58,72,58.05,72.09,58Zm-1.28.9c.11,0-.16,0,0,0Zm-.7-1.34c0-.05.08,0,.11,0s-.09.05-.11,0S70.1,57.55,70.11,57.52Zm-.7,2.09Zm.21-.81c-.69.64-.16,0-.36.21,0,0,0,0,0,0s.35-.22.37-.23S69.5,58.83,69.62,58.8Zm-.25-.75c-.13.14-.13.14-.3.11C69.16,58.1,69.28,58.12,69.37,58.05Zm3-2.4h-.16c.22-.18.18,0,.16,0Zm.49-.33c-.07.08-.19,0-.28.07C72.72,55.21,72.74,55.2,72.9,55.32Zm-2.76.23a.27.27,0,0,1,.2-.08c.07.1-.41.15-.2.08C70.17,55.49,70.12,55.56,70.14,55.55ZM70,55.4c.08,0,.07.08,0,.11s-.06-.07,0-.11Zm-3.57,6.1s-1.07.42-1,.16c0,.08.37-.31.29-.27a6.89,6.89,0,0,1,1-.08.87.87,0,0,1-.31.19C66.21,61.58,66.55,61.45,66.45,61.5Zm.86-.54c.88.09-.53.36-.68.2a.85.85,0,0,1,.68-.2Zm-.15-5.5a2.3,2.3,0,0,1,.8-.34,2.15,2.15,0,0,1-.81.34Zm0,4.78s-.08,0-.11,0,.1,0,.11,0S67.2,60.2,67.21,60.24Zm-.26.53Zm-.26-.45c.32.15.14.65-.14.26a1.07,1.07,0,0,1-.63.67A.31.31,0,0,0,66,61c-.07-.06-.2.1-.28.1s.58-.94.12-.63a14.11,14.11,0,0,1-1.34,1.24c-.1-.11.5-1,.54-1A1.86,1.86,0,0,1,66.69,60.32Zm-.62-4.12c.05,0,.4-.24.45-.19s-.57.32-.61.32a.32.32,0,0,1,.16-.13Zm.08,2.89s-.15.29-.23.18.2-.3.23-.18S66.14,59.06,66.15,59.09Zm-.78-2.23s.62-.36.63-.21A5.14,5.14,0,0,1,65.37,56.86Zm-.16.59c0,.07-.07.1-.15.1S65.14,57.47,65.21,57.45Zm-.4,1.39c.08-.06.27-.36.18-.48.05.06-.35,0-.17-.11s.53-.27.6-.2-.56.86-.7.92a.18.18,0,0,1,.09-.13Zm.39.91c.5-.16.68-.44,1-.06.11.14.09.51-.18.42.08,0-.8-.06-.64-.16a.87.87,0,0,1-.72.1,3.37,3.37,0,0,1,.56-.3C65.33,59.72,65,59.82,65.2,59.75Zm-.69-.92c0,.12,0,.18-.12.2C64.44,59,64.48,58.89,64.51,58.83Zm-7,10.68Zm2.83,2Zm6.92,2.29c-.12,0,.14,0,0,0Zm1.13,20.28c-.19,0,.11-.15,0,0ZM68.88,84c-.07-.08,0,0,0,0ZM69,90.3Zm.67,6.81c-.09,0-.09-.08,0-.1s.1.08,0,.1S69.65,97.12,69.63,97.11Zm.88.38c-.1,0-.09,0,0-.1s.07.07,0,.1ZM68.64,95h0S68.64,95,68.64,95Zm2.19-40.74Zm-8.32,3.94Zm39.06,14.94h0A38.63,38.63,0,0,0,100,67.9a24.47,24.47,0,0,0-7.86-10,23.44,23.44,0,0,0-2.53-1.66q-.63-.36-1.29-.69c-.19-.09-.85-.26-1-.43,0,.08.38.27.44.33a4.43,4.43,0,0,1-1-.41s.07,0,.07,0c-.39-.25-1.84-.78-2.12-.39a4.05,4.05,0,0,1,1,1.2c.06.42.72.86,1.13,1,.59.2.15-.07.4-.2s.3.27.45.19h0l-.14-.24s1.06,1.13,1.2.88a2.72,2.72,0,0,0-.64-.94c-.28-.26-.71-.28-1-.55-.15-.12-.71-.54-.77-.72.74,0,1.59,1.58,2.33,1a2.37,2.37,0,0,1-.3-.23c.14,0,.75.24.55.5-.59-.1.49.5.51.56s-.18-.09-.28-.1c0,.2.63.42.67.77-.35.05-.2-.22-.43.07-.07.09-.39.06-.56.07-.4,0-.85-.65-1.15-.86a1.48,1.48,0,0,0,.76.83c.21.12-.29.17-.28.35,0,0,.14.06.13.09s-.11-.08-.13-.09a3.13,3.13,0,0,1-.08.66c.33.39-.44.28-.46.29s.18.13.21.26a1.9,1.9,0,0,0-.63.06c.32.09,2.08.9,1.69,1.51-.12.2-1.31,0-1.53,0-.46,0,0,.44,0,.49.07.35.34.5.32.92s.27.29.36.53,0,.23.26.27c.39,0,.4,0,.73.24s.32-.17.61-.18c.69,0,.1-.17.43-.27s-.12-.76-.09-.88,0-.36.2-.42-.09-.47-.12-.56c-.06-.29,1,.24.85-.49a10.93,10.93,0,0,1,1.77,1,3.33,3.33,0,0,1,.89.69c.29.37-.41.22-.45.33s.61.41.71.4a4.37,4.37,0,0,0-.09-.5c0-.26-.4-.52-.38-.73a.7.7,0,0,1,.32.13c-.35-.43-.92-.47-1.32-.79-.23-.19-.54-.36-.77-.56,0,0-.43-.54-.13-.43A14.41,14.41,0,0,1,93,61a2.1,2.1,0,0,1,.75.64,5,5,0,0,0,.82.83,4.68,4.68,0,0,0,.67.49,4.9,4.9,0,0,0-.26-.6c-.13-.21-.68-.33-.68-.65.13,0,.14-.12.41-.11-.14,0,.17-.21.15-.18a3.81,3.81,0,0,1-1.38-1.71c.14,0,.22.2.37.1a.55.55,0,0,1,0-.31s.52.46.43.54a.48.48,0,0,1-.35-.16c.07.24.31.24.41.41,0-.07,0-.12,0-.2.42.18,1.28.84,1.39,1.32-.18,0-.54-.38-.66-.29a.33.33,0,0,0,0,.29.24.24,0,0,0-.15,0,.29.29,0,0,1,.11.2l-.21.07c.06.24,1.3,1.42,1.39,1.3s0-.16,0-.18.26.27.36.2-.08-.16,0-.21.93,1.36,1,1.54c.35.67.12.26-.16.35a.51.51,0,0,0-.07.22,3.94,3.94,0,0,1-1.26-.59c-.57-.41.18,1.1-.15.91s-.3-.27-.54-.29-.44-.4-.75-.51-1.27-.18-1.14-.64-.4-.72-.57-.87a5.33,5.33,0,0,0-1.39.11c-.31.1-.8.21-1,.5-.3.54-1-.17-1.26-.06s0,.5-.08.64-.39.23-.46.48c-.12.45.23.83.07,1.25s-.77.48-.78.75a.47.47,0,0,1-.17.4c-.3.17,0,.55-.18.75-1,1,.32,2,.1,3.11-.13.64-.21.77.06,1.31.07.14,0,1.12.52.72.06.57.79.69.92,1.23s.79.92,1.28,1.31a5.29,5.29,0,0,0,.59.47c.41.2.68-.11,1.06-.22a1.44,1.44,0,0,1,1,.09c.19.09,1.59-.91,2-.72s.3.48.42.73.57-.12.83,0c.46.2.6,1.88.21,2.2s.38,1.12.46,1.31a4,4,0,0,1,.43,2c-.07.46.06,1.21-.21,1.62a8.93,8.93,0,0,0-.63,1.32c-.56,1.2,0,2.56-.5,3.8a9.6,9.6,0,0,0-.39,2c-.11.43-.63,1-.43,1.49.31-.27.78-.24,1.13-.42.73-.36,1.07-1.19,1.6-1.74a3.77,3.77,0,0,0,.62-1c.16-.34.48-.56.63-.9.37-.86.7-1.71,1.07-2.56a20.87,20.87,0,0,0,1.18-5.59A18.78,18.78,0,0,0,101.57,73.12Zm-1.84-4.87c-.1-.25-1.4-2.15-1.25-2.26s3,4.82,2.66,5.59c-.43-1.12-.93-2.22-1.41-3.33C99.73,68.24,99.83,68.48,99.73,68.25Zm1.2,8.73c-.06-.13,0-.25,0-.41C101,76.73,101,76.85,100.93,77Zm-.15.78a.29.29,0,0,1,0-.22A.22.22,0,0,1,100.78,77.76Zm-.47,6.33-.14.06c-.09,0,.16-.13.17-.14s0,.07,0,.08S100.33,84.08,100.31,84.09Zm.08-2.57c0-.23,0-.25.24-.39C100.58,81.29,100.42,81.37,100.39,81.52Zm.26-1.2a6.76,6.76,0,0,1,.08-1.35c0,.73,0,1.46,0,2.19a2,2,0,0,1-.11-.84Zm.38,1.37a4,4,0,0,1-.32,1.77c0-.66.27-1.27.28-1.93a.22.22,0,0,1,0,.16Zm.31-4c-.11.47,0,.62-.28.88,0-.35-.13-1,.23-1.22a.49.49,0,0,1,0,.34C101.29,77.88,101.38,77.56,101.34,77.69ZM86,100.42c0,.07-3.08,1-3.4,1a23.62,23.62,0,0,1-3.93.51,22.75,22.75,0,0,1-7.57-.84,4.39,4.39,0,0,0,1,.14c-.3-.19-.67-.12-.94-.35,1,.16,2,.08,2.89.2-.09-.13-.94-.33-.93-.42s.77,0,.79-.05c.31-.23-.48-.21-.41-.38s.23,0,.31-.07,0-.24,0-.32a4.86,4.86,0,0,1,1.38-.23c-.14.09-.31,0-.25.23-.12,0-.5,0-.52.16a4.43,4.43,0,0,1,.43.54c.14.22.63.36.67.62.08.45,2.4.4,2.74.36.87-.1,1.68-.41,2.53-.56.51-.08,1-.22,1.53-.28a6.64,6.64,0,0,1,1.22-.23c.12.41,2-.13,2.4,0C86,100.43,85.9,100.41,86,100.42Zm14.09-13.51c.1-.25.18-.51.3-.75A4.35,4.35,0,0,1,100.07,86.91Zm.41-1,0-.09A.24.24,0,0,1,100.48,85.9Zm-26.77-32c-.13,0-.27,0-.41,0,.08-.06.48-.08.3-.19A4.56,4.56,0,0,1,76,53.3c.73.09,1.46-.14,2.17,0a7.71,7.71,0,0,0,.84.07c.25,0,0,.29.25.33s.51.41.66.32c0,.27-.13.08,0,.33,0,.06.32.23.3.25a5.23,5.23,0,0,1-.8,0c-.06,0,0,.13.07.11a5.29,5.29,0,0,0,.69,0c-.41.37-1,.33-1.48.63a4.85,4.85,0,0,1-1,.27,2.16,2.16,0,0,1-.44,1c-.15.22-1.18-.29-1.29-.42s-.74-1-.18-1.21,0,0-.2-.2c.17-.23.34-.15.6-.11a.35.35,0,0,0-.49-.13c-.06-.2.28-.37,0-.58-.13-.09-.85,0-.87-.11,0-.31.87-.14,1-.4-.68-.15-1.41.52-2.08.42Zm12.88,4.67c.11,0-.13-.37-.2-.44a.29.29,0,0,0,.22,0,2.11,2.11,0,0,0-.82-.54c-.27.17-.61-.59-.65-.69.47-.06.75.43,1.17.63s1.63.79,1.67,1.17c0,.2-1,.12-1.12.34-.11-.28.26-.28.24-.37s-.45-.08-.51-.07Zm-13,.36a7.29,7.29,0,0,0-.91.94c0,.08.9,0,1,.11,0,.1-.13.05-.15.14s.47-.23.53-.16a.22.22,0,0,1,0,.16c.39.39.35-.45.37-.49-.27,0,.06-.43-.4-.26a2.06,2.06,0,0,0-.47-.13s.37-.41.41-.45c-.25-.06-.28,0-.4.14Zm.86.9s-.06,0,0,0Zm-.2,0s.18-.09.08,0-.16.1-.08,0S74.2,59.79,74.21,59.77Zm-.61-1Zm-.78.79a.07.07,0,0,1,.06,0s-.12,0-.06,0Zm-8.5,10.21c-.23,0,.16-.19.13-.26-.17-.38-1.27-.46-1.38-.76a.17.17,0,0,0,.1-.1c-.38-.15-.58.31-.92.28.71-1.21,2.48.17,3.19.74-.37,0-.74,0-1.12.1Zm.93.64c-.18-.08.59-.07.69-.11-.15-.23,0-.36-.31-.45.27-.33,1.16.05,1.44.18,0,0-.08,0-.1,0s.6.51.21.34-.68.08-1,.25c-.24-.35-.63-.11-1-.26ZM86,58c.42.44-.22.76-.52.49-.14-.15-.06-.5-.39-.6l.27-.09c-.23-.53.54.09.64.2Zm-5.42-2.62c0-.08.6,0,.71-.06s1.4.1,1,.3-.83.32-1.15,0c-.08-.07-.51-.24-.52-.26S80.57,55.5,80.55,55.41Zm11.34,6.15c.14,0,.49.56.43.65-.16.27-.44-.4-.61-.5ZM72.52,54c.42-.32.52-.14,1-.08a1.33,1.33,0,0,1-1,.08C72.63,53.94,73,54.13,72.52,54Zm9.34-.36c-.31-.09-.64-.11-.94-.23a3,3,0,0,1,1,.18c.09,0-.13,0-.11.05C81.55,53.58,81.89,53.67,81.86,53.67Zm-.94-.23h-.11a.09.09,0,0,1,.11,0S80.9,53.44,80.92,53.44Zm-16.5,17a.14.14,0,0,1,.12.11c0,.18-.59-.07-.65-.15A.5.5,0,0,1,64.42,70.43Zm3.94,0c-.29.71-1-.5,0,0C68.32,70.52,68.19,70.33,68.36,70.42Zm1.14,3.46h0a.05.05,0,0,1,0,0Zm.1,0s.08-.29.27-.3-.16.31-.27.3Zm2.32-20c-.2.12-.43,0-.63.11a.61.61,0,0,1,.63-.11C71.72,54,71.88,53.87,71.92,53.88ZM64.56,68.23c-.07-.3-.19-.3,0-.56.08.27.08.44,0,.56C64.53,68.11,64.65,68.11,64.56,68.23Zm-5.3,10.12c0,.1-.06.15-.16.11a.73.73,0,0,1,0-.46l.15.35C59.27,78.4,59.21,78.23,59.26,78.35ZM71.52,59.21a.92.92,0,0,1,.62.21A.67.67,0,0,1,71.52,59.21Zm20.27,2.25h0c-.06,0-.46-.27-.3-.39S91.78,61.43,91.79,61.46Zm4.11,2c-.08-.08-.24,0-.28-.19.14.08.29,0,.42.14,0,0-.09.09-.14,0S96,63.55,95.9,63.51ZM72.26,54s-.1,0-.14-.07.26-.08.4-.12-.17.32-.26.19Zm-.68.15a.89.89,0,0,1-.62.25A1.14,1.14,0,0,1,71.58,54.16Zm-.07,6.06a.66.66,0,0,0,.19,0c-.25.3-.53-.11-.47-.13s.27.14.28.14Zm.1-5.94a.79.79,0,0,1,.58-.14A1,1,0,0,1,71.61,54.28Zm19.16,7.87c-.19,0,.36-.2.16.06a.44.44,0,0,1-.16-.06Zm6.11,1.4a.22.22,0,0,1-.13-.27A.26.26,0,0,1,96.88,63.55ZM72,55.17c.07-.12.15-.15.39-.15A.48.48,0,0,1,72,55.17ZM70.27,56a.64.64,0,0,1-.39.12C70,56,70.1,56,70.27,56ZM85,57c0,.06,0,.09,0,.12s-.22-.23-.09-.26A.09.09,0,0,1,85,57C84.93,57.06,85,57,85,57ZM62.82,69a.12.12,0,0,1-.13.12c0-.07.09-.28.13-.12S62.81,69,62.82,69ZM71.06,94.4a.19.19,0,0,1,.11.15c0,.21-.38-.12-.11-.15Zm-.55-38.28a.4.4,0,0,1-.22.14A.21.21,0,0,1,70.51,56.12ZM59.43,78.31c0,.25-.07-.24,0,0ZM72.14,56.53h0S72.09,56.55,72.14,56.53Zm-1.09-2.34H71A.1.1,0,0,1,71.05,54.19Zm-.1,0s0,0,0,0Zm-.12,0Zm0,0s.07,0,.11,0S70.88,54.25,70.83,54.24Zm.78,0Zm0,0s0,0-.07,0S71.58,54.28,71.61,54.28Zm-9,25.08c-.05,0,0,0,0,0ZM88.78,56.2c.16,0,0,0,0,0ZM85,57.13h0s0,0,0,0v0ZM71.53,54.32h0Zm0,0h0s0,0,0,0S71.49,54.34,71.48,54.33Zm22.3,7.56ZM74.36,77.68c-.08-.07,0-.05,0,0S74.38,77.66,74.36,77.68ZM86,100.42h0s0,0,0,0Zm0,0ZM66.42,60.35s.24,0,.16.06-.14,0-.16-.06S66.42,60.4,66.42,60.35Zm-1.42-2c-.07,0-.06-.09,0-.13s.06.07,0,.13S65,58.34,65,58.36Z"/><g class="cls-5"><rect class="cls-6" x="72.62" y="117.15" width="9.75" height="10.48"/><path class="cls-7" d="M77.5,36.36A41.14,41.14,0,1,0,118.64,77.5,41.13,41.13,0,0,0,77.5,36.36Zm0,74.52A33.38,33.38,0,1,1,110.88,77.5,33.37,33.37,0,0,1,77.5,110.88Z"/><rect class="cls-6" x="69.82" y="135.73" width="15.35" height="35.26"/><rect class="cls-7" x="68.55" y="127.63" width="17.91" height="8.11"/></g><path class="cls-8" d="M99,130.68l-1-2.46a55.41,55.41,0,0,0,5.35-2.51l1.26,2.33A57.23,57.23,0,0,1,99,130.68Zm-43.2-.07a57.27,57.27,0,0,1-5.6-2.65l1.26-2.33a57.88,57.88,0,0,0,5.34,2.53Zm54.1-5.79-1.5-2.19a54.49,54.49,0,0,0,4.69-3.6l1.72,2A58.19,58.19,0,0,1,109.92,124.82Zm-65-.1a57.68,57.68,0,0,1-4.9-3.79l1.73-2a54.57,54.57,0,0,0,4.68,3.62Zm74.37-8L117.38,115a54.53,54.53,0,0,0,3.81-4.52l2.12,1.59A56.61,56.61,0,0,1,119.31,116.76Zm-83.74-.12a60.26,60.26,0,0,1-4-4.75l2.12-1.59a56.57,56.57,0,0,0,3.8,4.53Zm91.2-9.75-2.27-1.36a55.45,55.45,0,0,0,2.75-5.23l2.41,1.11A58.49,58.49,0,0,1,126.77,106.89Zm-98.63-.15a58.47,58.47,0,0,1-2.87-5.49l2.41-1.1c.82,1.78,1.74,3.54,2.74,5.24ZM131.93,95.65l-2.51-.84a54.66,54.66,0,0,0,1.56-5.7l2.59.56A54.58,54.58,0,0,1,131.93,95.65ZM23,95.47a57.44,57.44,0,0,1-1.62-6l2.6-.55a55.21,55.21,0,0,0,1.54,5.71ZM134.55,83.55l-2.64-.28a55.46,55.46,0,0,0,.3-5.77v-.13h2.66v.13A58.09,58.09,0,0,1,134.55,83.55ZM20.43,83.36c-.19-1.93-.29-3.9-.29-5.86v-.33l2.65,0v.3a54.63,54.63,0,0,0,.28,5.59ZM131.88,71.47a51.72,51.72,0,0,0-1-5.83l2.59-.58a57,57,0,0,1,1,6.12ZM23.14,71.29,20.5,71a57.28,57.28,0,0,1,1-6.11l2.59.58A54.55,54.55,0,0,0,23.14,71.29Zm106.2-11.35a53.08,53.08,0,0,0-2.2-5.48l2.4-1.12a56.08,56.08,0,0,1,2.31,5.75ZM25.72,59.78l-2.51-.86a56.21,56.21,0,0,1,2.33-5.75l2.4,1.13A53.21,53.21,0,0,0,25.72,59.78Zm98.64-10.54A55.3,55.3,0,0,0,121,44.35l2.1-1.61a57.18,57.18,0,0,1,3.49,5.13Zm-93.63-.15-2.26-1.38A58.45,58.45,0,0,1,32,42.6l2.1,1.62A55.91,55.91,0,0,0,30.73,49.09Zm86.47-9.24a53.07,53.07,0,0,0-4.29-4.06l1.72-2a58.3,58.3,0,0,1,4.5,4.26Zm-79.28-.12L36,37.9a58.41,58.41,0,0,1,4.51-4.25l1.71,2A54.89,54.89,0,0,0,37.92,39.73Zm70.29-7.52a56.58,56.58,0,0,0-5.06-3.05l1.25-2.34a56.06,56.06,0,0,1,5.3,3.2Zm-61.27-.1-1.49-2.2a58.37,58.37,0,0,1,5.32-3.18L52,29.07A54,54,0,0,0,46.94,32.11Zm50.85-5.44a55,55,0,0,0-5.6-1.89l.71-2.56a57.07,57.07,0,0,1,5.87,2ZM57.38,26.6l-1-2.46a57.13,57.13,0,0,1,5.88-2l.7,2.56A54.88,54.88,0,0,0,57.38,26.6Zm29-3.09a54.86,54.86,0,0,0-5.87-.64l.14-2.65a57.7,57.7,0,0,1,6.16.67Zm-17.66,0-.42-2.62a60.07,60.07,0,0,1,6.16-.65l.13,2.65A54.82,54.82,0,0,0,68.76,23.48Z"/></g></g></svg>