<svg xmlns="http://www.w3.org/2000/svg" xmlns:xlink="http://www.w3.org/1999/xlink" viewBox="0 0 1227.7 348.09"><defs><style>.cls-1,.cls-26{fill:none;}.cls-2{clip-path:url(#clip-path);}.cls-3{fill:url(#linear-gradient);}.cls-4{fill:#474f59;}.cls-5{fill:#ffdb7a;}.cls-12,.cls-27,.cls-6{fill:#354049;}.cls-7{clip-path:url(#clip-path-2);}.cls-8{fill:#fdca5c;}.cls-9{fill:#f47b56;}.cls-10{fill:#338a89;}.cls-11{fill:#fff;}.cls-12{fill-rule:evenodd;}.cls-13{clip-path:url(#clip-path-3);}.cls-14{fill:#ffda7b;}.cls-15{fill:#7dd0dc;}.cls-16{fill:#ffcc3e;}.cls-17{fill:#da1f32;}.cls-18{fill:#e6e7e8;}.cls-19{fill:#bcbec0;}.cls-20{fill:#f15a2f;}.cls-21{clip-path:url(#clip-path-5);}.cls-22{fill:#d9d8d7;}.cls-23{fill:#329a99;}.cls-24{fill:#329292;}.cls-25{fill:#2e8584;}.cls-26{stroke:#2e8584;stroke-miterlimit:10;stroke-width:3px;}.cls-27{font-size:25px;font-family:Raleway-Regular, Raleway;}.cls-28{letter-spacing:0em;}</style><clipPath id="clip-path"><rect class="cls-1" x="27.7" y="24.23" width="1200" height="299.07"/></clipPath><linearGradient id="linear-gradient" x1="27.7" y1="323.95" x2="28.7" y2="323.95" gradientTransform="matrix(0, -299.07, -299.07, 0, 97510.95, 8608.5)" gradientUnits="userSpaceOnUse"><stop offset="0" stop-color="#fff"/><stop offset="0" stop-color="#fff2eb"/><stop offset="0.04" stop-color="#feece0"/><stop offset="0.18" stop-color="#fad6b8"/><stop offset="0.33" stop-color="#f7c398"/><stop offset="0.48" stop-color="#f5b57e"/><stop offset="0.64" stop-color="#f3ab6c"/><stop offset="0.81" stop-color="#f2a561"/><stop offset="1" stop-color="#f2a35e"/></linearGradient><clipPath id="clip-path-2"><rect class="cls-1" x="27.7" y="23.95" width="1200" height="300"/></clipPath><clipPath id="clip-path-3"><path class="cls-1" d="M27.7,24V167.84A88.26,88.26,0,0,0,129.94,24Z"/></clipPath><clipPath id="clip-path-5"><path class="cls-1" d="M393.57,24A90.51,90.51,0,1,0,487,24Z"/></clipPath></defs><title>coverPage</title><g id="Layer_2" data-name="Layer 2"><g id="Layer_1-2" data-name="Layer 1"><g class="cls-2"><rect class="cls-3" x="27.7" y="24.23" width="1200" height="299.07"/></g><polygon class="cls-4" points="258.17 156.83 214.68 156.83 206.18 165.32 206.18 190.81 266.66 190.81 266.66 165.32 258.17 156.83"/><rect class="cls-5" x="220.64" y="166.61" width="31.56" height="14.4"/><polygon class="cls-6" points="206.18 165.32 214.68 156.83 206.18 190.81 206.18 165.32"/><polygon class="cls-6" points="266.66 165.32 258.17 156.83 266.66 190.81 266.66 165.32"/><rect class="cls-6" x="200.76" y="190.8" width="71.35" height="4.76"/><g class="cls-7"><path class="cls-8" d="M196.38,78.53h7.67c.74,4.63,4.31,8.62,8.07,8.62V83.68c-1.87,0-4.73-3-4.73-6.89V75.05H192.86v1.74c0,18.06,9.79,26.46,16.26,32,1.29,1.11,2.49,2.13,3.48,3.13l2.46-2.46c-1.05-1-2.32-2.13-3.68-3.31-6.11-5.25-14.42-12.39-15-27.64"/><path class="cls-8" d="M265.49,75.05v1.74c0,3.93-2.87,6.89-4.73,6.89v3.47c3.76,0,7.33-4,8.06-8.62h7.68c-.59,15.25-8.89,22.39-15,27.64-1.36,1.18-2.62,2.26-3.68,3.31l2.47,2.46c1-1,2.18-2,3.48-3.13,6.47-5.56,16.25-14,16.25-32V75.05Z"/><path class="cls-5" d="M262.74,107a26.31,26.31,0,0,1-52.61,0V70.36h52.61Z"/><rect class="cls-8" x="207.39" y="64.24" width="58.1" height="6.12"/><rect class="cls-8" x="223.18" y="153.05" width="26.51" height="3.77"/><path class="cls-5" d="M238.67,142v-4.07H234.2V142a11,11,0,0,1-11,11.05h26.51a11,11,0,0,1-11-11.05"/><path class="cls-8" d="M242.1,132.72H230.77v3.15a3.43,3.43,0,0,0,3.43,3.43h4.47a3.43,3.43,0,0,0,3.43-3.43Z"/><polygon class="cls-9" points="252.34 64.24 243.11 64.24 243.11 89.76 247.72 85.14 252.34 89.76 252.34 64.24"/><path class="cls-5" d="M271,49a9.83,9.83,0,1,1-9.83-9.84A9.83,9.83,0,0,1,271,49"/><path class="cls-8" d="M269.07,49a7.86,7.86,0,1,1-7.86-7.87A7.85,7.85,0,0,1,269.07,49"/><path class="cls-5" d="M262,49.68h-1.65a2.56,2.56,0,0,1-1.82-.75,2.53,2.53,0,0,1-.76-1.82,2.57,2.57,0,0,1,.76-1.83,2.53,2.53,0,0,1,1.82-.75H264v1.3h-3.57a1.28,1.28,0,0,0-1.28,1.28,1.28,1.28,0,0,0,1.28,1.28H262Z"/><path class="cls-5" d="M262,53.54h-3.58v-1.3H262A1.3,1.3,0,0,0,263.32,51a1.26,1.26,0,0,0-.37-.89,1.28,1.28,0,0,0-.91-.39h-1.65V48.39H262a2.6,2.6,0,0,1,1.82.75,2.56,2.56,0,0,1,.75,1.82A2.56,2.56,0,0,1,262,53.54"/><rect class="cls-5" x="260.56" y="44.09" width="1.3" height="9.9"/><path class="cls-5" d="M233.94,28.24A7.27,7.27,0,1,1,226.67,21a7.27,7.27,0,0,1,7.27,7.26"/><path class="cls-8" d="M232.48,28.24a5.81,5.81,0,1,1-5.81-5.81,5.81,5.81,0,0,1,5.81,5.81"/><path class="cls-5" d="M227.28,28.72h-1.22a1.91,1.91,0,0,1-1.91-1.9,1.89,1.89,0,0,1,1.91-1.9h2.64v1h-2.64a.9.9,0,0,0-.67.27.93.93,0,0,0-.28.67,1,1,0,0,0,.95.95h1.22Z"/><path class="cls-5" d="M227.28,31.57h-2.64v-1h2.64a.92.92,0,0,0,.94-.94A.9.9,0,0,0,228,29a.92.92,0,0,0-.67-.29h-1.22v-.95h1.22a1.86,1.86,0,0,1,1.35.56,1.89,1.89,0,0,1,.55,1.34,1.93,1.93,0,0,1-.55,1.35,2,2,0,0,1-1.35.55"/><rect class="cls-5" x="226.19" y="24.59" width="0.96" height="7.32"/><path class="cls-5" d="M235.68,46.51a3.46,3.46,0,1,1-3.45-3.46,3.44,3.44,0,0,1,3.45,3.46"/><path class="cls-8" d="M235,46.51a2.77,2.77,0,1,1-2.76-2.77A2.76,2.76,0,0,1,235,46.51"/><path class="cls-5" d="M232.52,46.74h-.58a.89.89,0,0,1-.64-.27.9.9,0,0,1,.64-1.54h1.25v.45h-1.25a.46.46,0,0,0-.32.13.46.46,0,0,0,0,.64.46.46,0,0,0,.32.13h.58Z"/><path class="cls-5" d="M232.52,48.09h-1.26v-.46h1.26a.4.4,0,0,0,.31-.13.41.41,0,0,0,.14-.31.46.46,0,0,0-.13-.32.44.44,0,0,0-.32-.13h-.58v-.46h.58a.9.9,0,0,1,.9.91.9.9,0,0,1-.26.64.92.92,0,0,1-.64.26"/><rect class="cls-5" x="232" y="44.77" width="0.46" height="3.48"/><path class="cls-5" d="M208.74,56.06a4.84,4.84,0,1,1-4.84-4.84,4.84,4.84,0,0,1,4.84,4.84"/><path class="cls-8" d="M207.77,56.06a3.87,3.87,0,1,1-3.87-3.87,3.87,3.87,0,0,1,3.87,3.87"/><path class="cls-5" d="M204.31,56.38h-.81a1.27,1.27,0,0,1-.9-2.17,1.29,1.29,0,0,1,.9-.37h1.76v.64H203.5a.67.67,0,0,0-.45.18.63.63,0,0,0-.18.45.59.59,0,0,0,.18.44.6.6,0,0,0,.45.19h.81Z"/><path class="cls-5" d="M204.31,58.28h-1.76v-.64h1.76a.65.65,0,0,0,.45-.19.63.63,0,0,0,0-.88.65.65,0,0,0-.45-.19h-.81v-.64h.81a1.26,1.26,0,0,1,.9.37,1.27,1.27,0,0,1-.9,2.17"/><rect class="cls-5" x="203.58" y="53.62" width="0.64" height="4.87"/><rect class="cls-10" x="363.56" y="172.18" width="2.08" height="7.78"/><polygon class="cls-10" points="348.82 173.96 350.87 173.52 352.48 181.13 350.44 181.56 348.82 173.96"/><rect class="cls-10" x="336.28" y="177.98" width="2.09" height="7.78" transform="translate(-44.79 152.58) rotate(-23.95)"/><rect class="cls-10" x="324.14" y="184.99" width="2.08" height="7.78" transform="translate(-48.84 227.92) rotate(-36.11)"/><rect class="cls-10" x="313.71" y="194.38" width="2.09" height="7.78" transform="translate(-43.04 300.08) rotate(-48.09)"/><polygon class="cls-10" points="302.62 208.57 303.67 206.76 310.4 210.65 309.36 212.47 302.62 208.57"/><polygon class="cls-10" points="296.79 222.21 297.43 220.23 304.83 222.63 304.19 224.62 296.79 222.21"/><polygon class="cls-10" points="293.92 236.77 294.13 234.68 301.87 235.51 301.65 237.58 293.92 236.77"/><polygon class="cls-10" points="293.92 249.52 301.65 248.72 301.87 250.79 294.13 251.61 293.92 249.52"/><polygon class="cls-10" points="296.79 264.08 304.19 261.69 304.83 263.66 297.43 266.07 296.79 264.08"/><rect class="cls-10" x="302.62" y="275.64" width="7.78" height="2.09" transform="translate(-97.27 190.27) rotate(-29.99)"/><rect class="cls-10" x="310.87" y="286.99" width="7.78" height="2.08" transform="translate(-111.89 284.67) rotate(-42.01)"/><rect class="cls-10" x="321.29" y="296.37" width="7.78" height="2.08" transform="translate(-106.55 385.74) rotate(-54.01)"/><rect class="cls-10" x="333.43" y="303.38" width="7.78" height="2.09" transform="translate(-78.02 488.69) rotate(-65.99)"/><polygon class="cls-10" points="389.36 301.29 391.25 300.45 394.42 307.55 392.51 308.4 389.36 301.29"/><polygon class="cls-10" points="400.9 294.88 402.58 293.66 407.17 299.95 405.47 301.17 400.9 294.88"/><rect class="cls-10" x="413.41" y="284.14" width="2.09" height="7.78" transform="translate(-76.94 403.23) rotate(-47.99)"/><rect class="cls-10" x="421.65" y="272.8" width="2.08" height="7.78" transform="translate(-28.22 504.51) rotate(-60.01)"/><polygon class="cls-10" points="424.37 263.66 425.01 261.69 432.42 264.08 431.77 266.07 424.37 263.66"/><polygon class="cls-10" points="427.34 250.79 427.55 248.72 435.29 249.52 435.07 251.61 427.34 250.79"/><polygon class="cls-10" points="427.34 235.51 435.07 234.68 435.29 236.77 427.55 237.58 427.34 235.51"/><rect class="cls-10" x="424.51" y="221.38" width="7.78" height="2.09" transform="matrix(0.95, -0.31, 0.31, 0.95, -47.79, 143.4)"/><polygon class="cls-10" points="418.8 210.65 425.54 206.76 426.58 208.57 419.85 212.47 418.8 210.65"/><polygon class="cls-10" points="410.87 200.09 416.64 194.89 418.03 196.44 412.26 201.64 410.87 200.09"/><polygon class="cls-10" points="400.9 191.42 405.47 185.12 407.17 186.35 402.59 192.64 400.9 191.42"/><rect class="cls-10" x="388" y="180.83" width="7.77" height="2.09" transform="translate(66.61 466.21) rotate(-66.05)"/><polygon class="cls-10" points="376.73 181.13 378.34 173.52 380.38 173.95 378.76 181.56 376.73 181.13"/><path class="cls-5" d="M364.6,205.22a37.91,37.91,0,0,0-25.55,65.93l1.08,1a29.42,29.42,0,0,1,9.66,21.82v7.66h29.63v-7.66a29.42,29.42,0,0,1,9.65-21.82l1.09-1a37.92,37.92,0,0,0-25.56-65.93"/><path class="cls-8" d="M392.88,243.14a28.28,28.28,0,1,1-28.28-28.27,28.28,28.28,0,0,1,28.28,28.27"/><polygon class="cls-11" points="366.79 253.62 362.41 253.62 360.41 223.7 368.79 223.7 366.79 253.62"/><path class="cls-11" d="M367.59,259.6a3,3,0,1,1-3-3,3,3,0,0,1,3,3"/><rect class="cls-6" x="348.05" y="301.57" width="33.11" height="17.5"/><rect class="cls-4" x="346.54" y="304.08" width="36.12" height="2.49"/><rect class="cls-4" x="346.54" y="309.08" width="36.12" height="2.5"/><rect class="cls-4" x="346.54" y="314.08" width="36.12" height="2.51"/><rect class="cls-4" x="353.84" y="319.07" width="21.52" height="6.12"/><path class="cls-11" d="M54.8,110.13A27.86,27.86,0,1,1,93,119.72a27.88,27.88,0,0,1-38.22-9.59"/><path class="cls-12" d="M72.34,72.48c-.11,0-.32.28-.37.35.26,0,.65-.19,1-.18,0,0,1,0,.6-.27-.09-.06-.18.1-.27.09,0-.18.07-.16-.06-.17s1.08,0,.28.48c.87.17.17.38.55.59s-.23.72.21.72a5.33,5.33,0,0,1,.6-.11c.32,0,.28.44,0,.54,0,0,.18.6.19.7s.81.26.78.43-.88.06-.81.49c0,.16.47.35.53.5-.23.18-1.9,1.09-1.17,1.68.25.2,1.17.17,1.23.43-.27.11-.87,0-1,.29s-.45.1-.53.48c0,.07-.14.67,0,.69a.2.2,0,0,0,.07-.3c.23.1.08.35,0,.55L74,80.39c0,.29-.18,1.73-.19,1.76-.11.68.56,1.1.39,1.69a4.21,4.21,0,0,1-.73,1.41c-.11.13-.43.67-.55.7-.95.24-.28,1.13-.53,1.87s1.45,2.73,1.13,3.15A11.3,11.3,0,0,0,73.08,93a1.53,1.53,0,0,0,.53,1.46c.64.6.59.07,1.3.07s1.18.31,1.73.06a8.46,8.46,0,0,1,.94-.5c.15,0,.62,0,.64-.29a1.06,1.06,0,0,0,.18-.27s.24.39.4.42a3.08,3.08,0,0,0,1.09-.18c.51-.16.31-.74.8-.18.43-.12,1,.09,1,.23s1.36,1,1.38.81c.26.43,1.91.17,2.12-.24s1-.32,1.29-.23.48.34.93.28c.19,0,.43-.22.52.08s.85-.06,1.08.16c-.11.05-.16.15-.25.23.23-.26.69-.26.83-.65.19-.57.72-.23,1.11-.57s.24,0,.72,0c-.2,0,.86,0,.67.07.17-.09-.19-.26,0-.43s.44-.5,0-.73c-.69-.45.47-.74.26,0,0,.12.44,1,.33,1a4.79,4.79,0,0,0,.71-1.33c.57.28.09-1.61.25-1.72a1.18,1.18,0,0,0,1.18.2c.35-.06.23-.89.81-.74,1,.26,1.39,1.49,1.5,2.43.07.43,1.47-.26,1.55-.49.17-.47.27.57.26.55.16.34.22.61.07.69a7.71,7.71,0,0,0,.18,1.51c.48.34.82-1,.78-1.24s.06-.47,0-.69.27-.1.36-.26c.24-.42.82-.62,1,0s1.29,1.79.84,2.65c-.14.27.2.92.09,1.29,0,.05-.49.89-.37.94-.17,0-.6.51-.76.41a.6.6,0,0,0-.61.12l.11.32s.25-.11.28,0-.68.45-.7.46c-.33.17-.73.05-.87.35-.22.47-1-1.31-1.22-1.37s-.19-.27-.33-.17,1,2.31.72,3.07a10.24,10.24,0,0,1-.77,1.6,2.34,2.34,0,0,0-.35.73c.06.06.18.11.21,0,.1.11-.17.16-.13.32s.23.12.23.18,0,.35.06.28,0,0,0,0c-.24.1.17.17.21.21-.38,0,0,.41-.25.6.15-.2,0-.4-.13-.52s-.08.6-.06.56a6.23,6.23,0,0,0-.65,1.12c.08,0,.12-.11.24-.1-.23.28-.58.44-.78.76a.72.72,0,0,1-.1,1A12.91,12.91,0,0,0,95,108.69c0-.22-.07,0-.24,0,.42.33.59-1.44.31-.93s-1.36,1.35-1.31,1.8c0,0,.23.21.23.21.3-.18.11-.57.48-.79.68-.4.52.26.78.37a.34.34,0,0,1,.36-.09c-.06.06-.78.75-.28.59.81-.28.81-1.36,1.41-1.69a6,6,0,0,1-1,1.85c-.52.42-1.47.61-1.76,1.26s-.71.54-.66,1.19c0,.18.51.11.63.07s-.14.08-.12.18c.86-.09,1.17.12,1.72.84.19-.45,1-1.67.92-.44.27,0,1.32.13,1.35-.43a1.76,1.76,0,0,1,.18-.88c.32-.48-.06-.2-.09-.6,0-.65.62-1,.66-1.57,0-.39,0-.61.17-.92s.46,0,.47.29c-.15,0-.24,0-.26.11s.16,0,.24,0a2.62,2.62,0,0,1-.07.62c.05,0,.76-.29.84-.1.16.37.49-.09.63,0a2.55,2.55,0,0,1-.44,1.58c-.15.26-1,1.69-1.39,1.67-.06-.17.12-.23.16-.36a1.94,1.94,0,0,0-.9.56c.06,0,.5.25.43.4a2,2,0,0,0-.39.24c-.18.18-.39.34-.39.62a1.4,1.4,0,0,1-.74.9c-1.19,0,.59-1.77.64-1.72-.13-.12-.55.46-.92.16-.1-.07-.87.1-.87.23s.35.17.39.22c-.87.08-.73.23-.35.61s-.41.21-.45.22-.45.54-.46.68c.24,0,.53-.15.76-.07s-.25.37,0,.41.6-.19.68.2a.42.42,0,0,0,.31-.24c-.07,0-.1,0-.15,0a.71.71,0,0,1,.32-.3c0,.08-.12.15-.06.26.38-.16.44-.49.69-.76,0,.18-.14.3-.19.46a2.05,2.05,0,0,0,.69-.93.64.64,0,0,1-.18-.06,3.89,3.89,0,0,1,.64-1c.07.23-.18.31-.16.51a.87.87,0,0,0,.27-.27,2.69,2.69,0,0,0-.3.85c.58-.27.39-1.11,1-1.31,0,.18-.29.25-.25.48.18-.13.61-1,.88-.86a10.42,10.42,0,0,0-1,1.6c.09,0,.14-.2.28-.14,0,.11-.12.18-.15.31.44-.26,1.41-1.56,1.13-1.8a.6.6,0,0,1,.51-.42c0,.18-.29.35,0,.39.33-.41.63-.82.93-1.24a24.28,24.28,0,0,0,1.85-3,23.52,23.52,0,0,0,1.93-5.38c.25-1,1-5.24.61-5.81a3.72,3.72,0,0,1-.31-1.44c-.06-.4-.31-.85-.33-1.23,0-.83-.61-1.46-.87-2.26-.11.27,1.43,3.76,1,3.85a7.43,7.43,0,0,1-.62-1.69c-.11-.86-1-1.46-1.23-2.29,0-.08-.14-.5-.18-.57.17-.45-.47-.58-.63-.86a5,5,0,0,0-1.6-.4c-.48,0-.32.42-.68.54s-.73-.36-1-.49-1.16.32-1.38.26-.44-.71-.85-.57c0,0,.16.24.13.3s-.53-.13-.51-.25a.35.35,0,0,1,.38,0c0-.06-.44-.88-.58-.59a1.11,1.11,0,0,0,.07.16c-.38,0-.62-.4-.87-.34s-.78-.14-1.06-.11.27.77-.09,1-.92-.47-1.14-.6-.35-1.06-.69-1.16.08-1,0-1.3.2-.56.14-.62a1.79,1.79,0,0,1-.21-.7c-.11-.6-.23-.59-.68-.62,0,0-.13-1.55-.66-1.65a6.25,6.25,0,0,1-2.77-1.38,4,4,0,0,0-3-.93,2.53,2.53,0,0,1-2.42-1.19,5.46,5.46,0,0,0-1.17-1.56c-.36-.25-.4-1-.81-1.17-.26-.11-.13-.33-.33-.46a2.63,2.63,0,0,1-.72-.56,13.86,13.86,0,0,0-.74-1.18c-.08-.13-.09-.41-.21-.45a8,8,0,0,1-1.61-1.36c0-.09-.37.26.2.4-.28.48-.79-.55-.82-.54.45-.1.15,0-.17-.52-.2-.27,0-.19-.28-.11-.42.14-.2-.32-.46-.44a11.49,11.49,0,0,0-1.64-.48c-.78-.22-1.54.35-2.18.57h0m21.77,39.9a1.13,1.13,0,0,1,.31-.43c0,.22-.18.28-.31.43m1.31-.64a.29.29,0,0,1-.28.06s.47-.37.47-.55c.08.27-.14.34-.19.49-.09,0,0-.15,0,0m.72-1.63h0m1.47.9c0,.08,0,.09-.12,0s.06-.1.12,0,0,0,0,0m-.53-2.45c.2-.11-.22.11,0,0,0,0,0,0,0,0m.27.91c.29-1,.14-.1.21-.41,0,0,0,0,0,0s-.2.42-.21.43.09-.09,0,0m.68.59c0-.21,0-.21.22-.28,0,.11-.18.16-.22.28m-1.57,4.12.15-.09c-.1.3-.17.11-.15.09h0m-.29.61c0-.12.16-.14.23-.23,0,.24,0,.25-.23.23M98.74,113a.32.32,0,0,1-.16.2c-.12-.06.32-.39.16-.2,0,.08,0,0,0,0m.2.07c-.1,0-.11,0,0-.11s.09,0,0,.11h0m-.08-8s.8-1,.87-.74c0-.09-.18.52-.12.43a8,8,0,0,1-1,.67.94.94,0,0,1,.2-.36c.18-.23-.07.1,0,0m-.52,1c-.92.43.31-.66.54-.59a.93.93,0,0,1-.54.59h0m3.36,5.29a2.76,2.76,0,0,1-.59.8,2.64,2.64,0,0,1,.59-.81Zm-2.85-4.64c0-.07.06-.09.11-.07s-.08.1-.11.07h0m0-.68h0m.52.3c-.4,0-.52-.56,0-.34a1.24,1.24,0,0,1,.22-1,.34.34,0,0,0,.1.35c.1,0,.14-.22.21-.26-.11-.12,0,1.26.25.68a18.79,18.79,0,0,1,.58-2c.17,0,.09,1.24.07,1.3a2.13,2.13,0,0,1-1.41,1.3m3,3.66s-.24.47-.32.44.38-.64.41-.66a.32.32,0,0,1-.09.22c-.07.14,0-.06,0,0m-1.76-2.78s0-.37.12-.31,0,.42-.12.31,0,0,0,0m2.06,1.72s-.39.72-.49.58.56-.63.49-.58m-.18-.67a.15.15,0,0,1,.08-.18c0,.08,0,.12-.08.18m-.42-1.59c0,.11,0,.51.11.58-.09,0,.36-.16.22,0s-.35.57-.47.54.05-1.17.15-1.31a.22.22,0,0,1,0,.18c-.07.15,0-.05,0,0m-.92-.66c-.39.45-.41.82-.92.63-.19-.07-.38-.44-.07-.51-.09,0,.82-.41.72-.23a1,1,0,0,1,.65-.51,4.9,4.9,0,0,1-.38.62h0m1.21.49c-.11-.08-.11-.16,0-.26v.26m.62-14.54c.22-.12-.17.11,0,0s0,0,0,0m-4-.33c0-.06-.15.15,0,0h0m-8.1,1.81c.13,0-.14.07,0,0h0m-13-19.15c.21-.08,0,.22,0,0,0,0,0,0,0,0m5.44,10.21h0m-3.77-6.13c.1-.12-.11.12,0,0s0,0,0,0m-4.64-6.27c.12,0,.14,0,.07.1s-.15,0-.07-.1,0,0,0,0m-1.08.14q.15,0,0,.12c-.09,0-.11,0,0-.12s0,0,0,0m3.3,1.37s0,0,0,0l0,0m21.68,41.07Zm5.81-8.71h0Zm-46.89,8.25h0a43.16,43.16,0,0,0,4.58,4.17,27.87,27.87,0,0,0,13.52,5.18,26.63,26.63,0,0,0,3.46.14c.54,0,1.1,0,1.65-.08.24,0,1-.24,1.19-.14-.06-.07-.54,0-.62-.06a5.33,5.33,0,0,1,1.17-.16s-.07,0,0,.09c.51,0,2.24-.32,2.29-.87a4.36,4.36,0,0,1-1.7-.57,2,2,0,0,0-1.69-.31c-.69.15-.11.15-.27.42s-.45-.08-.55.09h0l.27.16s-1.7-.49-1.68-.17a3,3,0,0,0,1.17.55c.42.09.86-.14,1.31-.06a3.76,3.76,0,0,1,1.17.26c-.73.41-2.48-.62-2.85.4l.43,0c-.16,0-.88.21-.83-.16.64-.25-.77-.2-.83-.25.11-.06.24,0,.34-.07-.17-.17-.86,0-1.1-.36.31-.25.31.1.37-.32,0-.13.34-.28.51-.4.37-.27,1.21.14,1.62.17a1.74,1.74,0,0,0-1.23-.37c-.27,0,.18-.33.07-.5,0,0-.16,0-.18,0s.16,0,.18,0a3.59,3.59,0,0,1-.3-.69c-.55-.19.27-.53.28-.55s-.26,0-.36-.14a2.15,2.15,0,0,0,.58-.42c-.37.1-2.56.33-2.54-.49,0-.27,1.31-.72,1.53-.84.47-.24-.23-.45-.27-.49-.27-.3-.63-.29-.85-.71s-.44-.13-.67-.31-.17-.2-.4-.11c-.41.18-.38.24-.86.19-.33,0-.21.36-.48.53-.66.43,0,.23-.27.51s.56.68.6.82.24.33,0,.52.37.4.45.48c.23.24-1.1.33-.55,1a12.07,12.07,0,0,1-2.33,0,3.69,3.69,0,0,1-1.28-.15c-.49-.19.27-.46.26-.59s-.84,0-.94,0a3.23,3.23,0,0,0,.39.44c.17.24.69.27.79.49a.66.66,0,0,1-.39.06c.59.22,1.17-.08,1.75,0,.35.06.74,0,1.08.1,0,0,.74.27.39.35a15.81,15.81,0,0,1-1.94,0,2.37,2.37,0,0,1-1.11-.19,6,6,0,0,0-1.28-.33,4.93,4.93,0,0,0-.94-.08,5.29,5.29,0,0,0,.61.43c.24.13.85-.07,1,.24-.12.06-.07.2-.33.34.14-.07,0,.31,0,.27a4.3,4.3,0,0,1,2.34.86c-.14.08-.32-.06-.42.12a.53.53,0,0,1,.23.28c-.06,0-.77-.15-.73-.28a.52.52,0,0,1,.44,0c-.21-.2-.45-.07-.64-.17,0,.07.1.1.09.2a3.3,3.3,0,0,1-2.13-.47c.18-.12.75.06.81-.11a.33.33,0,0,0-.18-.26.49.49,0,0,0,.12-.13.35.35,0,0,1-.22-.14l.16-.18a4.87,4.87,0,0,0-2.12-.46c0,.06.15.13.14.16s-.41-.11-.47,0,.17.11.11.2-1.7-.78-1.9-.9c-.74-.45-.27-.18-.06-.43a.55.55,0,0,0,0-.26,4.46,4.46,0,0,1,1.58-.16c.79.07-.82-1-.39-1,.25,0,.45.09.69,0s.67.14,1,.06,1.35-.57,1.49,0,.82.47,1.07.52a5.92,5.92,0,0,0,1.29-.93c.24-.27.66-.67.66-1,0-.7,1.06-.41,1.27-.67s-.29-.5-.3-.68.25-.45.17-.73c-.15-.52-.71-.68-.81-1.19s.48-.92.33-1.19a.51.51,0,0,1-.06-.49c.19-.34-.33-.54-.27-.83.38-1.58-1.48-1.78-1.91-3-.25-.69-.25-.86-.83-1.24-.15-.09-.67-1.08-.92-.4-.4-.52-1.18-.21-1.63-.66s-1.31-.44-2-.53a5.08,5.08,0,0,0-.85-.11c-.52,0-.6.5-.91.83a1.63,1.63,0,0,1-1.07.52c-.23,0-1,1.82-1.5,1.85s-.58-.29-.84-.46-.49.44-.82.48c-.57.07-1.69-1.5-1.49-2,.16-.38-1-.88-1.22-1a4.66,4.66,0,0,1-1.59-1.71c-.2-.49-.76-1.15-.74-1.7a11.9,11.9,0,0,0-.15-1.66c-.17-1.5-1.48-2.51-1.74-4a11.24,11.24,0,0,0-.78-2.17c-.15-.48,0-1.39-.46-1.71-.14.46-.62.7-.86,1.08-.5.77-.35,1.78-.54,2.64a4.2,4.2,0,0,0,0,1.37c0,.43-.14.83-.09,1.25.15,1,.31,2.08.45,3.13A23.85,23.85,0,0,0,54,108.21a21.61,21.61,0,0,0,3.71,6m4.65,3.68c.24.18,2.63,1.28,2.55,1.48s-5.72-3-5.87-3.91c1.07.85,2.21,1.63,3.32,2.43h0M56.13,110c.13.1.13.26.18.44-.15-.13-.13-.3-.18-.44m-.31-.84a.32.32,0,0,1,.08.23.21.21,0,0,1-.08-.23m-3.25-6.46a.76.76,0,0,1,.11-.14c.09-.06-.09.22-.1.23s0-.07,0-.09,0,0,0,0M54,105.27c.14.22.14.25,0,.53-.05-.19.07-.36,0-.53m.45,1.33a7,7,0,0,1,.71,1.36c-.44-.7-.91-1.4-1.31-2.13.2.08.49.58.6.77h0m-1.18-1.12a4.71,4.71,0,0,1-.72-1.91c.36.66.47,1.39.85,2a.2.2,0,0,1-.13-.13s0,0,0,0m2,4.09c-.15-.52-.35-.6-.23-1,.21.34.72.91.49,1.33a.66.66,0,0,1-.26-.31c-.06-.22.05.15,0,0M57,78.38c-.07,0,2.45-2.73,2.73-3a27.25,27.25,0,0,1,3.54-2.78A25.61,25.61,0,0,1,71.17,69a5.28,5.28,0,0,0-1.07.45c.41,0,.73-.28,1.13-.2-1.08.43-2,1.06-3,1.49.18.07,1.12-.23,1.16-.14s-.73.48-.74.51c-.17.41.59-.08.62.13s-.25.11-.26.26.14.23.14.34a5.38,5.38,0,0,1-1.21,1c.08-.17.3-.17.1-.36.13-.06.5-.29.42-.47a4.7,4.7,0,0,1-.74-.28c-.26-.14-.82,0-1-.22-.34-.38-2.58,1-2.89,1.26-.79.6-1.4,1.38-2.15,2-.44.38-.85.82-1.32,1.17-.22.16-.84.9-1.06.94C59,76.6,57.5,78.21,57,78.38h0M51.16,99.82c0,.3.12.6.14.91a5.56,5.56,0,0,1-.14-.91m.19,1.22s0,.08,0,.11,0-.07,0-.11m44.88,15.65c.15,0,.27-.15.42-.21,0,.1-.42.36-.18.37a5.19,5.19,0,0,1-2.14,1.73c-.77.34-1.35,1-2.11,1.29a6.23,6.23,0,0,0-.86.42c-.26.12-.13-.31-.44-.18s-.73-.1-.84.08c-.14-.27.08-.16-.15-.35-.05,0-.45,0-.44-.07a6.89,6.89,0,0,1,.79-.46c.06,0-.09-.11-.13-.06a7.06,7.06,0,0,0-.68.4c.19-.6.82-.92,1.09-1.48.16-.34.58-.57.82-.85a2.53,2.53,0,0,1-.17-1.26c0-.3,1.33-.4,1.51-.34.38.13,1.3.53.88,1.07s0,0,.31.08c0,.32-.25.35-.52.46a.41.41,0,0,0,.56-.16c.17.16-.06.53.36.55.18,0,.82-.51.91-.4.23.28-.77.66-.78,1,.76-.26,1.08-1.34,1.79-1.63.15,0-.12,0,0,0m-15.31,3c-.1.07.35.27.45.3a.37.37,0,0,0-.19.16,2.56,2.56,0,0,0,1.12.05c.16-.32.93.22,1,.29-.42.34-1,0-1.51.07s-2,.19-2.31-.17c-.15-.17.88-.68.89-1,.27.21-.09.42,0,.5s.49-.18.54-.22h0m12.53-8a9.27,9.27,0,0,0,.34-1.46c-.07-.06-.89.51-1.09.51,0-.1.1-.12.06-.22-.11.06-.32.49-.42.46a.28.28,0,0,1-.07-.17c-.6-.15-.08.64-.07.7.29-.13.19.45.54,0a2,2,0,0,0,.54-.15c.06,0-.13.62-.14.68.28-.08.25-.2.31-.36s0,0,0,0m-1.36-.38c-.06,0,0-.07,0,0s0,0,0,0m.2-.1s-.12.19-.08.05.1-.18.08-.05h0m1.18.62h0m.3-1.23a.06.06,0,0,1-.07,0s.12-.06.07,0,0,0,0,0M96.1,95.66c.22-.16,0,.28,0,.33.38.27,1.51-.3,1.79-.06a.16.16,0,0,0,0,.15c.46-.08.38-.64.74-.81,0,1.6-2.53,1.28-3.56,1.15.34-.26.7-.48,1-.76h0m-1.28-.08c.22,0-.53.41-.61.51.29.14.23.34.57.26-.08.48-1.17.62-1.51.66,0-.05.07-.05.07-.11s-.89-.14-.41-.21.61-.46.81-.81c.44.2.68-.27,1.08-.3h0m-13,24.21c-.66-.18-.23-.88.22-.78.23.06.35.45.73.36a1.59,1.59,0,0,0-.2.24c.53.38-.58.22-.75.18s.05,0,0,0m6.82-.61c.08.06-.56.39-.65.47s-1.43.73-1.12.28.63-.8,1.11-.71c.12,0,.65-.06.66,0s-.07-.08,0,0M74,119.79c-.13.09-.8-.25-.8-.38,0-.35.67.14.89.14l-.09.24m23.33-4c-.22.56-.42.44-1,.69a1.52,1.52,0,0,1,1-.69c-.06.15-.52.18,0,0m-8.91,5.82a9.88,9.88,0,0,1,1-.34,3.29,3.29,0,0,1-1.14.45c-.09,0,.11-.11.09-.11.36-.1,0,0,0,0m1-.34.09-.07a.08.08,0,0,1-.09.07s0,0,0,0m6.18-26.24a.13.13,0,0,1-.18,0c-.06-.19.62-.27.72-.23a.58.58,0,0,1-.54.27m-3.84,2.32c-.14-.86,1.28-.11,0,0,0-.12.21,0,0,0m-3.14-2.72h0a.06.06,0,0,1,0,.06l0-.06m-.09.08s.1.33-.08.45,0-.4.08-.45h0M98,115.62c.11-.23.39-.28.54-.48-.16.35-.29.42-.54.48.11-.23,0,0,0,0M96.77,97.31c.24.24.36.18.32.54-.24-.22-.33-.38-.32-.54.1.1,0,.16,0,0m-.74-13c-.06-.11,0-.18.09-.2a.87.87,0,0,1,.26.45L96,84.32h0m-.79,25.87a1,1,0,0,1-.72.15.72.72,0,0,1,.72-.15m-21.12,9.65h0c.08,0,.6,0,.53.2s-.49-.17-.53-.2m-5.2.4c.11,0,.24-.11.38,0-.18,0-.31.13-.5.11,0-.06,0-.14.12-.13s-.08,0,0,0m28.64-4.54c.07,0,.11,0,.18,0,0,.19-.21.23-.32.36,0,0,0-.42.14-.34s0,0,0,0m.58-.55a1,1,0,0,1,.46-.61,1.26,1.26,0,0,1-.46.61m-3.48-6a.67.67,0,0,0-.17.12c.06-.43.58-.19.53-.14s-.35,0-.36,0h0M98,115.06a1,1,0,0,1-.48.47,1,1,0,0,1,.48-.47m-23.32,3.5c.2-.08-.23.41-.19,0a.67.67,0,0,1,.19,0s-.06,0,0,0m-6.79,2.21a.25.25,0,0,1,.29.19.31.31,0,0,1-.29-.19m29.18-6.33c0,.15-.06.23-.3.37a.5.5,0,0,1,.3-.37m1.24-1.84a.76.76,0,0,1,.31-.35c0,.18-.15.24-.31.35m-14.94,7.6c0-.07,0-.09-.11-.1s.34.1.23.21-.11,0-.12-.11h0M98,95.55a.13.13,0,0,1,0-.2c.07.05.07.33,0,.2s0,0,0,0m-22.92-20a.21.21,0,0,1-.19-.08c-.12-.21.44-.11.19.08h0M98,112.61a.49.49,0,0,1,.13-.26.24.24,0,0,1-.13.26M95.88,84.46c-.13-.25.21.19,0,0h0m.33,28.71s0,0,0,0,.08-.06,0,0m2.43,1.65.07-.07s0,.06-.07.07m.09-.09,0,0,0,0m.09-.09h0s0,0,0,0m0,0s0,.07-.09.09a.11.11,0,0,1,.09-.09m-.78.41h0s0,0,0,0m0,0s0-.06,0-.08a.06.06,0,0,1,0,.08M92.17,85.29h0m-12,37.93c-.17,0,0,0,0,0h0m3.16-3.12h0a0,0,0,0,1,0,0s0,0,0,0h0M98.09,115h0m0,0,0,0s0,0,0,0h0m-26.2,5.65ZM81.67,93.8c.12,0,0,.08,0,0s0,0,0,0M57,78.39h0s0,0,0,0h0m0,0Zm42.54,27.71s-.22.17-.19,0,.12-.1.19,0,0,0,0,0m2.56,1.11c.09,0,.1.06,0,.15s-.11,0,0-.15,0,0,0,0"/></g><g class="cls-13"><rect class="cls-4" x="46.91" y="46" width="11.1" height="11.93" transform="translate(-19.24 34.33) rotate(-30.91)"/><path class="cls-6" d="M102.76,136a46.83,46.83,0,1,0-64.23-16.13A46.84,46.84,0,0,0,102.76,136M59.19,63.21A38,38,0,1,1,46.1,115.34,38,38,0,0,1,59.19,63.21"/><rect class="cls-4" x="25.61" y="1.64" width="17.48" height="40.14" transform="translate(-6.27 20.72) rotate(-30.91)"/><rect class="cls-6" x="36.83" y="38.27" width="20.39" height="9.23" transform="translate(-15.35 30.24) rotate(-30.9)"/></g><g class="cls-7"><path class="cls-14" d="M26.59,56.45,29,58.27a61.77,61.77,0,0,0-3.75,5.58l-2.6-1.55a68,68,0,0,1,3.94-5.85m42.24-25.2a66.17,66.17,0,0,1,7-.68l.13,3a59.87,59.87,0,0,0-6.69.65ZM19.37,68.55l2.74,1.26a63.56,63.56,0,0,0-2.47,6.26l-2.86-1a64.74,64.74,0,0,1,2.59-6.56M82.9,30.65a65.52,65.52,0,0,1,7,.83l-.51,3a60,60,0,0,0-6.68-.8Zm-68,51.26,3,.65a64.67,64.67,0,0,0-1.08,6.64l-3-.32a65.69,65.69,0,0,1,1.13-7M96.78,33.07a62.39,62.39,0,0,1,6.66,2.31l-1.14,2.79A62,62,0,0,0,95.94,36ZM13.39,95.92h3a62.43,62.43,0,0,0,.37,6.71l-3,.33a63.48,63.48,0,0,1-.39-7m96.44-57.53a65.78,65.78,0,0,1,6,3.69l-1.71,2.48a63.33,63.33,0,0,0-5.74-3.51ZM14.92,109.92l3-.65a62.13,62.13,0,0,0,1.81,6.48l-2.86,1a65.81,65.81,0,0,1-1.9-6.8M121.43,46.4a65.23,65.23,0,0,1,5.08,4.9l-2.21,2.06a61.14,61.14,0,0,0-4.85-4.68Zm-102,76.87L22.18,122a64.69,64.69,0,0,0,3.08,5.82l.08.13-2.59,1.55-.08-.13a68.21,68.21,0,0,1-3.23-6.09M131,56.72a65.36,65.36,0,0,1,3.71,5.55l.2.33-2.61,1.52-.18-.3a61.17,61.17,0,0,0-3.55-5.3ZM29.11,133.51a63,63,0,0,0,4.35,5.13l-2.2,2.08a67.58,67.58,0,0,1-4.56-5.39ZM135.45,70.09l2.74-1.25a63.38,63.38,0,0,1,2.57,6.57l-2.86,1a64.59,64.59,0,0,0-2.45-6.27M38.34,143.28a63.36,63.36,0,0,0,5.35,4.07L42,149.85a64.42,64.42,0,0,1-5.62-4.27ZM139.65,82.85l2.95-.63a63.49,63.49,0,0,1,1.09,7l-3,.31a59.69,59.69,0,0,0-1-6.65m-90.19,68a61.52,61.52,0,0,0,6.11,2.83l-1.12,2.81a65.31,65.31,0,0,1-6.41-3ZM141,96.22l3,0a63.8,63.8,0,0,1-.43,7l-3-.35a60.27,60.27,0,0,0,.41-6.71M61.94,155.81a64.79,64.79,0,0,0,6.57,1.46l-.5,3a65.52,65.52,0,0,1-6.88-1.52Zm77.52-46.24,2.95.66a66.49,66.49,0,0,1-1.93,6.79l-2.85-1a64.19,64.19,0,0,0,1.83-6.47M75.2,158a62.77,62.77,0,0,0,6.72,0l.15,3a66.32,66.32,0,0,1-7,0Zm59.91-35.73,2.73,1.28a65.2,65.2,0,0,1-3.33,6.22l-2.58-1.57a63.71,63.71,0,0,0,3.18-5.93m-46.5,35.05a61.66,61.66,0,0,0,6.58-1.42l.8,2.91a65.75,65.75,0,0,1-6.9,1.49Zm39.52-23.56,2.39,1.83a64.89,64.89,0,0,1-4.59,5.36l-2.18-2.09a62.61,62.61,0,0,0,4.38-5.1m-26.56,20a63.53,63.53,0,0,0,6.11-2.81l1.41,2.67a65,65,0,0,1-6.41,3Zm17.27-10.3,1.94,2.31a64.87,64.87,0,0,1-5.64,4.24l-1.68-2.5a62.5,62.5,0,0,0,5.38-4.05"/><path class="cls-4" d="M158,213l20.84,83.8a16,16,0,0,1-11.66,19.38L40.7,347.61A16,16,0,0,1,21.32,336L.48,252.15a16,16,0,0,1,11.66-19.38l126.48-31.46A16,16,0,0,1,158,213"/><rect class="cls-11" x="24.45" y="227.82" width="124.47" height="94.75" transform="translate(-63.86 29.06) rotate(-13.97)"/><path class="cls-6" d="M154.38,239.82l8.78,35.31a3.2,3.2,0,1,1-6.21,1.54l-8.78-35.3a3.2,3.2,0,1,1,6.21-1.55"/><polygon class="cls-15" points="104 265.49 74.08 267.11 68.74 286.72 44.42 296.51 49.72 317.83 139.31 295.55 125.01 238.04 104 265.49"/><polygon class="cls-16" points="45.33 298.75 43.52 294.26 66.73 284.93 72.21 264.8 102.76 263.14 123.09 236.57 126.93 239.51 105.25 267.84 75.95 269.43 70.76 288.52 45.33 298.75"/><path class="cls-17" d="M49.9,295.15A5.65,5.65,0,1,1,43.06,291a5.65,5.65,0,0,1,6.84,4.12"/><path class="cls-17" d="M74.22,285.36a5.65,5.65,0,1,1-6.84-4.12,5.65,5.65,0,0,1,6.84,4.12"/><path class="cls-17" d="M79.56,265.75a5.65,5.65,0,1,1-6.84-4.11,5.64,5.64,0,0,1,6.84,4.11"/><path class="cls-17" d="M109.48,264.13a5.65,5.65,0,1,1-6.84-4.12,5.65,5.65,0,0,1,6.84,4.12"/><path class="cls-17" d="M130.48,236.68a5.64,5.64,0,1,1-6.84-4.12,5.64,5.64,0,0,1,6.84,4.12"/><path class="cls-18" d="M597.21,24.73l11.52,58.64L630,79.2c6.78-1.33,13.65,4.67,15.37,13.42l34.23,174.24c1.72,8.74,8.6,14.75,15.37,13.42s10.86-9.5,9.14-18.23L655.22,13.33Z"/><path class="cls-19" d="M694.94,280.28l-58,11.4c-6,1.18-12.11-3.44-14.61-10.61l33.3-6.55L620.83,97.44c-1.72-8.75,2.38-16.91,9.14-18.24s13.65,4.67,15.37,13.42l34.23,174.24c1.72,8.74,8.6,14.75,15.37,13.42"/><path class="cls-11" d="M608.73,83.37,572,90.6c-6.76,1.33-10.86,9.49-9.14,18.24l11.34,57.73,24.71-4.86,33.3-6.54L620.83,97.44c-1.72-8.75,2.38-16.91,9.14-18.24Z"/><rect class="cls-11" x="582.99" y="156.73" width="59.12" height="103.8" transform="translate(-28.73 121.99) rotate(-11.11)"/><path class="cls-4" d="M669.26,317.83l-69,13.55a8.44,8.44,0,0,1-9.91-6.65L571.94,230.9a8.43,8.43,0,0,1,6.65-9.9l69-13.55a8.43,8.43,0,0,1,9.9,6.65l18.44,93.83a8.44,8.44,0,0,1-6.66,9.9"/><rect class="cls-15" x="587.93" y="226.33" width="61.59" height="33.18" transform="translate(-35.22 123.82) rotate(-11.11)"/><path class="cls-16" d="M610.06,276.15a5.06,5.06,0,1,1-5.94-4,5.07,5.07,0,0,1,5.94,4"/><rect class="cls-20" x="603.29" y="288.63" width="10.12" height="10.12" transform="translate(-45.19 122.74) rotate(-11.11)"/><rect class="cls-20" x="606.97" y="307.39" width="10.12" height="10.12" transform="translate(-48.74 123.8) rotate(-11.11)"/><path class="cls-16" d="M629.66,272.3a5.06,5.06,0,1,1-5.95-4,5.07,5.07,0,0,1,5.95,4"/><rect class="cls-20" x="622.88" y="284.78" width="10.13" height="10.12" transform="translate(-44.08 126.42) rotate(-11.11)"/><rect class="cls-20" x="626.56" y="303.54" width="10.13" height="10.12" transform="translate(-47.63 127.48) rotate(-11.11)"/><path class="cls-16" d="M649.25,268.45a5.06,5.06,0,1,1-5.94-4,5.07,5.07,0,0,1,5.94,4"/><rect class="cls-20" x="642.47" y="280.93" width="10.12" height="10.12" transform="translate(-42.99 130.22) rotate(-11.12)"/><rect class="cls-20" x="646.16" y="299.69" width="10.12" height="10.12" transform="translate(-46.54 131.28) rotate(-11.12)"/><path class="cls-8" d="M419.41,101.48a20.89,20.89,0,1,1,20.89,20.88,20.9,20.9,0,0,1-20.89-20.88"/><path class="cls-10" d="M474.54,88.17a5.57,5.57,0,1,1,5.57,5.57,5.57,5.57,0,0,1-5.57-5.57"/><rect class="cls-4" x="471.01" y="106.14" width="4.87" height="4.87"/><path class="cls-4" d="M480.45,106.14H485V111h-4.56Zm9.13,0h4.56V111h-4.56Zm9.12,0h4.57V111H498.7Zm9.13,0h4.56V111h-4.56Z"/><rect class="cls-4" x="516.96" y="106.14" width="4.87" height="4.87"/><path class="cls-4" d="M517,115.58h4.87v4.56H517Zm0,9.13h4.87v4.56H517Zm0,9.13h4.87v4.56H517Zm0,9.12h4.87v4.57H517Z"/><rect class="cls-4" x="516.96" y="152.09" width="4.87" height="4.87"/><path class="cls-4" d="M480.45,152.09H485V157h-4.56Zm9.13,0h4.56V157h-4.56Zm9.12,0h4.57V157H498.7Zm9.13,0h4.56V157h-4.56Z"/><rect class="cls-4" x="471.01" y="152.09" width="4.87" height="4.87"/><path class="cls-4" d="M471,115.58h4.87v4.56H471Zm0,9.13h4.87v4.56H471Zm0,9.13h4.87v4.56H471Zm0,9.13h4.87v4.56H471Z"/><rect class="cls-10" x="484.59" y="119.72" width="23.67" height="23.67"/><rect class="cls-4" x="374.72" y="98.11" width="12.3" height="12.3"/><polygon class="cls-10" points="374.25 121.21 413.8 121.21 413.8 160.76 374.25 121.21"/><polygon class="cls-8" points="462.91 152.8 453.16 169.68 443.42 152.8 462.91 152.8"/></g><g class="cls-21"><path class="cls-11" d="M419.82,65.57l20.48-5.16,20.48,5.16a6.5,6.5,0,0,1-.56,1.4l-.24.42L440.3,101.48,420.61,67.39c-.08-.15-.15-.28-.24-.42a7,7,0,0,1-.55-1.4"/><polygon class="cls-22" points="440.3 101.48 433.48 64.85 433.39 63.72 420.61 67.39 440.3 101.48"/><polygon class="cls-4" points="440.3 101.48 447.37 89.22 433.22 89.22 440.3 101.48"/><polygon class="cls-6" points="440.3 101.48 438.01 89.22 433.22 89.22 440.3 101.48"/><rect class="cls-23" x="447.21" y="8.22" width="13.82" height="55.5"/><rect class="cls-24" x="433.39" y="8.22" width="13.82" height="55.5"/><rect class="cls-25" x="419.57" y="8.22" width="13.83" height="55.5"/><path class="cls-23" d="M447.21,63.72a6.91,6.91,0,1,1,6.91,6.91,6.91,6.91,0,0,1-6.91-6.91"/><path class="cls-24" d="M433.39,63.72a6.91,6.91,0,1,1,6.91,6.91,6.91,6.91,0,0,1-6.91-6.91"/><path class="cls-25" d="M419.57,63.72a6.91,6.91,0,1,1,6.9,6.91,6.9,6.9,0,0,1-6.9-6.91"/></g><g class="cls-7"><path class="cls-11" d="M329.8,159.56a6.12,6.12,0,1,1-6.14-6.11,6.14,6.14,0,0,1,6.14,6.11"/><path class="cls-11" d="M170.46,53.62a3.5,3.5,0,1,1-3.52-3.5,3.51,3.51,0,0,1,3.52,3.5"/><path class="cls-6" d="M346,55.11a2.5,2.5,0,1,1-2.49-2.49A2.48,2.48,0,0,1,346,55.11"/><path class="cls-6" d="M199.54,267.65a3.5,3.5,0,1,1-3.51-3.47,3.51,3.51,0,0,1,3.51,3.47"/><path class="cls-6" d="M69.1,190.62a6,6,0,1,1-6-6,6,6,0,0,1,6,6"/><path class="cls-6" d="M541.1,215.62a6,6,0,1,1-6-6,6,6,0,0,1,6,6"/><path class="cls-11" d="M497,266.11a2.5,2.5,0,1,1-2.49-2.49,2.48,2.48,0,0,1,2.49,2.49"/><path class="cls-6" d="M825.33,169l.24-.08A14.6,14.6,0,0,1,825,165V122.27h6.89v57.4H825l-30-46.08-.25.08a13.7,13.7,0,0,1,.58,3.93v42.07h-6.9v-57.4h6.89Z"/><polygon class="cls-6" points="872.66 173.93 872.66 179.66 835.92 179.66 835.92 122.27 872.66 122.27 872.66 128 842.81 128 842.81 147.69 868.07 147.69 868.07 153.43 842.81 153.43 842.81 173.93 872.66 173.93"/><polygon class="cls-6" points="876.15 122.27 919.43 122.27 919.43 128.01 901.23 128.01 901.23 179.67 894.34 179.67 894.34 128.01 876.15 128.01 876.15 122.27"/><path class="cls-6" d="M955.24,149.66v.41a3.81,3.81,0,0,1,2.3,1.06l3.93,3.2a3.29,3.29,0,0,1,1,1.19,6.39,6.39,0,0,1,.2,2v14.75a5.09,5.09,0,0,1-2,4.1c-.44.33-1.09.87-2,1.64a6.21,6.21,0,0,1-3.93,1.64H923.43V122.27h30.34a6.13,6.13,0,0,1,3.93,1.64l2,1.64a5.12,5.12,0,0,1,2,4.1v14a3.42,3.42,0,0,1-1.31,2.79l-2.79,2.13a4,4,0,0,1-2.36,1.09M930.31,128v19.68h17.8a10.38,10.38,0,0,0,1.93-.12,4.35,4.35,0,0,0,1.27-.78l2.12-1.73a4.14,4.14,0,0,0,1.14-1.22,5.86,5.86,0,0,0,.17-1.81V131.37a6.11,6.11,0,0,0-.12-1.6,2.51,2.51,0,0,0-.86-.94,4,4,0,0,0-1.15-.7,8.54,8.54,0,0,0-1.89-.12Zm24,28-1.8-1.48a4.92,4.92,0,0,0-1.4-.94,6.45,6.45,0,0,0-1.64-.12H930.31V174h21.41a8.46,8.46,0,0,0,1.88-.13,4.19,4.19,0,0,0,1.15-.69,2.52,2.52,0,0,0,.86-1,6.1,6.1,0,0,0,.12-1.59V158.92a5.53,5.53,0,0,0-.16-1.72,4.12,4.12,0,0,0-1.23-1.23Z"/><path class="cls-6" d="M974.2,122.27h30a6.16,6.16,0,0,1,3.94,1.64l2,1.64a5.12,5.12,0,0,1,2,4.1v42.62a5.14,5.14,0,0,1-2,4.1l-2,1.64a6.26,6.26,0,0,1-3.94,1.64h-30a6.26,6.26,0,0,1-3.93-1.64l-2-1.64a5.14,5.14,0,0,1-2-4.1V129.65a5.12,5.12,0,0,1,2-4.1l2-1.64a6.15,6.15,0,0,1,3.93-1.64m31,48.3v-39.2a5.71,5.71,0,0,0-.13-1.6,2.36,2.36,0,0,0-.86-.94,3.73,3.73,0,0,0-1.14-.7,8.54,8.54,0,0,0-1.89-.12H977.24a8.58,8.58,0,0,0-1.89.12,3.78,3.78,0,0,0-1.15.7,2.44,2.44,0,0,0-.86.94,7.11,7.11,0,0,0-.12,1.6v39.2a7.1,7.1,0,0,0,.12,1.59,2.52,2.52,0,0,0,.86,1,4.19,4.19,0,0,0,1.15.69,8.55,8.55,0,0,0,1.89.13h23.94a8.55,8.55,0,0,0,1.89-.13,4.13,4.13,0,0,0,1.14-.69,2.37,2.37,0,0,0,.86-1,5.7,5.7,0,0,0,.13-1.59"/><path class="cls-6" d="M1024.43,122.27h30a6.08,6.08,0,0,1,4,1.64l2,1.64a5.12,5.12,0,0,1,2,4.1v42.62a5.14,5.14,0,0,1-2,4.1l-2,1.64a6.26,6.26,0,0,1-4,1.66h-30a6.23,6.23,0,0,1-3.94-1.64l-2-1.64a5.14,5.14,0,0,1-2-4.1V129.65a5.12,5.12,0,0,1,2-4.1l2-1.64a6.18,6.18,0,0,1,3.94-1.64m31,48.3v-39.2a6.11,6.11,0,0,0-.12-1.6,2.39,2.39,0,0,0-.87-.94,3.73,3.73,0,0,0-1.14-.7,8.33,8.33,0,0,0-1.87-.12h-23.94a8.58,8.58,0,0,0-1.89.12,3.85,3.85,0,0,0-1.14.7,2.54,2.54,0,0,0-.87.94,6.59,6.59,0,0,0-.16,1.6v39.2a7.1,7.1,0,0,0,.12,1.59,2.63,2.63,0,0,0,.87,1,4.29,4.29,0,0,0,1.14.69,8.59,8.59,0,0,0,1.89.13h24a8.51,8.51,0,0,0,1.89-.13,4.13,4.13,0,0,0,1.14-.69,2.47,2.47,0,0,0,.87-1,6.08,6.08,0,0,0,.1-1.59"/><path class="cls-6" d="M1094.72,153.43h-19.6a6.29,6.29,0,0,1-3.94-1.64L1069,149.9a4.12,4.12,0,0,1-1.72-3.28v-17a5.12,5.12,0,0,1,2-4.1l2-1.64a6.22,6.22,0,0,1,3.87-1.61h21.81a6.11,6.11,0,0,1,3.93,1.64l2,1.64a5.12,5.12,0,0,1,2,4.1v3.28H1098v-1.56a6.11,6.11,0,0,0-.12-1.6,2.36,2.36,0,0,0-.86-.94,3.78,3.78,0,0,0-1.15-.7A8.45,8.45,0,0,0,1094,128h-15.81a8.45,8.45,0,0,0-1.88.12,3.78,3.78,0,0,0-1.15.7,2.44,2.44,0,0,0-.86.94,6.57,6.57,0,0,0-.13,1.6v13a6.65,6.65,0,0,0,.13,1.6,2.59,2.59,0,0,0,.86.94,4.38,4.38,0,0,0,1.15.7,9.85,9.85,0,0,0,1.88.12h19.6a6.11,6.11,0,0,1,3.93,1.64l2,1.64a5.12,5.12,0,0,1,2,4.1v17.16a5.14,5.14,0,0,1-2,4.1l-2,1.64a6.21,6.21,0,0,1-3.93,1.64H1074.3a6.29,6.29,0,0,1-3.94-1.64l-2-1.64a5.14,5.14,0,0,1-2-4.1V169h6.88v1.56a6.57,6.57,0,0,0,.13,1.59,2.52,2.52,0,0,0,.86,1,4.19,4.19,0,0,0,1.15.69,8.46,8.46,0,0,0,1.88.13h17.39a8.46,8.46,0,0,0,1.88-.13,4.19,4.19,0,0,0,1.15-.69,2.44,2.44,0,0,0,.86-1,6.1,6.1,0,0,0,.12-1.59V156.79a6.11,6.11,0,0,0-.12-1.6,2.44,2.44,0,0,0-.86-.94,3.78,3.78,0,0,0-1.15-.7,7.8,7.8,0,0,0-1.81-.12"/><polygon class="cls-6" points="1108.43 122.27 1151.72 122.27 1151.72 128.01 1133.43 128.01 1133.43 179.67 1126.54 179.67 1126.54 128.01 1108.43 128.01 1108.43 122.27"/><line class="cls-26" x1="782.34" y1="196.68" x2="1151.82" y2="196.68"/></g><text class="cls-27" transform="translate(903.81 227.66)">Connecting Brillian<tspan class="cls-28" x="217.92" y="0">c</tspan><tspan x="231.55" y="0">e</tspan></text></g></g></svg>