<svg xmlns="http://www.w3.org/2000/svg" xmlns:xlink="http://www.w3.org/1999/xlink" viewBox="0 0 1200 300"><defs><style>.cls-1,.cls-40{fill:none;}.cls-2{fill:url(#linear-gradient);}.cls-3{fill:url(#linear-gradient-2);}.cls-4{fill:url(#linear-gradient-3);}.cls-5{fill:url(#linear-gradient-4);}.cls-6{fill:url(#linear-gradient-5);}.cls-7{fill:url(#linear-gradient-6);}.cls-8{fill:url(#linear-gradient-7);}.cls-9{fill:url(#linear-gradient-8);}.cls-10{fill:url(#linear-gradient-9);}.cls-11{fill:url(#linear-gradient-10);}.cls-12{fill:url(#linear-gradient-11);}.cls-13{fill:url(#linear-gradient-12);}.cls-14{fill:url(#linear-gradient-13);}.cls-15{fill:url(#linear-gradient-14);}.cls-16{fill:url(#linear-gradient-15);}.cls-17{fill:url(#linear-gradient-16);}.cls-18{fill:url(#linear-gradient-17);}.cls-19{fill:url(#linear-gradient-18);}.cls-20{fill:url(#linear-gradient-19);}.cls-21{fill:url(#linear-gradient-20);}.cls-22{fill:#474f59;}.cls-23{fill:#ffdb7a;}.cls-24{fill:#353f49;}.cls-25{fill:#fdca5c;}.cls-26{fill:#f47b56;}.cls-27{fill:#338b89;}.cls-28{fill:#fff;}.cls-29{fill:#ffda7b;}.cls-30{fill:#7dd0dc;}.cls-31{fill:#ffcc3e;}.cls-32{fill:#da1f32;}.cls-33{fill:#e6e7e8;}.cls-34{fill:#bcbec0;}.cls-35{fill:#f15a2f;}.cls-36{fill:#d9d8d7;}.cls-37{fill:#329a99;}.cls-38{fill:#329292;}.cls-39{fill:#2e8584;}.cls-40{stroke:#353f49;stroke-miterlimit:10;}</style><linearGradient id="linear-gradient" x1="241.92" y1="299.34" x2="241.92" y2="0.28" gradientUnits="userSpaceOnUse"><stop offset="0" stop-color="#fff"/><stop offset="0" stop-color="#fff2eb"/><stop offset="0.04" stop-color="#feece0"/><stop offset="0.18" stop-color="#fad6b8"/><stop offset="0.33" stop-color="#f7c398"/><stop offset="0.48" stop-color="#f5b57e"/><stop offset="0.64" stop-color="#f3ab6c"/><stop offset="0.81" stop-color="#f2a561"/><stop offset="1" stop-color="#f2a35e"/></linearGradient><linearGradient id="linear-gradient-2" x1="1024.8" y1="299.34" x2="1024.8" y2="0.28" xlink:href="#linear-gradient"/><linearGradient id="linear-gradient-3" x1="1072.11" y1="299.34" x2="1072.11" y2="0.28" xlink:href="#linear-gradient"/><linearGradient id="linear-gradient-4" x1="1001.38" y1="299.34" x2="1001.38" y2="0.28" xlink:href="#linear-gradient"/><linearGradient id="linear-gradient-5" x1="1024.44" y1="299.34" x2="1024.44" y2="0.28" xlink:href="#linear-gradient"/><linearGradient id="linear-gradient-6" x1="290.4" y1="299.34" x2="290.4" y2="0.28" xlink:href="#linear-gradient"/><linearGradient id="linear-gradient-7" x1="515.79" y1="2.72" x2="515.79" y2="-2.16" xlink:href="#linear-gradient"/><linearGradient id="linear-gradient-8" x1="69.63" y1="299.34" x2="69.63" y2="0.28" xlink:href="#linear-gradient"/><linearGradient id="linear-gradient-9" x1="175.55" y1="299.34" x2="175.55" y2="0.28" xlink:href="#linear-gradient"/><linearGradient id="linear-gradient-10" x1="51" y1="299.34" x2="51" y2="0.28" xlink:href="#linear-gradient"/><linearGradient id="linear-gradient-11" x1="944.79" y1="299.34" x2="944.79" y2="0.28" xlink:href="#linear-gradient"/><linearGradient id="linear-gradient-12" x1="900.69" y1="299.34" x2="900.69" y2="0.28" xlink:href="#linear-gradient"/><linearGradient id="linear-gradient-13" x1="412.59" y1="299.34" x2="412.59" y2="0.28" xlink:href="#linear-gradient"/><linearGradient id="linear-gradient-14" x1="459.53" y1="2.72" x2="459.53" y2="-2.16" xlink:href="#linear-gradient"/><linearGradient id="linear-gradient-15" x1="1115.14" y1="299.34" x2="1115.14" y2="0.28" xlink:href="#linear-gradient"/><linearGradient id="linear-gradient-16" x1="914.83" y1="299.34" x2="914.83" y2="0.28" xlink:href="#linear-gradient"/><linearGradient id="linear-gradient-17" x1="1011.73" y1="299.34" x2="1011.73" y2="0.28" xlink:href="#linear-gradient"/><linearGradient id="linear-gradient-18" x1="961.51" y1="299.34" x2="961.51" y2="0.28" xlink:href="#linear-gradient"/><linearGradient id="linear-gradient-19" x1="908.47" y1="299.34" x2="908.47" y2="0.28" xlink:href="#linear-gradient"/><linearGradient id="linear-gradient-20" x1="915.32" y1="299.34" x2="915.32" y2="0.28" xlink:href="#linear-gradient"/></defs><title>coverPhotoProfile</title><g id="Layer_2" data-name="Layer 2"><g id="Layer_1-2" data-name="Layer 1"><path class="cls-1" d="M648.15,284.6a8.39,8.39,0,0,1,.13,2.17,8.19,8.19,0,0,0-.07-2.79l-4.41-22.49-.18,0Z"/><path class="cls-1" d="M550.89,197.05a8.38,8.38,0,0,0-5.55,3.85,8.45,8.45,0,0,1,5.27-3.42l6-1.19-.07-.36Z"/><path class="cls-1" d="M580.82,59.55l0-.09-36.54,7.18a10,10,0,0,0-2.58.91,9.78,9.78,0,0,1,2.29-.76Z"/><path class="cls-2" d="M248.8,54.58h-7.68c-.6,3.8-3.12,7.16-6.08,8.25V81.14C241,76,248.25,68.81,248.8,54.58Z"/><path class="cls-3" d="M1028.86,196.49a3.24,3.24,0,0,0-1-.75,2.66,2.66,0,0,0-1.21-.29h-6.8v6.73h6.62a2.83,2.83,0,0,0,1.26-.28,3.27,3.27,0,0,0,1-.73,3.56,3.56,0,0,0,.69-1.08,3.45,3.45,0,0,0,.25-1.26,3.65,3.65,0,0,0-.23-1.26A3.26,3.26,0,0,0,1028.86,196.49Z"/><path class="cls-4" d="M1072.32,197.05a5.16,5.16,0,0,0-2.92.75,2.29,2.29,0,0,0-1.13,2,2.65,2.65,0,0,0,.24,1.12,2.86,2.86,0,0,0,1.64,1.53,3.3,3.3,0,0,0,1.22.22,5.76,5.76,0,0,0,2.44-.5,4,4,0,0,0,1.69-1.32,1.6,1.6,0,0,0,.34-.49,1.32,1.32,0,0,0,.11-.49v-2.12a10.71,10.71,0,0,0-1.76-.5A9.64,9.64,0,0,0,1072.32,197.05Z"/><path class="cls-5" d="M1004.12,192.88a5.41,5.41,0,0,0-1.28-.68,4.2,4.2,0,0,0-1.39-.25,4.06,4.06,0,0,0-2,.47,4.53,4.53,0,0,0-1.46,1.21,5.28,5.28,0,0,0-.92,1.7,6,6,0,0,0-.31,1.92,5.38,5.38,0,0,0,.37,2,5.29,5.29,0,0,0,1,1.67,5,5,0,0,0,1.54,1.12,4.33,4.33,0,0,0,1.9.41,4.16,4.16,0,0,0,1.47-.27,4.73,4.73,0,0,0,1.32-.74,4.58,4.58,0,0,0,1-1,3.06,3.06,0,0,0,.53-1.17v-4a5.15,5.15,0,0,0-1.83-2.32Z"/><path class="cls-6" d="M1027.19,193.75a3.11,3.11,0,0,0,1-.72,3.53,3.53,0,0,0,.63-1,3.41,3.41,0,0,0,.22-1.24,3.8,3.8,0,0,0-.21-1.27,3.05,3.05,0,0,0-.6-1,3.26,3.26,0,0,0-.91-.7,2.63,2.63,0,0,0-1.16-.26h-6.24V194h6.1A2.66,2.66,0,0,0,1027.19,193.75Z"/><path class="cls-7" d="M545.34,200.9a8.38,8.38,0,0,1,5.55-3.85l5.69-1.12-10.41-53h0L534.8,85.07c-1.52-7.73,1.5-15,6.88-17.52a10,10,0,0,1,2.58-.91l36.54-7.18L569.27.77,571.8.28h-112A90.53,90.53,0,0,1,493,119h1.09v4.56h-3.62a89.07,89.07,0,0,1-5.82,8.66V133h-.6a90.51,90.51,0,0,1-117.64,22.38l-2.89,6.51-1.91-.85,3-6.76a90.51,90.51,0,0,1,.77-154H205a7.27,7.27,0,1,1-12.11,0H102.6A88.24,88.24,0,0,1,0,143.86v61.08l110.91-27.58a15.37,15.37,0,0,1,3.77-.46A16.07,16.07,0,0,1,131,189.08l21,84.25a16.09,16.09,0,0,1-11.72,19.49L114,299.34H326.14v-4.22h-5.79v-2.49h-1.52v-2.51h1.52v-2.49h-1.52v-2.5h1.52v-2.51h-1.52v-2.49h1.52v-2.51h1.73V270a29.45,29.45,0,0,0-9.65-21.83l-1.09-.94a37.92,37.92,0,1,1,51.12,0l-1.09.94A29.45,29.45,0,0,0,351.72,270v7.65h1.73v2.51H355v2.49h-1.5v2.51H355v2.5h-1.5v2.49H355v2.51h-1.5v2.49h-5.79v4.22H562l-18.06-91.93A8.45,8.45,0,0,1,545.34,200.9Zm-510-28.24a6,6,0,1,1,6-6A6,6,0,0,1,35.38,172.66ZM139.24,33.17a3.5,3.5,0,1,1,3.51-3.5A3.51,3.51,0,0,1,139.24,33.17Zm130.49,163.1,7.4,2.41-.64,2-7.4-2.4Zm-3.3,14.46,7.73.82-.21,2.08-7.73-.81ZM233.51,15.25a9.83,9.83,0,1,1-9.83,9.83A9.84,9.84,0,0,1,233.51,15.25Zm-29,3.85a3.46,3.46,0,1,1-3.45,3.46A3.46,3.46,0,0,1,204.52,19.1ZM176.2,27.27a4.84,4.84,0,1,1-4.84,4.84A4.84,4.84,0,0,1,176.2,27.27Zm-7.87,219.92a3.49,3.49,0,1,1,3.5-3.5A3.5,3.5,0,0,1,168.33,247.19Zm84-194.35c0,18-9.79,26.46-16.26,32l-1.16,1a26.3,26.3,0,0,1-20.53,22.91h0v3.15a3.41,3.41,0,0,1-3.43,3.42v2.71a11,11,0,0,0,11,11v3.77h8.47l8.5,8.5v25.48h5.45v4.76H173.05v-4.76h5.42V141.37l8.51-8.5h8.5V129.1a11,11,0,0,0,11-11v-2.71a3.43,3.43,0,0,1-2.42-1,3.47,3.47,0,0,1-1-2.43v-3.15h0a26.3,26.3,0,0,1-20.53-22.91l-1.16-1c-6.47-5.55-16.26-14-16.26-32V51.1h14.52v1.74a7.92,7.92,0,0,0,2.75,6V46.41h-2.75V40.29h58.11v6.12H235V58.87a7.92,7.92,0,0,0,2.75-6V51.1h14.52Zm13.91,172.73,7.73-.81.21,2.08-7.73.82Zm2.87,14.56,7.4-2.4.64,2-7.4,2.41ZM276,255.58l-1-1.8,6.74-3.89,1,1.8Zm5.7-67.06-6.74-3.91,1-1.8,6.74,3.89Zm3.2,78.94-1.39-1.55,5.78-5.21,1.39,1.55Zm4.38-89.77-5.77-5.2,1.39-1.56,5.78,5.21Zm21,98.81,1.91.84L309,284.45l-1.91-.85Zm-9.65-5.58-4.57,6.3L294.35,276l4.57-6.3Zm-1.68-102.23-4.57-6.3,1.68-1.22,4.57,6.3Zm-3-26.95a6.12,6.12,0,1,1,6.13-6.13A6.12,6.12,0,0,1,296,141.74Zm14.29,20.16-3.17-7.11,1.91-.85,3.17,7.11Zm5.54-128.25a2.49,2.49,0,1,1,2.49-2.49A2.51,2.51,0,0,1,315.79,33.65Zm6.95,124L321.12,150l2-.44,1.62,7.62Zm15.2-1.6h-2.08v-7.78h2.08Zm13.12,1.6-2-.43,1.61-7.61,2.05.43Zm53.65,40.65-7.39,2.4-.65-2,7.4-2.41Zm-6.87-15.45,1,1.81-6.74,3.9-1-1.82Zm-33,101.64-3.16-7.11,1.9-.84,3.17,7.1Zm13-7.23-4.58-6.3,1.69-1.22,4.58,6.3Zm-2.88-108.53-1.69-1.22,4.57-6.3,1.69,1.23Zm14.05,98.77-5.78-5.21,1.39-1.55,5.78,5.21Zm-4.38-89.77-1.4-1.55,5.78-5.21,1.39,1.56Zm13.28,77.89-6.74-3.89,1-1.8,6.74,3.89Zm6.23-13.46-7.4-2.41.64-2,7.4,2.39Zm3.3-14.46-7.74-.82.22-2.07,7.73.8Zm-7.52-14-.22-2.08,7.74-.82.21,2.09Zm66.94,31a2.49,2.49,0,1,1,2.49-2.49A2.51,2.51,0,0,1,466.79,244.65ZM494.13,133h-4.88v-4.87h4.88Zm13.25,64.65a6,6,0,1,1,6-6A6,6,0,0,1,507.38,197.66Z"/><polygon class="cls-8" points="571.8 0.28 571.8 0.28 459.77 0.28 459.77 0.28 571.8 0.28"/><path class="cls-9" d="M96.32,147.57A88.24,88.24,0,0,0,102.6.28H18.34l6.11,10.21,1.25-.75,4.74,7.92L13,28.13,8.21,20.21l1.24-.74L0,3.67V33.34l1.3,1c-.45.59-.87,1.21-1.3,1.82v74.48l1.41-1.06a62.87,62.87,0,0,0,4.34,5.13l-2.19,2.07c-1.24-1.31-2.42-2.71-3.56-4.13v31.23A88.23,88.23,0,0,0,96.32,147.57ZM61.39,136.36l-.48-3A59.66,59.66,0,0,0,67.48,132l.8,2.91A62.67,62.67,0,0,1,61.39,136.36ZM75,132.63l-1.11-2.81A63.7,63.7,0,0,0,80,127l1.4,2.67A67.56,67.56,0,0,1,75,132.63Zm12.47-6.56-1.68-2.51a62.76,62.76,0,0,0,5.37-4l2,2.31A67,67,0,0,1,87.44,126.07Zm25.34-33-2.86-1a61.22,61.22,0,0,0,1.84-6.48l2.94.67A63.8,63.8,0,0,1,112.78,93.06Zm3.11-13.73-3-.35a60.27,60.27,0,0,0,.41-6.71l3,0A66.34,66.34,0,0,1,115.89,79.33Zm.1-14.09-3,.31a64.74,64.74,0,0,0-1-6.65l3-.63A63.11,63.11,0,0,1,116,65.24Zm-5.5-20.35a65.71,65.71,0,0,1,2.57,6.57l-2.87.95a62.12,62.12,0,0,0-2.45-6.27Zm-.35,54.72a67.62,67.62,0,0,1-3.34,6.22l-2.57-1.57a63.62,63.62,0,0,0,3.17-5.93Zm-6.82-66.84c1.32,1.77,2.57,3.64,3.72,5.55l.19.33-2.6,1.52-.18-.3a61.93,61.93,0,0,0-3.55-5.3Zm-.5,78.88a65,65,0,0,1-4.6,5.36L96,114.92a62.87,62.87,0,0,0,4.39-5.11Zm-9.1-89.2a63.5,63.5,0,0,1,5.09,4.9l-2.22,2a61,61,0,0,0-4.84-4.67Zm-11.6-8a65.94,65.94,0,0,1,6,3.69l-1.72,2.48a61.9,61.9,0,0,0-5.73-3.52Zm-13-5.33a68.07,68.07,0,0,1,6.66,2.31l-1.14,2.8A62.1,62.1,0,0,0,68.24,12ZM55.2,6.69a68.55,68.55,0,0,1,7,.84l-.52,3A60,60,0,0,0,55,9.71Zm-7.06-.07.13,3a62.6,62.6,0,0,0-6.69.66l-.45-3A66,66,0,0,1,48.14,6.62ZM14.3,125.9a64.54,64.54,0,0,1-5.62-4.28l2-2.29A61.94,61.94,0,0,0,16,123.4Zm-3.48-30a46.83,46.83,0,0,1,11.54-61.1l-5.43-9.07,9.53-5.7,5.43,9.07a46.83,46.83,0,1,1-21.07,66.8ZM26.74,132.5a67.46,67.46,0,0,1-6.4-3l1.41-2.67a62.59,62.59,0,0,0,6.11,2.83Zm13.57,3.79a65.19,65.19,0,0,1-6.89-1.53l.82-2.91a61.5,61.5,0,0,0,6.56,1.47Zm7.18-2.23a60.43,60.43,0,0,0,6.73,0l.15,3a66.32,66.32,0,0,1-7,0Z"/><path class="cls-10" d="M176.34,54.58h-7.67c.55,14.23,7.82,21.39,13.76,26.56V62.83C179.47,61.74,177,58.38,176.34,54.58Z"/><path class="cls-11" d="M70.52,104.47A38,38,0,1,0,18.39,91.38,38,38,0,0,0,70.52,104.47ZM49.87,99.7c-.58,0-1.15-.06-1.72-.12h0c-.56-.06-1.12-.14-1.68-.23l-.22,0c-.49-.08-1-.18-1.45-.29l-.24,0a28,28,0,0,1-3.23-1l-.09,0-.13,0c-.52-.2-1-.41-1.54-.64l-.1,0a27.82,27.82,0,0,1-9.41-7v0h0c-.13-.14-.24-.3-.36-.45-.28-.33-.56-.67-.81-1a24.57,24.57,0,0,1-1.78-2.58,27.88,27.88,0,0,1-3.56-9.66c0-.16-.05-.32-.07-.48a27.9,27.9,0,0,1,5.9-21.69,4.13,4.13,0,0,1,.27-.34,26.37,26.37,0,0,1,2.29-2.45l.11-.12.19-.16c.48-.44,1-.86,1.49-1.27L33.8,50c.58-.46,1.17-.89,1.79-1.3l.37-.23.66-.42.07,0,.12-.06a25.43,25.43,0,0,1,5.86-2.62l.8-.22-.07,0A27.85,27.85,0,0,1,75.73,84.71h0c-.27.53-.56,1-.86,1.55l0,0A27.84,27.84,0,0,1,53.3,99.63h0c-.54,0-1.08.07-1.62.08h-.09c-.55,0-1.11,0-1.66,0Z"/><path class="cls-12" d="M948,193.1a4.75,4.75,0,0,0-1.48-1,4.63,4.63,0,0,0-1.78-.35,4.69,4.69,0,0,0-1.8.35,4.57,4.57,0,0,0-1.49,1,4.83,4.83,0,0,0-1,1.5,6,6,0,0,0-.46,1.9h9.58a5.38,5.38,0,0,0-.49-1.91A5.55,5.55,0,0,0,948,193.1Z"/><path class="cls-13" d="M904,193.49a4.91,4.91,0,0,0-1.52-1.12,4.2,4.2,0,0,0-3.66,0,4.71,4.71,0,0,0-1.5,1.13,5.67,5.67,0,0,0-1.4,3.75,5.41,5.41,0,0,0,.38,2,5.31,5.31,0,0,0,1,1.65,4.32,4.32,0,0,0,1.5,1.11,4.26,4.26,0,0,0,1.84.4,4.09,4.09,0,0,0,1.83-.41,4.91,4.91,0,0,0,1.52-1.12,5.43,5.43,0,0,0,1-1.67,5.64,5.64,0,0,0-1-5.76Z"/><path class="cls-14" d="M322.09,77.52a90.42,90.42,0,0,0,42.56,76.77l.16-.34,1.91.84-.27.6A90.51,90.51,0,0,0,484.09,133h-4v-4.87h4.56v4.09a89.07,89.07,0,0,0,5.82-8.66h-1.26V119H493A90.53,90.53,0,0,0,459.77.28H433.32V39.77a6.93,6.93,0,0,1-.25,1.84h0l0,.12c0,.1-.07.2-.11.31a2.79,2.79,0,0,1-.14.37c0,.09-.08.18-.12.27l-.15.32-.24.42-9.25,16a20.89,20.89,0,1,1-20.87,0l-9.25-16-.24-.42-.14-.3c0-.1-.1-.19-.14-.29s-.09-.24-.13-.36-.08-.22-.11-.33,0-.07,0-.11h0a6.93,6.93,0,0,1-.26-1.84V.28H365.42A90.42,90.42,0,0,0,322.09,77.52Zm167.16,4.67h4.88v4.87h-4.88Zm0,9.44h4.88v4.56h-4.88Zm0,9.13h4.88v4.56h-4.88Zm0,9.12h4.88v4.57h-4.88ZM457.31,133h-4.57v-4.87h4.57Zm9.12,0h-4.56v-4.87h4.56Zm9.13,0H471v-4.87h4.56Zm4.57-50.82h4.56v4.87h-4.56Zm-9.13,0h4.56v4.87H471Zm-9.13,0h4.57v4.87h-4.57Zm18.68,13.58v23.67H456.88V95.77Zm-27.81-8.71V82.19h4.57v4.87Zm-.33-28.41a5.57,5.57,0,1,1-5.57,5.57A5.56,5.56,0,0,1,452.41,58.65Zm-9.1,23.54h4.87v4.87h-4.87Zm0,9.44h4.87v4.56h-4.87Zm0,9.13h4.87v4.56h-4.87Zm0,9.13h4.87v4.56h-4.87Zm0,9.12h4.87v4.57h-4.87Zm0,9.13h4.87V133h-4.87Zm-8.11.71-9.74,16.88-9.75-16.88ZM386.1,97.26v39.55L346.54,97.26Zm-26.78-10.8H347V74.16h12.3Z"/><polygon class="cls-15" points="459.77 0.28 459.77 0.28 459.29 0.28 459.29 0.28 459.77 0.28"/><path class="cls-16" d="M1118.39,193.1a4.75,4.75,0,0,0-1.48-1,4.64,4.64,0,0,0-1.79-.35,4.77,4.77,0,0,0-1.8.35,4.63,4.63,0,0,0-1.48,1,4.83,4.83,0,0,0-1,1.5,5.7,5.7,0,0,0-.46,1.9h9.57a5.37,5.37,0,0,0-.48-1.91A5.55,5.55,0,0,0,1118.39,193.1Z"/><path class="cls-17" d="M922.34,123.61a4.4,4.4,0,0,0,1.27-.78l2.12-1.73a3.91,3.91,0,0,0,1.14-1.22,6.12,6.12,0,0,0,.17-1.81V107.41a7.19,7.19,0,0,0-.12-1.6,2.68,2.68,0,0,0-.86-.94,4.38,4.38,0,0,0-1.15-.7,10,10,0,0,0-1.89-.12H902.61v19.68h17.8A9,9,0,0,0,922.34,123.61Z"/><path class="cls-18" d="M996.72,149.2a3.91,3.91,0,0,0,1.14.69,8,8,0,0,0,1.89.13h24a8,8,0,0,0,1.89-.13,4,4,0,0,0,1.14-.69,2.55,2.55,0,0,0,.87-1,6.51,6.51,0,0,0,.1-1.59v-39.2a7.19,7.19,0,0,0-.12-1.6,2.7,2.7,0,0,0-.87-.94,4.32,4.32,0,0,0-1.14-.7,9.8,9.8,0,0,0-1.87-.12H999.79a10,10,0,0,0-1.89.12,4.17,4.17,0,0,0-1.14.7,2.53,2.53,0,0,0-.87.94,6.69,6.69,0,0,0-.16,1.6v39.2a6,6,0,0,0,.12,1.59A2.4,2.4,0,0,0,996.72,149.2Z"/><path class="cls-19" d="M946.5,149.2a3.75,3.75,0,0,0,1.15.69,7.49,7.49,0,0,0,1.89.13h23.94a8,8,0,0,0,1.89-.13,4,4,0,0,0,1.14-.69,2.39,2.39,0,0,0,.86-1,5.64,5.64,0,0,0,.13-1.59v-39.2a6.18,6.18,0,0,0-.13-1.6,2.51,2.51,0,0,0-.86-.94,4.32,4.32,0,0,0-1.14-.7,10,10,0,0,0-1.89-.12H949.54a9.19,9.19,0,0,0-1.89.12,4.22,4.22,0,0,0-1.15.7,2.59,2.59,0,0,0-.86.94,6.17,6.17,0,0,0-.12,1.6v39.2a6,6,0,0,0,.12,1.59A2.45,2.45,0,0,0,946.5,149.2Z"/><path class="cls-20" d="M629.66.28l46.72,237.81a21.2,21.2,0,0,1,.38,3.75c.28,7.46-3.6,13.88-9.55,15l-23.41,4.6L648.21,284a8.19,8.19,0,0,1,.07,2.79,8.44,8.44,0,0,1-6.8,7.75L617,299.34H1200V.28Zm451.07,98H1124v5.74h-18.29v51.66h-6.89V104.05h-18.11Zm-42.07,46.74h6.88v1.56a6,6,0,0,0,.13,1.59,2.45,2.45,0,0,0,.86,1,3.75,3.75,0,0,0,1.15.69,7.9,7.9,0,0,0,1.88.13H1067a7.9,7.9,0,0,0,1.88-.13,3.75,3.75,0,0,0,1.15-.69,2.45,2.45,0,0,0,.86-1,7,7,0,0,0,.12-1.59V132.83a7.19,7.19,0,0,0-.12-1.6,2.59,2.59,0,0,0-.86-.94,4.22,4.22,0,0,0-1.15-.7,9.18,9.18,0,0,0-1.81-.12h-19.6a6.16,6.16,0,0,1-3.94-1.64l-2.21-1.89a4.11,4.11,0,0,1-1.72-3.28v-17a5.14,5.14,0,0,1,2-4.1l2-1.64a6.18,6.18,0,0,1,3.87-1.61h21.81a6.26,6.26,0,0,1,3.93,1.64l2,1.64a5.14,5.14,0,0,1,2,4.1V109h-6.89v-1.56a7.19,7.19,0,0,0-.12-1.6,2.59,2.59,0,0,0-.86-.94,4.22,4.22,0,0,0-1.15-.7,9.85,9.85,0,0,0-1.88-.12h-15.81a9.85,9.85,0,0,0-1.88.12,4.22,4.22,0,0,0-1.15.7,2.59,2.59,0,0,0-.86.94,6.18,6.18,0,0,0-.13,1.6v13a6.11,6.11,0,0,0,.13,1.6,2.51,2.51,0,0,0,.86.94,4,4,0,0,0,1.15.7,8.45,8.45,0,0,0,1.88.12h19.6a6.26,6.26,0,0,1,3.93,1.64l2,1.64a5.14,5.14,0,0,1,2,4.1v17.16a5.13,5.13,0,0,1-2,4.1l-2,1.64a6.15,6.15,0,0,1-3.93,1.64H1046.6a6.16,6.16,0,0,1-3.94-1.64l-2-1.64a5.13,5.13,0,0,1-2-4.1Zm-49.87-39.36a5.14,5.14,0,0,1,2-4.1l2-1.64a6.13,6.13,0,0,1,3.94-1.64h30a6.19,6.19,0,0,1,4,1.64l2,1.64a5.14,5.14,0,0,1,2,4.1v42.62a5.13,5.13,0,0,1-2,4.1l-2,1.64a6.16,6.16,0,0,1-4,1.66h-30a6.13,6.13,0,0,1-3.94-1.64l-2-1.64a5.13,5.13,0,0,1-2-4.1Zm-50.22,0a5.14,5.14,0,0,1,2-4.1l2-1.64a6.24,6.24,0,0,1,3.93-1.64h30a6.29,6.29,0,0,1,3.94,1.64l2,1.64a5.14,5.14,0,0,1,2,4.1v42.62a5.13,5.13,0,0,1-2,4.1l-2,1.64a6.18,6.18,0,0,1-3.94,1.64h-30a6.13,6.13,0,0,1-3.93-1.64l-2-1.64a5.13,5.13,0,0,1-2-4.1Zm-42.84-7.38h30.34A6.26,6.26,0,0,1,930,100l2,1.64a5.14,5.14,0,0,1,2,4.1v14a3.43,3.43,0,0,1-1.31,2.79l-2.79,2.13a3.9,3.9,0,0,1-2.36,1.09v.41a3.93,3.93,0,0,1,2.3,1.06l3.93,3.2a3.39,3.39,0,0,1,1,1.19,7.12,7.12,0,0,1,.2,2v14.75a5.12,5.12,0,0,1-2,4.1c-.44.33-1.09.87-2,1.64a6.15,6.15,0,0,1-3.93,1.64H895.73Zm-47.28,0h43.28v5.74h-18.2v51.66h-6.89V104.05H848.45Zm-40.23,0H845v5.74H815.11v19.68h25.26v5.74H815.11V150H845v5.74H808.22Zm-47.49,0h6.89l30,46.74.24-.08a13.81,13.81,0,0,1-.57-3.94V98.31h6.89v57.4H797.3l-30-46.08-.25.08a14.16,14.16,0,0,1,.58,3.93v42.07h-6.9ZM891.28,201.49a8,8,0,0,1-1.73,1.29,8.35,8.35,0,0,1-2,.8,8.5,8.5,0,0,1-2.09.27,7,7,0,0,1-3.35-.8,8.58,8.58,0,0,1-2.62-2.08,9.51,9.51,0,0,1-1.77-9.45,8.83,8.83,0,0,1,1.64-2.84,8.57,8.57,0,0,1,2.65-2,8,8,0,0,1,3.58-.79,7.39,7.39,0,0,1,4.06,1.08,6.64,6.64,0,0,1,2.49,2.8l-1.38.85a5.23,5.23,0,0,0-1-1.48,5.49,5.49,0,0,0-1.31-1,5.66,5.66,0,0,0-1.45-.54,6.82,6.82,0,0,0-1.47-.16,6,6,0,0,0-2.83.65,6.43,6.43,0,0,0-2.06,1.7,7.36,7.36,0,0,0-1.26,2.36,8.41,8.41,0,0,0-.43,2.66,7.93,7.93,0,0,0,.51,2.83,8.22,8.22,0,0,0,1.4,2.39,7,7,0,0,0,2.1,1.65,5.76,5.76,0,0,0,2.64.61,6.42,6.42,0,0,0,1.54-.19,5.6,5.6,0,0,0,1.52-.6,6.1,6.1,0,0,0,1.37-1,5.68,5.68,0,0,0,1-1.49l1.45.75A5.61,5.61,0,0,1,891.28,201.49Zm15.4-1.69a6.68,6.68,0,0,1-1.34,2.15,6.19,6.19,0,0,1-4.66,2,6.15,6.15,0,0,1-4.64-2,6.51,6.51,0,0,1-1.34-2.15,6.94,6.94,0,0,1-.47-2.57,6.89,6.89,0,0,1,1.83-4.75,6.68,6.68,0,0,1,2-1.48,6.09,6.09,0,0,1,2.58-.55,6.15,6.15,0,0,1,2.58.55,6.49,6.49,0,0,1,2,1.48,6.64,6.64,0,0,1,1.35,2.15,6.87,6.87,0,0,1,.49,2.6A7.14,7.14,0,0,1,906.68,199.8ZM921,203.7h-1.7v-7.27a6.35,6.35,0,0,0-.69-3.38,2.35,2.35,0,0,0-2.11-1.05,4.42,4.42,0,0,0-1.5.28,5.13,5.13,0,0,0-1.39.77,6.1,6.1,0,0,0-1.13,1.19,4.59,4.59,0,0,0-.73,1.49v8H910v-13h1.55v2.95a6.09,6.09,0,0,1,2.29-2.3,6.3,6.3,0,0,1,3.24-.88,3.91,3.91,0,0,1,1.82.4,3.18,3.18,0,0,1,1.2,1.13,5.06,5.06,0,0,1,.65,1.77,12.81,12.81,0,0,1,.2,2.33Zm14.58,0h-1.7v-7.27a6.35,6.35,0,0,0-.69-3.38A2.35,2.35,0,0,0,931,192a4.42,4.42,0,0,0-1.5.28,5,5,0,0,0-1.39.77,5.86,5.86,0,0,0-1.14,1.19,4.78,4.78,0,0,0-.72,1.49v8h-1.7v-13h1.55v2.95a6.06,6.06,0,0,1,2.28-2.3,6.33,6.33,0,0,1,3.24-.88,3.93,3.93,0,0,1,1.83.4,3.18,3.18,0,0,1,1.2,1.13,5.27,5.27,0,0,1,.65,1.77,12.81,12.81,0,0,1,.2,2.33Zm15.67-6.17a1.47,1.47,0,0,1,0,.27H940a5.59,5.59,0,0,0,.48,1.94,5.3,5.3,0,0,0,1.07,1.54,4.69,4.69,0,0,0,1.48,1,4.65,4.65,0,0,0,3,.19,5.15,5.15,0,0,0,1.15-.48,4.22,4.22,0,0,0,1-.73,3.24,3.24,0,0,0,.65-1l1.48.4a4.52,4.52,0,0,1-.85,1.32,6.11,6.11,0,0,1-1.28,1,6.37,6.37,0,0,1-1.6.68,6.83,6.83,0,0,1-1.82.23,6.46,6.46,0,0,1-2.62-.53,6.34,6.34,0,0,1-2.06-1.48,6.71,6.71,0,0,1-1.36-2.16,7,7,0,0,1-.49-2.63,6.77,6.77,0,0,1,.49-2.58,6.55,6.55,0,0,1,1.35-2.13,6.34,6.34,0,0,1,2.06-1.45,6.35,6.35,0,0,1,7.25,1.46,6.9,6.9,0,0,1,1.33,2.13,7,7,0,0,1,.47,2.55ZM964.08,202a5.63,5.63,0,0,1-1.24,1,6.23,6.23,0,0,1-1.58.68,6.59,6.59,0,0,1-1.78.23,6.5,6.5,0,0,1-2.63-.53,6.27,6.27,0,0,1-2.07-1.48,6.74,6.74,0,0,1-1.37-2.16,7.44,7.44,0,0,1,0-5.23,6.52,6.52,0,0,1,1.34-2.13A6.17,6.17,0,0,1,956.8,191a6.53,6.53,0,0,1,2.65-.53,6.1,6.1,0,0,1,3.23.84,5.44,5.44,0,0,1,2.07,2.26l-1.65.53a3.92,3.92,0,0,0-1.54-1.56,4.25,4.25,0,0,0-2.18-.57,4.51,4.51,0,0,0-1.87.4,4.9,4.9,0,0,0-1.5,1.09,5.12,5.12,0,0,0-1,1.64,6,6,0,0,0,0,4.15,5.41,5.41,0,0,0,1,1.69,4.87,4.87,0,0,0,1.51,1.12,4.16,4.16,0,0,0,1.84.41,4.36,4.36,0,0,0,1.24-.17,4.84,4.84,0,0,0,1.14-.49,4,4,0,0,0,.9-.71,2.33,2.33,0,0,0,.52-.85l1.68.5A4.47,4.47,0,0,1,964.08,202Zm9.28,1.26c-.19.08-.41.17-.66.25a7,7,0,0,1-.85.22,4.65,4.65,0,0,1-1,.1,3.6,3.6,0,0,1-1.05-.15,2.42,2.42,0,0,1-.87-.46,2.27,2.27,0,0,1-.6-.79,2.51,2.51,0,0,1-.23-1.1V192h-1.8v-1.35h1.8v-4.4h1.7v4.4h3V192h-3v8.85a1.33,1.33,0,0,0,.51,1.06,1.75,1.75,0,0,0,1.07.34,3.16,3.16,0,0,0,1.27-.24,5.06,5.06,0,0,0,.7-.34l.45,1.38Zm4.27.42h-1.7v-13h1.7Zm0-15.75h-1.7v-2.5h1.7Zm14.7,15.75h-1.71v-7.27a6.36,6.36,0,0,0-.68-3.38,2.35,2.35,0,0,0-2.11-1.05,4.42,4.42,0,0,0-1.5.28,5,5,0,0,0-1.39.77,5.86,5.86,0,0,0-1.14,1.19,4.57,4.57,0,0,0-.72,1.49v8h-1.7v-13h1.54v2.95a6.16,6.16,0,0,1,2.29-2.3,6.3,6.3,0,0,1,3.24-.88,3.93,3.93,0,0,1,1.83.4,3.15,3.15,0,0,1,1.19,1.13,4.87,4.87,0,0,1,.65,1.77,11.94,11.94,0,0,1,.21,2.33Zm15.32.05a5.35,5.35,0,0,1-.51,2.39,5.12,5.12,0,0,1-1.38,1.74,5.72,5.72,0,0,1-2,1.05,8.66,8.66,0,0,1-2.46.35,7.23,7.23,0,0,1-3.63-.8,6.38,6.38,0,0,1-2.23-2.15l1.06-.83a4.55,4.55,0,0,0,2,1.84,6.5,6.5,0,0,0,2.75.59,6.27,6.27,0,0,0,1.8-.26,4.55,4.55,0,0,0,1.48-.78,3.56,3.56,0,0,0,1-1.3,4.23,4.23,0,0,0,.37-1.84v-2.57a5.39,5.39,0,0,1-2.05,2,5.57,5.57,0,0,1-5.19.17,6.36,6.36,0,0,1-1.92-1.49,7.08,7.08,0,0,1-1.71-4.6,7.78,7.78,0,0,1,.43-2.59,6.78,6.78,0,0,1,1.24-2.16,6,6,0,0,1,1.91-1.48,5.58,5.58,0,0,1,2.46-.55,5,5,0,0,1,2.91.84,8.07,8.07,0,0,1,2.09,2.11v-2.72h1.53Zm23.43-2.78a4.7,4.7,0,0,1-1.08,1.45,4.89,4.89,0,0,1-1.57,1,5.59,5.59,0,0,1-1.93.33h-8.38V186h8.56a3.58,3.58,0,0,1,1.67.4,4.17,4.17,0,0,1,1.27,1,4.61,4.61,0,0,1,.82,1.45,4.93,4.93,0,0,1,.29,1.64,4.65,4.65,0,0,1-.68,2.46,4.13,4.13,0,0,1-1.87,1.66,4.44,4.44,0,0,1,2.41,1.68,4.76,4.76,0,0,1,.89,2.85A4.31,4.31,0,0,1,1031.08,201Zm9.84-8.79a5.32,5.32,0,0,0-3,.95,4.83,4.83,0,0,0-1.8,2.47v8.1h-1.7v-13h1.6v3.12a6.06,6.06,0,0,1,2-2.35,4.6,4.6,0,0,1,2.63-.85,1.39,1.39,0,0,1,.32,0Zm4,11.52h-1.7v-13h1.7Zm0-15.75h-1.7v-2.5h1.7Zm7.54,15.78a7.12,7.12,0,0,1-1.19.12,2.54,2.54,0,0,1-1.85-.66,2.49,2.49,0,0,1-.68-1.86V185.45h1.7v15.3a1.58,1.58,0,0,0,.4,1.14,1.5,1.5,0,0,0,1.13.41,3.36,3.36,0,0,0,.65-.07,4.77,4.77,0,0,0,.7-.2l.3,1.37A5,5,0,0,1,1052.44,203.73Zm6.8,0a7.12,7.12,0,0,1-1.19.12,2.54,2.54,0,0,1-1.85-.66,2.49,2.49,0,0,1-.68-1.86V185.45h1.7v15.3a1.58,1.58,0,0,0,.4,1.14,1.5,1.5,0,0,0,1.13.41,3.36,3.36,0,0,0,.65-.07,4.77,4.77,0,0,0,.7-.2l.3,1.37A5,5,0,0,1,1059.24,203.73Zm4.71,0h-1.7v-13h1.7Zm0-15.75h-1.7v-2.5h1.7Zm14.32,15.75a4.14,4.14,0,0,1-.65.08,1.45,1.45,0,0,1-1-.33,1.22,1.22,0,0,1-.39-.9l0-1a6,6,0,0,1-2.26,1.8,6.92,6.92,0,0,1-2.94.62,4.6,4.6,0,0,1-1.71-.31,4.3,4.3,0,0,1-1.37-.86,3.91,3.91,0,0,1-.92-1.29,4,4,0,0,1-.32-1.59,3.16,3.16,0,0,1,.4-1.57,3.79,3.79,0,0,1,1.12-1.25,5.53,5.53,0,0,1,1.73-.81,8,8,0,0,1,2.2-.29,12.71,12.71,0,0,1,2,.17,9.3,9.3,0,0,1,1.83.5v-1.17a3.8,3.8,0,0,0-1-2.74,3.59,3.59,0,0,0-2.7-1,5.69,5.69,0,0,0-2,.4,9.85,9.85,0,0,0-2.12,1.15l-.6-1.13a8.8,8.8,0,0,1,4.9-1.7,5.26,5.26,0,0,1,3.85,1.38,5.1,5.1,0,0,1,1.4,3.8v5.87c0,.47.21.7.62.7Zm14,0h-1.7v-7.27a6.46,6.46,0,0,0-.68-3.38,2.36,2.36,0,0,0-2.12-1.05,4.42,4.42,0,0,0-1.5.28,4.93,4.93,0,0,0-1.38.77,5.86,5.86,0,0,0-1.14,1.19,4.8,4.8,0,0,0-.73,1.49v8h-1.7v-13h1.55v2.95a6.16,6.16,0,0,1,2.29-2.3,6.3,6.3,0,0,1,3.24-.88,3.91,3.91,0,0,1,1.82.4,3.18,3.18,0,0,1,1.2,1.13,5.06,5.06,0,0,1,.65,1.77,12,12,0,0,1,.2,2.33Zm13.88-1.68a5.41,5.41,0,0,1-1.24,1,6.16,6.16,0,0,1-1.57.68,6.66,6.66,0,0,1-1.79.23,6.5,6.5,0,0,1-2.63-.53,6.27,6.27,0,0,1-2.07-1.48,6.54,6.54,0,0,1-1.36-2.16,7,7,0,0,1-.49-2.63,7.31,7.31,0,0,1,.47-2.6,6.69,6.69,0,0,1,1.34-2.13,6.27,6.27,0,0,1,2.06-1.44,6.57,6.57,0,0,1,2.65-.53,6.07,6.07,0,0,1,3.23.84,5.31,5.31,0,0,1,2.07,2.26l-1.65.53a3.89,3.89,0,0,0-1.53-1.56,4.31,4.31,0,0,0-2.19-.57,4.43,4.43,0,0,0-1.86.4,4.67,4.67,0,0,0-1.5,1.09,5,5,0,0,0-1,1.64,5.56,5.56,0,0,0-.37,2.07,5.73,5.73,0,0,0,.38,2.08,5.41,5.41,0,0,0,1,1.69,4.91,4.91,0,0,0,1.52,1.12,4.09,4.09,0,0,0,1.83.41,4.36,4.36,0,0,0,1.24-.17,4.84,4.84,0,0,0,1.14-.49,4,4,0,0,0,.9-.71,2.33,2.33,0,0,0,.52-.85l1.68.5A4.47,4.47,0,0,1,1106.15,202Zm15.4-4.49a.82.82,0,0,1,0,.27h-11.15a5.6,5.6,0,0,0,.49,1.94,5.48,5.48,0,0,0,1.06,1.54,4.85,4.85,0,0,0,1.49,1,4.47,4.47,0,0,0,1.79.36,4.53,4.53,0,0,0,1.25-.17,5.36,5.36,0,0,0,1.15-.48,4.45,4.45,0,0,0,1-.73,3.24,3.24,0,0,0,.65-1l1.47.4a4.32,4.32,0,0,1-.85,1.32,5.8,5.8,0,0,1-1.27,1,6.53,6.53,0,0,1-1.6.68,6.9,6.9,0,0,1-1.83.23,6.2,6.2,0,0,1-4.67-2,6.54,6.54,0,0,1-1.36-2.16,7,7,0,0,1-.49-2.63,6.77,6.77,0,0,1,.49-2.58,6.55,6.55,0,0,1,1.35-2.13,6.34,6.34,0,0,1,2.06-1.45,6.55,6.55,0,0,1,5.21,0,6.39,6.39,0,0,1,2,1.46,7,7,0,0,1,1.8,4.68Z"/><path class="cls-21" d="M927.91,148.19a7,7,0,0,0,.12-1.59V135a5.84,5.84,0,0,0-.16-1.72,4.24,4.24,0,0,0-1.23-1.23l0,0-1.8-1.48a5.54,5.54,0,0,0-1.4-.94,7.51,7.51,0,0,0-1.64-.12H902.61V150H924a7.9,7.9,0,0,0,1.88-.13,3.75,3.75,0,0,0,1.15-.69A2.45,2.45,0,0,0,927.91,148.19Z"/><path class="cls-22" d="M187,132.87l-8.51,34H239l-8.5-34H187Zm37.52,9.79v14.4H192.94v-14.4Z"/><rect class="cls-23" x="192.94" y="142.66" width="31.56" height="14.4"/><polygon class="cls-24" points="178.47 141.37 178.47 166.85 186.98 132.87 178.47 141.37"/><polygon class="cls-24" points="238.96 141.37 230.47 132.87 238.96 166.85 238.96 141.37"/><polygon class="cls-24" points="173.05 166.85 173.05 171.61 244.41 171.61 244.41 166.85 238.96 166.85 178.47 166.85 173.05 166.85"/><path class="cls-25" d="M182.43,81.14c-5.94-5.17-13.21-12.33-13.76-26.56h7.67c.61,3.8,3.13,7.16,6.09,8.25v-4a7.92,7.92,0,0,1-2.75-6V51.1H165.16v1.74c0,18,9.79,26.46,16.26,32l1.16,1a25.75,25.75,0,0,1-.15-2.78Z"/><path class="cls-25" d="M237.79,52.84a7.92,7.92,0,0,1-2.75,6v4c3-1.09,5.48-4.45,6.08-8.25h7.68C248.25,68.81,241,76,235,81.14v1.94a25.75,25.75,0,0,1-.15,2.78l1.16-1c6.47-5.55,16.26-14,16.26-32V51.1H237.79Z"/><path class="cls-23" d="M235,81.14V46.41h-10.4V65.8L220,61.19l-4.61,4.61V46.41h-33V83.08a25.75,25.75,0,0,0,.15,2.78,26.3,26.3,0,0,0,20.53,22.91h11.25a26.3,26.3,0,0,0,20.53-22.91,25.75,25.75,0,0,0,.15-2.78Z"/><polygon class="cls-25" points="215.41 40.29 179.68 40.29 179.68 46.41 182.43 46.41 215.41 46.41 215.41 40.29"/><polygon class="cls-25" points="235.04 46.41 237.79 46.41 237.79 40.29 224.64 40.29 224.64 46.41 235.04 46.41"/><rect class="cls-25" x="195.48" y="129.1" width="26.51" height="3.77"/><path class="cls-23" d="M206.5,118.05a11,11,0,0,1-11,11H222a11,11,0,0,1-11-11v-2.71H206.5Z"/><path class="cls-25" d="M203.07,108.77v3.15a3.47,3.47,0,0,0,1,2.43,3.43,3.43,0,0,0,2.42,1H211a3.41,3.41,0,0,0,3.43-3.42v-3.15H203.07Z"/><polygon class="cls-26" points="215.41 65.8 220.02 61.19 224.64 65.8 224.64 46.41 224.64 40.29 215.41 40.29 215.41 46.41 215.41 65.8"/><path class="cls-23" d="M233.51,34.91a9.83,9.83,0,1,0-9.83-9.83A9.83,9.83,0,0,0,233.51,34.91Zm0-17.69a7.86,7.86,0,1,1-7.86,7.86A7.86,7.86,0,0,1,233.51,17.22Z"/><path class="cls-25" d="M233.51,32.94a7.86,7.86,0,1,0-7.86-7.86A7.85,7.85,0,0,0,233.51,32.94Zm-2.65-11.61a2.56,2.56,0,0,1,1.82-.75h.18v-.45h1.3v.45h2.1v1.3h-2.1v2.55h.17a2.58,2.58,0,1,1,0,5.15h-.17V30h-1.3v-.46h-2.1V28.29h2.1V25.73h-.18a2.58,2.58,0,0,1-2.57-2.58A2.58,2.58,0,0,1,230.86,21.33Z"/><path class="cls-25" d="M234.33,28.29a1.3,1.3,0,0,0,.91-.38,1.28,1.28,0,0,0,0-1.8,1.3,1.3,0,0,0-.91-.38h-.17v2.56Z"/><path class="cls-25" d="M232.68,24.43h.18V21.88h-.18a1.25,1.25,0,0,0-.9.37,1.27,1.27,0,0,0-.38.9,1.3,1.3,0,0,0,1.28,1.28Z"/><path class="cls-23" d="M232.68,25.73h.18v2.56h-2.1v1.29h2.1V30h1.3v-.46h.17a2.6,2.6,0,0,0,1.83-.75,2.58,2.58,0,0,0-1.83-4.4h-.17V21.88h2.1v-1.3h-2.1v-.45h-1.3v.45h-.18a2.56,2.56,0,0,0-2.57,2.57,2.58,2.58,0,0,0,2.57,2.58Zm1.65,0a1.3,1.3,0,0,1,.91.38,1.28,1.28,0,0,1,0,1.8,1.3,1.3,0,0,1-.91.38h-.17V25.73Zm-2.55-3.48a1.25,1.25,0,0,1,.9-.37h.18v2.55h-.18a1.3,1.3,0,0,1-1.28-1.28A1.27,1.27,0,0,1,231.78,22.25Z"/><path class="cls-23" d="M199,11.56A7.27,7.27,0,0,0,205,.28a2.83,2.83,0,0,0-.2-.28h-1.94l.28.28a5.82,5.82,0,1,1-8.39,0l.28-.28h-1.94a2.83,2.83,0,0,0-.2.28A7.27,7.27,0,0,0,199,11.56Z"/><path class="cls-25" d="M198.35,1.93a.9.9,0,0,0-.66.27.93.93,0,0,0-.28.67.91.91,0,0,0,.28.66.88.88,0,0,0,.66.28h.14V1.93Z"/><path class="cls-25" d="M199.58,4.77h-.14V6.66h.14a.92.92,0,0,0,.66-.28.91.91,0,0,0,.28-.66.94.94,0,0,0-.94-1Z"/><path class="cls-25" d="M193.15,4.29a5.82,5.82,0,1,0,10-4L202.88,0h-7.83l-.28.28A5.77,5.77,0,0,0,193.15,4.29Zm7.77,2.77a1.89,1.89,0,0,1-1.34.56h-.14V8h-.95V7.62h-1.56v-1h1.56V4.77h-.14A1.89,1.89,0,0,1,197,4.21a1.86,1.86,0,0,1-.56-1.34A1.9,1.9,0,0,1,197,1.52,1.86,1.86,0,0,1,198.35,1h.14V.63h.95V1H201v1h-1.56V3.81h.14a1.89,1.89,0,0,1,1.34.56,1.9,1.9,0,0,1,0,2.69Z"/><path class="cls-23" d="M199.58,3.81h-.14V1.93H201V1h-1.56V.63h-.95V1h-.14a1.86,1.86,0,0,0-1.34.56,1.9,1.9,0,0,0-.56,1.35A1.86,1.86,0,0,0,197,4.21a1.89,1.89,0,0,0,1.34.56h.14V6.66h-1.56v1h1.56V8h.95V7.62h.14a1.89,1.89,0,0,0,1.34-.56,1.9,1.9,0,0,0,0-2.69A1.89,1.89,0,0,0,199.58,3.81Zm-1.23,0a.88.88,0,0,1-.66-.28.91.91,0,0,1-.28-.66.93.93,0,0,1,.28-.67.9.9,0,0,1,.66-.27h.14V3.81Zm1.89,2.57a.92.92,0,0,1-.66.28h-.14V4.77h.14a.94.94,0,0,1,.94,1A.91.91,0,0,1,200.24,6.38Z"/><path class="cls-23" d="M204.52,26a3.46,3.46,0,1,0-3.45-3.45A3.46,3.46,0,0,0,204.52,26Zm0-6.22a2.77,2.77,0,1,1-2.76,2.77A2.77,2.77,0,0,1,204.52,19.79Z"/><path class="cls-25" d="M204.81,23.68a.48.48,0,0,0,.32-.13.46.46,0,0,0,.13-.32.4.4,0,0,0-.13-.31.45.45,0,0,0-.32-.14h-.06v.9Z"/><path class="cls-25" d="M204.52,25.32a2.77,2.77,0,1,0-2.76-2.76A2.77,2.77,0,0,0,204.52,25.32Zm-.93-4.08a.91.91,0,0,1,.64-.27h.07v-.16h.45V21h.74v.46h-.74v.9h.06a.9.9,0,0,1,.64.26.91.91,0,0,1,.27.64.89.89,0,0,1-.27.64.87.87,0,0,1-.64.27h-.06v.16h-.45v-.16h-.74v-.46h.74v-.9h-.07a.89.89,0,0,1-.9-.9A.88.88,0,0,1,203.59,21.24Z"/><path class="cls-25" d="M204.23,22.33h.07v-.9h-.07a.44.44,0,0,0-.31.13.43.43,0,0,0-.14.32.44.44,0,0,0,.13.31A.45.45,0,0,0,204.23,22.33Z"/><path class="cls-23" d="M204.23,22.78h.07v.9h-.74v.46h.74v.16h.45v-.16h.06a.87.87,0,0,0,.64-.27.89.89,0,0,0,.27-.64.91.91,0,0,0-.27-.64.9.9,0,0,0-.64-.26h-.06v-.9h.74V21h-.74v-.16h-.45V21h-.07a.91.91,0,0,0-.64.27.88.88,0,0,0-.26.64.89.89,0,0,0,.9.9Zm.58,0a.45.45,0,0,1,.32.14.4.4,0,0,1,.13.31.46.46,0,0,1-.13.32.48.48,0,0,1-.32.13h-.06v-.9Zm-.89-1.22a.44.44,0,0,1,.31-.13h.07v.9h-.07a.45.45,0,0,1-.32-.14.44.44,0,0,1-.13-.31A.43.43,0,0,1,203.92,21.56Z"/><path class="cls-23" d="M176.2,37a4.84,4.84,0,1,0-4.84-4.84A4.84,4.84,0,0,0,176.2,37Zm0-8.71a3.87,3.87,0,1,1-3.87,3.87A3.87,3.87,0,0,1,176.2,28.24Z"/><path class="cls-25" d="M175.79,31.79h.09V30.53h-.09a.63.63,0,0,0-.44.18.64.64,0,0,0-.19.45.65.65,0,0,0,.63.63Z"/><path class="cls-25" d="M176.61,33.69a.63.63,0,0,0,.44-.19.59.59,0,0,0,.18-.44.63.63,0,0,0-.18-.45.62.62,0,0,0-.44-.18h-.09v1.26Z"/><path class="cls-25" d="M176.2,36a3.87,3.87,0,1,0-3.87-3.87A3.87,3.87,0,0,0,176.2,36Zm-1.3-5.72a1.22,1.22,0,0,1,.89-.37h.09v-.22h.64v.22h1v.64h-1v1.26h.09a1.26,1.26,0,0,1,1.26,1.27,1.22,1.22,0,0,1-.37.89,1.26,1.26,0,0,1-.89.37h-.09v.23h-.64v-.23h-1v-.63h1V32.43h-.09a1.19,1.19,0,0,1-.89-.38,1.23,1.23,0,0,1-.38-.89A1.27,1.27,0,0,1,174.9,30.26Z"/><path class="cls-23" d="M175.79,32.43h.09v1.26h-1v.63h1v.23h.64v-.23h.09a1.26,1.26,0,0,0,.89-.37,1.22,1.22,0,0,0,.37-.89,1.26,1.26,0,0,0-1.26-1.27h-.09V30.53h1v-.64h-1v-.22h-.64v.22h-.09a1.22,1.22,0,0,0-.89.37,1.27,1.27,0,0,0-.38.9,1.23,1.23,0,0,0,.38.89A1.19,1.19,0,0,0,175.79,32.43Zm.82,0a.62.62,0,0,1,.44.18.63.63,0,0,1,.18.45.59.59,0,0,1-.18.44.63.63,0,0,1-.44.19h-.09V32.43Zm-1.26-1.72a.63.63,0,0,1,.44-.18h.09v1.26h-.09a.65.65,0,0,1-.63-.63A.64.64,0,0,1,175.35,30.71Z"/><rect class="cls-27" x="335.86" y="148.23" width="2.08" height="7.78"/><polygon class="cls-27" points="321.12 150 322.74 157.61 324.78 157.18 323.17 149.56 321.12 150"/><rect class="cls-27" x="308.57" y="154.03" width="2.09" height="7.78" transform="translate(-37.46 139.53) rotate(-23.99)"/><rect class="cls-27" x="296.43" y="161.04" width="2.08" height="7.78" transform="translate(-40.17 206.04) rotate(-35.95)"/><rect class="cls-27" x="286.01" y="170.42" width="2.09" height="7.78" transform="translate(-34.59 270.91) rotate(-47.98)"/><polygon class="cls-27" points="274.92 184.61 281.66 188.52 282.7 186.7 275.96 182.81 274.92 184.61"/><polygon class="cls-27" points="277.13 198.68 269.73 196.28 269.09 198.26 276.49 200.66 277.13 198.68"/><polygon class="cls-27" points="274.16 211.56 266.43 210.73 266.22 212.82 273.95 213.63 274.16 211.56"/><polygon class="cls-27" points="273.95 224.76 266.22 225.57 266.43 227.66 274.16 226.84 273.95 224.76"/><polygon class="cls-27" points="276.49 237.74 269.09 240.13 269.73 242.12 277.13 239.71 276.49 237.74"/><rect class="cls-27" x="274.92" y="251.69" width="7.78" height="2.09" transform="translate(-89.03 173.35) rotate(-30.01)"/><rect class="cls-27" x="283.16" y="263.04" width="7.78" height="2.08" transform="translate(-102.97 259.9) rotate(-42)"/><rect class="cls-27" x="293.59" y="272.42" width="7.78" height="2.08" transform="translate(-98.61 353.4) rotate(-54)"/><rect class="cls-27" x="305.73" y="279.43" width="7.78" height="2.09" transform="translate(-72.15 450.13) rotate(-66.13)"/><polygon class="cls-27" points="361.65 277.34 364.81 284.45 366.72 283.6 363.55 276.5 361.65 277.34"/><polygon class="cls-27" points="373.19 270.92 377.77 277.22 379.46 276 374.88 269.7 373.19 270.92"/><rect class="cls-27" x="385.7" y="260.19" width="2.08" height="7.78" transform="translate(-68.25 374.95) rotate(-48.02)"/><rect class="cls-27" x="393.95" y="248.85" width="2.08" height="7.78" transform="translate(-21.27 468.65) rotate(-60.03)"/><polygon class="cls-27" points="396.67 239.71 404.07 242.12 404.71 240.13 397.31 237.74 396.67 239.71"/><polygon class="cls-27" points="399.63 226.84 407.37 227.66 407.58 225.57 399.85 224.77 399.63 226.84"/><polygon class="cls-27" points="399.63 211.56 399.85 213.63 407.58 212.82 407.37 210.73 399.63 211.56"/><rect class="cls-27" x="396.8" y="197.43" width="7.78" height="2.09" transform="translate(-41.75 133.74) rotate(-18.03)"/><polygon class="cls-27" points="398.88 184.62 397.84 182.81 391.1 186.7 392.14 188.52 398.88 184.62"/><polygon class="cls-27" points="383.16 176.14 384.56 177.69 390.33 172.49 388.94 170.93 383.16 176.14"/><polygon class="cls-27" points="373.2 167.47 374.89 168.69 379.46 162.4 377.77 161.17 373.2 167.47"/><polygon class="cls-27" points="364.81 153.95 364.65 154.29 361.65 161.05 363.56 161.9 366.45 155.39 366.72 154.79 364.81 153.95"/><polygon class="cls-27" points="349.02 157.18 351.06 157.61 352.68 150 350.63 149.56 349.02 157.18"/><path class="cls-23" d="M351.72,270a29.45,29.45,0,0,1,9.65-21.83l1.09-.94a37.92,37.92,0,1,0-51.12,0l1.09.94A29.45,29.45,0,0,1,322.08,270v7.65h29.64Zm-43.1-50.78a28.28,28.28,0,1,1,28.28,28.28A28.28,28.28,0,0,1,308.62,219.19Z"/><path class="cls-25" d="M365.17,219.19a28.28,28.28,0,1,0-28.27,28.28A28.27,28.27,0,0,0,365.17,219.19ZM336.9,238.63a3,3,0,1,1,3-3A3,3,0,0,1,336.9,238.63Zm2.19-9h-4.38l-2-29.92h8.38Z"/><polygon class="cls-28" points="334.7 229.66 339.09 229.66 341.09 199.75 332.71 199.75 334.7 229.66"/><path class="cls-28" d="M336.9,232.66a3,3,0,1,0,3,3A3,3,0,0,0,336.9,232.66Z"/><rect class="cls-24" x="320.35" y="287.63" width="33.11" height="2.49"/><polygon class="cls-24" points="347.66 294.83 347.66 295.12 353.45 295.12 353.45 292.63 320.35 292.63 320.35 295.12 326.14 295.12 326.14 294.83 347.66 294.83"/><polygon class="cls-24" points="353.45 277.62 351.72 277.62 322.08 277.62 320.35 277.62 320.35 280.13 353.45 280.13 353.45 277.62"/><rect class="cls-24" x="320.35" y="282.62" width="33.11" height="2.51"/><polygon class="cls-22" points="354.95 282.62 354.95 280.13 353.45 280.13 320.35 280.13 318.83 280.13 318.83 282.62 320.35 282.62 353.45 282.62 354.95 282.62"/><polygon class="cls-22" points="354.95 287.63 354.95 285.13 353.45 285.13 320.35 285.13 318.83 285.13 318.83 287.63 320.35 287.63 353.45 287.63 354.95 287.63"/><polygon class="cls-22" points="354.95 292.63 354.95 290.12 353.45 290.12 320.35 290.12 318.83 290.12 318.83 292.63 320.35 292.63 353.45 292.63 354.95 292.63"/><polygon class="cls-22" points="347.66 294.83 326.14 294.83 326.14 295.12 326.14 299.34 326.14 300 347.66 300 347.66 299.34 347.66 295.12 347.66 294.83"/><path class="cls-28" d="M75.23,68Z"/><path class="cls-28" d="M74.43,85.51c.09.12.39-.44.47-.56C74.81,85.06,74.4,85.47,74.43,85.51Z"/><path class="cls-28" d="M74.3,86.43c.07,0,.29-.39.32-.44a.34.34,0,0,0,.08-.23S74.1,86.36,74.3,86.43Z"/><path class="cls-28" d="M67,85.24Z"/><path class="cls-28" d="M47,94.61Z"/><path class="cls-28" d="M24.86,78.76Z"/><path class="cls-28" d="M72.86,83.21v0S72.85,83.17,72.86,83.21Z"/><path class="cls-28" d="M73.41,82a3.63,3.63,0,0,0,.36-.61,1.09,1.09,0,0,0-.65.52c.11-.19-.8.24-.72.22-.31.08-.11.45.08.52.51.19.52-.19.92-.63C73.35,82.05,73.38,82,73.41,82Z"/><path class="cls-28" d="M72.86,83.19v0c.09.08.21-.28.11-.32S72.85,83.13,72.86,83.19Z"/><path class="cls-28" d="M73,81c0-.06.1-1.25-.07-1.3a18.79,18.79,0,0,0-.58,2c-.23.49-.33-.43-.29-.64,0,.07-.09.23-.18.22a.36.36,0,0,1-.09-.35,1.23,1.23,0,0,0-.22,1c-.5-.22-.39.37,0,.33A2.09,2.09,0,0,0,73,81Zm-1.37,1.14c.06-.09.13-.1.2,0S71.64,82.31,71.66,82.17Z"/><path class="cls-28" d="M73.41,82v0C73.49,81.9,73.44,82,73.41,82Z"/><path class="cls-28" d="M74.65,83.25c.13-.17-.31,0-.23,0-.15-.06-.15-.46-.11-.57h0a.21.21,0,0,0,0-.18c-.11.14-.36,1.25-.15,1.3S74.59,83.32,74.65,83.25Zm-.24,0c.09,0,.11,0,0,.15S74.34,83.37,74.41,83.25Z"/><path class="cls-28" d="M74.62,86Z"/><path class="cls-28" d="M74,87.35h0a2.35,2.35,0,0,0-.59.81A2.67,2.67,0,0,0,74,87.35Z"/><path class="cls-28" d="M68.53,92.74h0S68.62,92.71,68.53,92.74Z"/><path class="cls-28" d="M64.07,73.44c.22,0,0-.13,0,0Z"/><path class="cls-28" d="M64.51,87.31c0,.14.07,0,.07,0S64.5,87.24,64.51,87.31Z"/><path class="cls-28" d="M60.68,97.69Z"/><path class="cls-28" d="M69.59,91.87l-.2.09C69.26,92,69.55,92,69.59,91.87Z"/><path class="cls-28" d="M66,86.66h0l0,0Z"/><path class="cls-28" d="M69.07,73.35s0,.07,0,.1S69.12,73.41,69.07,73.35Z"/><path class="cls-28" d="M68.4,71.71c-.19.15,0,0,0,0Z"/><path class="cls-28" d="M32.53,92.64a3.81,3.81,0,0,1-1.1-1.06l-1.37-1.34a27.82,27.82,0,0,0,9.41,7,28.23,28.23,0,0,1-4.84-2.83A20,20,0,0,1,32.53,92.64Z"/><path class="cls-28" d="M25,78.62a.76.76,0,0,1-.11.14.84.84,0,0,0,0,.1S25.06,78.57,25,78.62Z"/><path class="cls-28" d="M53.22,95.72c-.14.11,0,0,0,0Z"/><path class="cls-28" d="M72.09,81.09s0,0,0,0S72.1,81.05,72.09,81.09Z"/><path class="cls-28" d="M29.69,89.77c.12.15.23.31.36.45h0C29.92,90.08,29.81,89.92,29.69,89.77Z"/><path class="cls-28" d="M24.22,78.11c-.14-1.06-.31-2.08-.45-3.13-.05-.42.14-.82.08-1.25a4.56,4.56,0,0,1,0-1.38c.19-.85,0-1.86.54-2.64.24-.38.72-.61.85-1.07.47.32.32,1.23.47,1.71a11.24,11.24,0,0,1,.78,2.17c.26,1.5,1.57,2.51,1.73,4a11.94,11.94,0,0,1,.16,1.66c0,.55.53,1.21.74,1.7a4.57,4.57,0,0,0,1.59,1.71c.19.13,1.38.64,1.22,1s.92,2.1,1.49,2c.32,0,.43-.69.81-.47s.49.49.84.46,1.27-1.83,1.5-1.86a1.6,1.6,0,0,0,1.07-.51c.32-.33.4-.8.91-.84a6,6,0,0,1,.85.11c.71.1,1.49,0,2,.54s1.22.13,1.62.66c.26-.68.78.3.92.4.59.38.59.55.83,1.24.43,1.21,2.3,1.41,1.92,3-.07.3.45.5.26.84a.49.49,0,0,0,.07.48c.15.28-.4.79-.33,1.2s.66.67.8,1.18c.08.29-.18.47-.16.74s.4.53.29.67-1.29,0-1.26.68c0,.38-.42.77-.66,1a6.28,6.28,0,0,1-1.29.93c-.26-.05-.95-.07-1.07-.52s-1.19,0-1.49,0-.68-.22-1-.06-.44,0-.7,0c-.42,0,1.18,1,.39,1a4.74,4.74,0,0,0-1.58.15A.48.48,0,0,1,39,96c-.21.25-.68,0,.06.44.19.12,1.77,1.1,1.9.9s-.16-.11-.12-.21.46.1.48,0S41.2,97,41.2,97a4.9,4.9,0,0,1,2.12.46,1.45,1.45,0,0,0-.17.18.35.35,0,0,0,.23.14.3.3,0,0,1-.13.12.36.36,0,0,1,.19.27c-.06.17-.64,0-.81.11a3.36,3.36,0,0,0,2.13.47c0-.11-.07-.13-.09-.2.19.1.42,0,.64.16a.6.6,0,0,0-.44,0c0,.14.66.26.73.28a.6.6,0,0,0-.23-.27c.1-.18.28,0,.42-.12a4.42,4.42,0,0,0-2.35-.87s.19-.33.05-.26c.26-.14.2-.28.33-.34-.19-.31-.79-.11-1-.24a3.82,3.82,0,0,1-.6-.44,5.42,5.42,0,0,1,.93.09,6.12,6.12,0,0,1,1.29.33,2.35,2.35,0,0,0,1.11.19,17.9,17.9,0,0,0,1.93,0c.35-.08-.38-.36-.38-.36-.34-.06-.74,0-1.08-.09-.58-.08-1.16.22-1.76,0h0a.65.65,0,0,0,.39-.06c-.09-.22-.61-.25-.79-.49a3.86,3.86,0,0,1-.38-.44c.1-.07.91-.16.93,0s-.74.39-.25.58a3.22,3.22,0,0,0,1.27.15,11.43,11.43,0,0,0,2.34,0c-.55-.64.78-.73.54-1-.08-.08-.73-.18-.44-.48s0-.34,0-.53-.94-.46-.6-.81-.4-.08.27-.51c.26-.18.14-.57.48-.53s.45,0,.86-.19c.23-.1.2,0,.4.1s.52,0,.67.32.57.41.85.71c0,0,.74.25.27.49-.23.12-1.53.57-1.53.84,0,.82,2.17.58,2.54.49a2.15,2.15,0,0,1-.58.42c.1.11.24.08.35.13s-.83.37-.27.56a3.59,3.59,0,0,0,.3.69c.11.17-.35.51-.08.5a1.68,1.68,0,0,1,1.24.37c-.41,0-1.25-.44-1.63-.17-.16.11-.49.27-.5.4-.06.42-.06.06-.38.32.25.32.94.19,1.1.36-.1.05-.22,0-.33.07,0,0,1.46,0,.83.24,0,.38.67.21.83.17l-.43,0c.37-1,2.12,0,2.85-.4a3.83,3.83,0,0,0-1.18-.26c-.44-.08-.88.15-1.3.06a3.15,3.15,0,0,1-1.18-.55c0-.33,1.73.14,1.69.16l-.27-.15s0,0,0,0c.1-.16.45.09.56-.08s-.42-.28.26-.43a2.1,2.1,0,0,1,1.7.32,4.36,4.36,0,0,0,1.7.57c-.06.55-1.78.88-2.3.87,0-.05,0-.06,0-.1a6.45,6.45,0,0,0-1.17.17c.09,0,.57,0,.62,0a3.69,3.69,0,0,0-1.14.14A27.84,27.84,0,0,0,74.83,86.31c-.3.51-.63,1-1,1.47s-.6.83-.93,1.24c-.33,0,0-.22,0-.39a.6.6,0,0,0-.5.42c.28.24-.7,1.54-1.13,1.8,0-.13.13-.2.15-.31-.14-.06-.19.09-.29.14h0a10.65,10.65,0,0,1,1-1.6c-.28-.19-.71.73-.88.86,0-.23.21-.3.24-.49-.57.21-.38,1-1,1.31a2.63,2.63,0,0,1,.3-.84.75.75,0,0,1-.27.26c0-.19.22-.27.16-.5a3.58,3.58,0,0,0-.64,1,.36.36,0,0,0,.17.07,2,2,0,0,1-.68.93c0-.16.17-.28.18-.46-.25.27-.3.6-.68.76-.07-.11,0-.18.06-.26a.7.7,0,0,0-.32.29s.08-.06.15,0a.44.44,0,0,1-.31.24c-.08-.39-.38-.16-.69-.2s.21-.37,0-.42-.52.11-.76.07c0-.13.31-.67.46-.67s.81.15.45-.22-.53-.53.35-.61c0,0-.41-.15-.4-.22s.78-.31.88-.23c.37.3.79-.29.92-.16-.06,0-1.84,1.74-.64,1.71.21,0,.75-.65.74-.9s.21-.44.38-.61a2.33,2.33,0,0,1,.4-.24c.06-.16-.37-.38-.43-.4.11-.24.69-.5.9-.56,0,.12-.22.19-.16.35.33,0,1.23-1.41,1.39-1.66a2.69,2.69,0,0,0,.44-1.58c-.14-.06-.47.4-.64,0-.08-.18-.78.1-.83.11a2.69,2.69,0,0,0,.06-.63c-.07,0-.19.13-.24,0s.12-.16.27-.11c0-.31-.29-.55-.48-.29s-.15.53-.17.92c0,.61-.69.92-.65,1.57,0,.4.41.11.08.6a2,2,0,0,0-.18.88c0,.56-1.07.4-1.34.43.09-1.23-.73,0-.93.44-.54-.73-.86-.94-1.71-.84,0-.1.1-.1.12-.18s-.63.11-.63-.07c0-.66.39-.62.65-1.19s1.25-.84,1.77-1.26a5.76,5.76,0,0,0,1-1.85c-.6.32-.6,1.41-1.4,1.69-.5.16.22-.54.27-.59a.36.36,0,0,0-.36.08c-.25-.1-.09-.76-.77-.36-.38.22-.18.61-.48.79l-.23-.21c0-.45,1.07-1.38,1.3-1.8s.16.6-.08.89c0,0,0,0,0,0a14,14,0,0,1,1.29-1.54.72.72,0,0,0,.1-1c.19-.32.54-.48.78-.76-.12,0-.16.09-.25.09a6.14,6.14,0,0,1,.66-1.11s-.18-.83.06-.57.28.33.13.53c.27-.2-.13-.58.24-.6,0,0-.44-.11-.2-.21l0,0c0,.07,0-.31,0-.28s-.19,0-.23-.18.22-.21.13-.33c0,.12-.15.08-.21,0a2,2,0,0,1,.35-.73,9.93,9.93,0,0,0,.77-1.61c.27-.76-.92-2.91-.73-3.06s.21.12.34.17,1,1.84,1.22,1.37c.14-.31.53-.18.87-.35,0,0,.73-.35.7-.46s-.27,0-.28,0-.12-.33-.11-.32a.59.59,0,0,1,.61-.12c.16.1.59-.46.76-.42-.12,0,.35-.89.37-.93.11-.38-.23-1-.09-1.29.45-.86-.55-2-.84-2.65s-.82-.37-1.06.05c-.09.16-.38,0-.35.25s-.06.44,0,.7-.3,1.58-.78,1.24a7.18,7.18,0,0,1-.18-1.51c.15-.08.08-.35-.07-.7,0,0-.1-1-.27-.55-.07.23-1.47.93-1.54.5C69.35,67.53,69,66.3,68,66c-.58-.15-.47.68-.81.74a1.19,1.19,0,0,1-1.18-.2c-.16.1.32,2-.25,1.72A4.38,4.38,0,0,1,65,69.62c.12,0-.36-.86-.32-1,.2-.7-1-.41-.26,0,.4.23.19.45,0,.73s.14.31.06.4a3.25,3.25,0,0,0-.7,0c-.46,0-.22-.42-.7,0s-.92,0-1.12.58c-.14.38-.6.39-.82.65.08-.08.14-.19.25-.23-.23-.23-1,.15-1.08-.16s-.34-.11-.53-.08c-.44.06-.58-.18-.92-.29s-1.12-.17-1.29.23-1.87.68-2.13.25c0,.17-1.38-.75-1.37-.81s-.63-.35-1.06-.24c-.48-.56-.28,0-.79.19a3.43,3.43,0,0,1-1.1.18c-.15,0-.34-.42-.39-.43a1.23,1.23,0,0,1-.18.28c0,.26-.5.25-.65.29a8.46,8.46,0,0,0-.94.5c-.55.25-1.16-.06-1.73-.06s-.66.53-1.29-.07a1.54,1.54,0,0,1-.53-1.46A10.47,10.47,0,0,1,45.86,67c.32-.41-1.39-2.4-1.13-3.14s-.42-1.64.53-1.87c.11,0,.44-.57.54-.71a4,4,0,0,0,.74-1.41c.17-.59-.51-1-.39-1.68,0,0,.18-1.47.19-1.76l.15.07c0-.2.19-.46-.05-.55.07.13.05.23-.06.29s0-.61,0-.68c.07-.38.38-.25.53-.48s.77-.19,1-.29c0-.26-1-.23-1.23-.44-.72-.58.95-1.49,1.18-1.67-.06-.15-.51-.34-.53-.5-.08-.43.76-.28.8-.49s-.7-.45-.77-.43-.21-.69-.19-.7c.23-.1.26-.51,0-.54s-.39.1-.6.11c-.44,0,0-.57-.22-.72s.33-.42-.55-.59c.81-.52-.27-.48-.28-.48s.08,0,.07.17c.09,0,.18-.15.27-.09.38.28-.63.27-.6.27-.31,0-.71.21-1,.17.06-.06.27-.31.38-.34-.07,0,0,0,0,0,.63-.23,1.39-.78,2.16-.56a11.49,11.49,0,0,1,1.64.48c.26.12,0,.58.46.44.26-.08.08-.16.28.11.31.46.61.42.16.52,0,0,.54,1,.82.54-.56-.14-.24-.49-.19-.4A7.62,7.62,0,0,0,51.6,51c.12,0,.12.33.2.46.25.35.53.79.75,1.17a2.67,2.67,0,0,0,.72.57c.19.13.07.35.33.46s.45.92.81,1.17a5.65,5.65,0,0,1,1.17,1.56A2.5,2.5,0,0,0,58,57.57a4.05,4.05,0,0,1,3,.94,6.18,6.18,0,0,0,2.77,1.37c.53.11.64,1.65.66,1.66.45,0,.57,0,.67.62a1.93,1.93,0,0,0,.22.69c0,.07-.22.44-.14.63s-.31,1.2,0,1.3.36,1,.69,1.16.86.81,1.14.6-.17-1,.08-1,.73.21,1.06.11.5.39.87.34L69,65.8c.13-.29.54.53.58.58.41-.13.69.52.85.57s1-.44,1.37-.25.69.6,1,.49.21-.54.69-.54a4.7,4.7,0,0,1,1.6.4c.16.28.8.4.62.85,0,.08.16.5.18.58.23.83,1.12,1.43,1.24,2.29a8,8,0,0,0,.61,1.69c.42-.09-1.12-3.58-1-3.85.27.8.86,1.43.88,2.25,0,.39.27.84.33,1.23a3.48,3.48,0,0,0,.31,1.44c.35.58-.36,4.8-.61,5.81a24.21,24.21,0,0,1-1.92,5.37A27.85,27.85,0,0,0,43.4,45.08a4,4,0,0,0-1,.41c.41,0,.73-.27,1.13-.2-1.08.44-2,1.07-3,1.49.17.08,1.11-.22,1.16-.13-.11.08-.73.48-.75.51-.16.41.6-.08.63.13,0,.05-.25.11-.27.26s.14.23.15.34a5.48,5.48,0,0,1-1.22,1c.09-.17.31-.17.11-.37.13-.06.5-.29.42-.46a4.16,4.16,0,0,1-.74-.29c-.26-.13-.82,0-1-.21-.35-.38-2.58,1-2.9,1.25-.79.61-1.4,1.39-2.14,2-.45.38-.86.82-1.33,1.17-.22.16-.84.9-1,.94-.35-.33-1.82,1.24-2.3,1.44,0,0,0,0,0,0s0,0,.05-.07A27.9,27.9,0,0,0,23.47,76a.88.88,0,0,0,0-.17,9.07,9.07,0,0,1,.14.91c0-.09,0-.18-.05-.26a27.88,27.88,0,0,0,3.56,9.66,24.57,24.57,0,0,0,1.78,2.58,22.51,22.51,0,0,1-2.54-4.5A23.85,23.85,0,0,1,24.22,78.11Zm16,18.71a.23.23,0,0,1,.28.19A.31.31,0,0,1,40.23,96.82Zm.87-.4c0-.07,0-.14.11-.13s.08,0,0,0c.11,0,.24-.12.37,0C41.42,96.32,41.28,96.44,41.1,96.42Zm5.17-.58c-.14.09-.81-.26-.81-.38,0-.35.67.14.9.14Q46.32,95.71,46.27,95.84Zm.67.25c-.07.15-.48-.18-.52-.21h0C46.49,95.86,47,95.87,46.94,96.09Zm-.11-1.44a.43.43,0,0,1,.19,0C47.22,94.53,46.78,95,46.83,94.65Zm5.61,4.61c-.18,0,0,0,0,0Zm16.67-8.41a.53.53,0,0,1,.29-.37C69.41,90.64,69.35,90.72,69.11,90.85ZM71,88.3c0,.18-.16.24-.31.34A.79.79,0,0,1,71,88.3Zm-.49.1a.25.25,0,0,1-.13.26A.46.46,0,0,1,70.47,88.4Zm-2,.82h0S68.54,89.16,68.5,89.22Zm-1-3a1,1,0,0,1-.72.15A.72.72,0,0,1,67.54,86.24Zm-.23-1s-.34,0-.35,0a.69.69,0,0,0-.18.12C66.85,84.92,67.36,85.16,67.31,85.21ZM69.38,73.9a.82.82,0,0,1-.29-.45s0,0,0-.1C69.31,73.6,69.42,73.54,69.38,73.9Zm1-2.5c.08,0,.08.32-.05.19A.13.13,0,0,1,70.37,71.4Zm-1.91-.55a.58.58,0,0,1-.54.27.14.14,0,0,1-.19,0C67.67,70.88,68.36,70.81,68.46,70.85Zm-.06.86c.21-.16-.05.28,0,.33.38.26,1.51-.3,1.78-.07a.18.18,0,0,0,0,.16c.46-.08.38-.64.73-.82,0,1.6-2.52,1.29-3.55,1.15C67.7,72.2,68.06,72,68.4,71.71Zm1.87,20c.08-.16.07-.1,0,0,.13-.19.37-.25.51-.43A.7.7,0,0,1,70.27,91.67Zm.85-1s-.05.06-.09.09A.11.11,0,0,1,71.12,90.69Zm-.1.09s0,0,0,0S71,90.79,71,90.78Zm-.13-.19a1.24,1.24,0,0,1-.45.61A1,1,0,0,1,70.89,90.59Zm-.51.43h0s0,.06,0,.08A.06.06,0,0,1,70.38,91Zm0,.08a.9.9,0,0,1-.48.48A1.11,1.11,0,0,1,70.33,91.1Zm-.47.65s0,0,0,0,.11,0,.18,0-.21.23-.33.35S69.69,91.67,69.86,91.75Zm-.47.21.2-.09c-.22.56-.42.45-1,.7A1.33,1.33,0,0,1,69.39,92Zm-3.63-4.08h0Zm-.53-15.14c.52-.07.61-.47.81-.81.43.2.68-.27,1.07-.31h0c.23,0-.53.42-.61.52.29.13.23.34.57.25-.07.48-1.16.63-1.51.67,0,0,.07,0,.07-.11S64.75,72.81,65.23,72.74Zm-.17,13.83c0,.09-.11.11-.07.22.2,0,1-.57,1.09-.51s0,.17,0,.37c0,0,.07,0,0,0h0c-.09.41-.26,1-.29,1.08.08-.19,0,0,0,0,0,.15,0,.28-.3.36,0-.06.2-.66.13-.68a2.18,2.18,0,0,1-.53.15c-.36.43-.26-.14-.55,0,0-.06-.53-.85.08-.71a.28.28,0,0,0,.06.18C64.73,87.06,65,86.63,65.06,86.57Zm-1-13.13c-.13-.87,1.29-.12,0,0ZM62.85,94.22c.17-.34.59-.57.82-.86a2.64,2.64,0,0,1-.16-1.26c0-.29,1.33-.39,1.51-.33.38.13,1.29.53.88,1.07s0,0,.3.08c0,.32-.24.34-.52.46a.42.42,0,0,0,.57-.16c.17.15-.07.53.35.55.19,0,.82-.51.92-.4.22.28-.77.65-.78,1,.75-.26,1.08-1.33,1.78-1.62,0,0,0,0,0,0s.27-.16.42-.21c0,.1-.43.36-.18.36a5.39,5.39,0,0,1-2.15,1.74c-.76.33-1.34,1-2.11,1.29a8.32,8.32,0,0,0-.85.41c-.27.13-.13-.3-.45-.18s-.73-.09-.83.08c-.14-.26.08-.15-.15-.35,0,0-.45,0-.45-.06a7.91,7.91,0,0,1,.8-.46c.06,0-.09-.11-.13-.07s-.5.31-.68.4C62,95.09,62.58,94.77,62.85,94.22Zm-1.12,3.14a3.46,3.46,0,0,1-1.13.45c-.1,0,.11-.12.08-.12C61,97.6,61.37,97.42,61.73,97.36ZM60.85,70.8s.09.33-.08.45,0-.4.08-.45ZM59.17,96c.24-.34.62-.8,1.11-.7.12,0,.64-.06.66,0s.05,0,0,0-.56.39-.65.48S58.86,96.42,59.17,96Zm-3.58.17h0s.34.1.23.2-.11,0-.12-.1,0,0,0,0a.12.12,0,0,0-.11-.1s0,0,0,0ZM54,69.85c.11,0,0,.08,0,0Zm.37,25.21c.22.06.34.44.73.35l-.21.24c.53.39-.58.23-.75.18h0C53.45,95.65,53.89,95,54.34,95.06Zm-1.64.38c.27.21-.09.42,0,.5s.5-.19.55-.22.34.27.45.3c-.08,0-.15.06-.19.16a2.51,2.51,0,0,0,1.11,0c.16-.33.94.21,1,.29-.41.33-1,0-1.5.07s-2.06.19-2.31-.17C51.66,96.25,52.68,95.74,52.7,95.44ZM47.41,51.59a.2.2,0,0,1-.19-.08C47.1,51.3,47.66,51.39,47.41,51.59Zm21,8.58a.83.83,0,0,1,.26.45,4,4,0,0,1-.35-.26c.12.1,0,0,0,0S68.3,60.19,68.42,60.17Zm-.24.34c-.13-.25.21.19,0,0Zm-3.71.83ZM29.32,54.43s0,0,0,0h0Z"/><path class="cls-28" d="M29.64,54c.6-.68,1.87-2,2.29-2.45A26.37,26.37,0,0,0,29.64,54Z"/><path class="cls-28" d="M37.24,95.38c.09-.2-2.3-1.3-2.54-1.48-1.11-.81-2.25-1.58-3.32-2.43a.34.34,0,0,0,.05.11c.36.36.73.71,1.1,1.06A22.26,22.26,0,0,0,37.24,95.38Z"/><path class="cls-28" d="M34.7,93.9Z"/><path class="cls-28" d="M69.86,85.11a0,0,0,0,1,0,0s0,0,0,0Z"/><path class="cls-28" d="M47.29,48.19q.12-.09-.06-.09C47.15,48.18,47.17,48.22,47.29,48.19Z"/><path class="cls-28" d="M50.2,50.29c0,.21.21-.08,0,0Z"/><path class="cls-28" d="M67.44,87.84a.25.25,0,0,0,.27,0c-.09,0,.06-.15,0,0,.06-.15.27-.23.2-.49C67.91,87.47,67.42,87.81,67.44,87.84Z"/><path class="cls-28" d="M51.87,54.37c.09-.12-.11.12,0,0Z"/><path class="cls-28" d="M66.72,88a1,1,0,0,0-.31.44C66.53,88.28,66.71,88.22,66.72,88Z"/><path class="cls-28" d="M55.64,60.49c-.07,0,.11,0,0,0Z"/><path class="cls-28" d="M71.26,67.63c0-.06-.14.14,0,0Z"/><path class="cls-28" d="M71.15,82.7s.07,0,.11-.06S71.17,82.64,71.15,82.7Z"/><path class="cls-28" d="M63.17,69.44c-.14.07.13,0,0,0Z"/><path class="cls-28" d="M46.18,48.36c.08-.12.07-.15,0-.12S46.09,48.38,46.18,48.36Z"/><path class="cls-28" d="M44.56,99a27.36,27.36,0,0,1-3.23-1A28,28,0,0,0,44.56,99Z"/><path class="cls-28" d="M36.69,48l-.07,0a1.18,1.18,0,0,1,.19-.11Z"/><path class="cls-28" d="M69.2,66.44c0,.12.44.38.51.25s-.1-.27-.13-.31A.34.34,0,0,0,69.2,66.44Z"/><path class="cls-28" d="M44.66,48.52h0Z"/><path class="cls-28" d="M51.61,97.06s.17,0,.18,0S51.6,97,51.61,97.06Z"/><path class="cls-28" d="M67.09,84.74a.15.15,0,0,0,.23,0C67.3,84.57,67.25,84.73,67.09,84.74Z"/><path class="cls-28" d="M71.24,89.07c.05-.08,0-.12,0-.12S71.13,89.08,71.24,89.07Z"/><path class="cls-28" d="M72,80.3c-.06-.3-.86.74-.86.73h0a.87.87,0,0,0-.2.37,8.89,8.89,0,0,0,1-.67C71.85,80.81,72,80.2,72,80.3Z"/><path class="cls-28" d="M74.73,84.26c.06-.06.1-.1.09-.18S74.73,84.17,74.73,84.26Z"/><path class="cls-28" d="M70.32,86.11c0-.13.18-.17.23-.28C70.36,85.9,70.36,85.9,70.32,86.11Z"/><path class="cls-28" d="M74.61,82.24c-.12.1-.12.18,0,.26Z"/><path class="cls-28" d="M70.63,82.05c-.07,0,.26-.11,0,0Z"/><path class="cls-28" d="M71.09,82c.1,0,0,0,0,0Z"/><path class="cls-28" d="M70.63,82.05a1,1,0,0,0,.55-.58C70.94,81.4,69.72,82.49,70.63,82.05Z"/><path class="cls-28" d="M69.79,87.1c.06.05.11,0,.12,0S69.8,87,69.79,87.1Z"/><path class="cls-28" d="M69.64,85.52c0-.09.06-.1,0-.07a1,1,0,0,0,.15-.28S69.89,84.64,69.64,85.52Z"/><path class="cls-28" d="M68.43,86.16c.18-.07-.12,0,0,0Z"/><path class="cls-28" d="M25.57,81.53a.2.2,0,0,0,.13.13c-.38-.65-.49-1.39-.85-2A4.57,4.57,0,0,0,25.57,81.53Z"/><path class="cls-28" d="M70.88,89.19A.27.27,0,0,0,71,89C71.2,88.8,70.76,89.14,70.88,89.19Z"/><path class="cls-28" d="M69.37,84.6Z"/><path class="cls-28" d="M68.47,90.84c.22,0,.24,0,.23-.24C68.63,90.7,68.49,90.71,68.47,90.84Z"/><path class="cls-28" d="M71,89c0,.07,0,0,0,0Z"/><path class="cls-28" d="M68.91,90.14l-.15.09S68.81,90.44,68.91,90.14Z"/><path class="cls-28" d="M26.29,81.85c.14-.29.15-.31,0-.53C26.36,81.48,26.24,81.65,26.29,81.85Z"/><path class="cls-28" d="M28.2,85.46a.32.32,0,0,0-.09-.24C28.11,85.32,28.11,85.4,28.2,85.46Z"/><path class="cls-28" d="M28.61,86.5c-.05-.17-.05-.33-.19-.43C28.48,86.2,28.46,86.37,28.61,86.5Z"/><path class="cls-28" d="M27.6,85.62c0-.14,0-.05,0,0a.59.59,0,0,0,.26.3c.23-.41-.29-1-.49-1.33C27.25,85,27.44,85.09,27.6,85.62Z"/><path class="cls-28" d="M27.6,85.62h0S27.61,85.65,27.6,85.62Z"/><path class="cls-28" d="M26.74,82.64c-.11-.18-.39-.68-.6-.76.41.73.87,1.42,1.32,2.13A7.47,7.47,0,0,0,26.74,82.64Z"/><path class="cls-28" d="M26.74,82.64Z"/><path class="cls-24" d="M51.6,99.72h0c.54,0,1.08,0,1.62-.08h0a3.69,3.69,0,0,1,1.14-.14c0-.06-.53,0-.62,0A6.45,6.45,0,0,1,55,99.27s-.07,0,0,.1c.52,0,2.24-.32,2.3-.87a4.36,4.36,0,0,1-1.7-.57,2.1,2.1,0,0,0-1.7-.32c-.68.15-.1.16-.26.43s-.46-.08-.56.08c0,0,0,0,0,0l.27.15s-1.7-.49-1.69-.16a3.15,3.15,0,0,0,1.18.55c.42.09.86-.14,1.3-.06a3.83,3.83,0,0,1,1.18.26c-.73.4-2.48-.62-2.85.4l.43,0c-.16,0-.88.21-.83-.17.63-.24-.78-.2-.83-.24.11-.06.23,0,.33-.07-.16-.17-.85,0-1.1-.36.32-.26.32.1.38-.32,0-.13.34-.29.5-.4.38-.27,1.22.14,1.63.17a1.68,1.68,0,0,0-1.24-.37c-.27,0,.19-.33.08-.5,0,0-.17,0-.18,0s.16,0,.18,0a3.59,3.59,0,0,1-.3-.69c-.56-.19.26-.53.27-.56s-.25,0-.35-.13a2.15,2.15,0,0,0,.58-.42c-.37.09-2.56.33-2.54-.49,0-.27,1.3-.72,1.53-.84.47-.24-.23-.45-.27-.49-.28-.3-.63-.3-.85-.71s-.44-.13-.67-.32-.17-.2-.4-.1c-.41.18-.39.24-.86.19s-.22.35-.48.53c-.67.43,0,.23-.27.51s.55.67.6.81.24.34,0,.53.36.4.44.48c.24.24-1.09.33-.54,1a11.43,11.43,0,0,1-2.34,0,3.22,3.22,0,0,1-1.27-.15c-.49-.19.27-.45.25-.58s-.83-.05-.93,0a3.86,3.86,0,0,0,.38.44c.18.24.7.27.79.49a.65.65,0,0,1-.39.06c.6.22,1.18-.08,1.76,0,.34.05.74,0,1.08.09,0,0,.73.28.38.36a17.9,17.9,0,0,1-1.93,0,2.35,2.35,0,0,1-1.11-.19,6.12,6.12,0,0,0-1.29-.33,5.42,5.42,0,0,0-.93-.09,3.82,3.82,0,0,0,.6.44c.25.13.85-.07,1,.24-.13.06-.07.2-.33.34.14-.07,0,.31-.05.26a4.42,4.42,0,0,1,2.35.87c-.14.07-.32-.06-.42.12a.6.6,0,0,1,.23.27c-.07,0-.77-.14-.73-.28a.6.6,0,0,1,.44,0c-.22-.19-.45-.06-.64-.16,0,.07.1.09.09.2a3.36,3.36,0,0,1-2.13-.47c.17-.12.75.06.81-.11a.36.36,0,0,0-.19-.27.3.3,0,0,0,.13-.12.35.35,0,0,1-.23-.14,1.45,1.45,0,0,1,.17-.18A4.9,4.9,0,0,0,41.2,97c0,.06.15.13.14.15s-.41-.1-.48,0,.18.11.12.21-1.71-.78-1.9-.9c-.74-.45-.27-.19-.06-.44a.48.48,0,0,0-.06-.26,4.74,4.74,0,0,1,1.58-.15c.79.07-.81-1-.39-1,.26,0,.46.09.7,0s.66.14,1,.06,1.34-.57,1.49,0,.81.47,1.07.52a6.28,6.28,0,0,0,1.29-.93c.24-.28.66-.67.66-1,0-.7,1.06-.41,1.26-.68s-.29-.49-.29-.67.24-.45.16-.74c-.14-.51-.71-.68-.8-1.18s.48-.92.33-1.2a.49.49,0,0,1-.07-.48c.19-.34-.33-.54-.26-.84.38-1.57-1.49-1.77-1.92-3-.24-.69-.24-.86-.83-1.24-.14-.1-.66-1.08-.92-.4-.4-.53-1.18-.21-1.62-.66s-1.31-.44-2-.54a6,6,0,0,0-.85-.11c-.51,0-.59.51-.91.84a1.6,1.6,0,0,1-1.07.51c-.23,0-1,1.82-1.5,1.86s-.57-.29-.84-.46-.49.44-.81.47c-.57.08-1.69-1.49-1.49-2s-1-.89-1.22-1a4.57,4.57,0,0,1-1.59-1.71c-.21-.49-.77-1.15-.74-1.7a11.94,11.94,0,0,0-.16-1.66c-.16-1.5-1.47-2.51-1.73-4a11.24,11.24,0,0,0-.78-2.17c-.15-.48,0-1.39-.47-1.71-.13.46-.61.69-.85,1.07-.5.78-.35,1.79-.54,2.64a4.56,4.56,0,0,0,0,1.38c.06.43-.13.83-.08,1.25.14,1,.31,2.07.45,3.13a23.85,23.85,0,0,0,2.12,6.15,22.51,22.51,0,0,0,2.54,4.5c.25.34.53.68.81,1,.12.15.23.31.36.45h0v0l1.37,1.34a.34.34,0,0,1-.05-.11c1.07.85,2.21,1.62,3.32,2.43-.23-.17,0,0,0,0,.24.18,2.63,1.28,2.54,1.48a22.26,22.26,0,0,1-4.71-2.74,20,20,0,0,0,2.1,1.76,28.23,28.23,0,0,0,4.84,2.83l.1,0c.51.23,1,.44,1.54.64l.13,0,.09,0a27.36,27.36,0,0,0,3.23,1l.24,0c.48.11,1,.21,1.45.29l.22,0c.56.09,1.12.17,1.68.23h0c.57.06,1.14.1,1.72.12h0c.55,0,1.11,0,1.66,0Zm-26.74-21a.76.76,0,0,0,.11-.14c.09-.05-.08.22-.09.24a.84.84,0,0,1,0-.1Zm.71,2.77a4.57,4.57,0,0,1-.72-1.91c.36.65.47,1.39.85,2A.2.2,0,0,1,25.57,81.53Zm.73-.21c.14.22.13.24,0,.53C26.24,81.65,26.36,81.48,26.3,81.32Zm-.16.56c.21.08.49.58.6.76h0A7.47,7.47,0,0,1,27.46,84C27,83.3,26.55,82.61,26.14,81.88Zm1.72,4a.59.59,0,0,1-.26-.3h0c-.16-.53-.35-.61-.23-1C27.57,84.94,28.09,85.51,27.86,85.92Zm.25-.7a.32.32,0,0,1,.09.24C28.11,85.4,28.11,85.32,28.11,85.22Zm.31.85c.14.1.14.26.19.43C28.46,86.37,28.48,86.2,28.42,86.07Z"/><path class="cls-24" d="M71,88.3a.79.79,0,0,0-.31.34C70.8,88.54,70.93,88.48,71,88.3Z"/><path class="cls-24" d="M69.11,90.85c.24-.13.3-.21.29-.37A.53.53,0,0,0,69.11,90.85Z"/><path class="cls-24" d="M68.47,89.23h0C68.54,89.16,68.49,89.19,68.47,89.23Z"/><path class="cls-24" d="M46.42,95.88h0s.45.36.52.21S46.49,95.86,46.42,95.88Z"/><path class="cls-24" d="M52.44,99.26s-.18,0,0,0Z"/><path class="cls-24" d="M47,94.61h0a.43.43,0,0,0-.19,0C46.78,95,47.22,94.53,47,94.61Z"/><path class="cls-24" d="M70.47,88.4a.46.46,0,0,0-.13.26A.25.25,0,0,0,70.47,88.4Z"/><path class="cls-24" d="M70.91,71.31c-.35.18-.27.74-.73.82a.18.18,0,0,1,0-.16c-.27-.23-1.4.33-1.78.07-.08-.05.18-.49,0-.33h0c-.34.27-.7.49-1,.75C68.39,72.6,70.92,72.91,70.91,71.31Z"/><path class="cls-24" d="M67.92,71.12a.58.58,0,0,0,.54-.27c-.1,0-.79,0-.73.23A.14.14,0,0,0,67.92,71.12Z"/><path class="cls-24" d="M70.27,91.67a.7.7,0,0,0,.55-.48c-.14.18-.38.24-.51.43C70.34,91.57,70.35,91.51,70.27,91.67Z"/><path class="cls-24" d="M41.22,96.29c.07,0,0,0,0,0s-.09.06-.11.13c.18,0,.32-.1.49-.11C41.46,96.17,41.33,96.32,41.22,96.29Z"/><path class="cls-24" d="M67.54,86.24a.72.72,0,0,0-.72.15A1,1,0,0,0,67.54,86.24Z"/><path class="cls-24" d="M69.09,73.45s0-.07,0-.1S69.08,73.45,69.09,73.45Z"/><path class="cls-24" d="M67,85.24s.39-.06.35,0-.46-.29-.53.15a.69.69,0,0,1,.18-.12Z"/><path class="cls-24" d="M69.07,73.35c.05.06,0,.1,0,.1a.82.82,0,0,0,.29.45C69.42,73.54,69.31,73.6,69.07,73.35Z"/><path class="cls-24" d="M70.37,71.4a.13.13,0,0,0-.05.19C70.45,71.72,70.45,71.45,70.37,71.4Z"/><path class="cls-24" d="M45.46,95.46c0,.12.67.47.81.38s.06-.17.09-.24C46.13,95.6,45.47,95.11,45.46,95.46Z"/><path class="cls-24" d="M67.71,87.79c.06-.15-.09,0,0,0Z"/><path class="cls-24" d="M40.23,96.82a.31.31,0,0,0,.28.19A.23.23,0,0,0,40.23,96.82Z"/><path class="cls-24" d="M71.16,81Z"/><path class="cls-24" d="M44.64,48.53h0S44.57,48.55,44.64,48.53Z"/><path class="cls-24" d="M71.66,82.17c0,.14.18,0,.2,0S71.72,82.08,71.66,82.17Z"/><polygon class="cls-24" points="44.23 96.63 44.23 96.63 44.22 96.63 44.23 96.63"/><polygon class="cls-24" points="71.12 90.68 71.12 90.68 71.12 90.68 71.12 90.68"/><path class="cls-24" d="M78.26,73.53A3.48,3.48,0,0,1,78,72.09c-.06-.39-.31-.84-.33-1.23,0-.82-.61-1.45-.88-2.25-.11.27,1.43,3.76,1,3.85a8,8,0,0,1-.61-1.69c-.12-.86-1-1.46-1.24-2.29,0-.08-.14-.5-.18-.58.18-.45-.46-.57-.62-.85a4.7,4.7,0,0,0-1.6-.4c-.48,0-.33.42-.69.54s-.72-.36-1-.49-1.15.32-1.37.25-.44-.7-.85-.57c0,0,.16.25.13.31s-.54-.13-.51-.25a.34.34,0,0,1,.38-.06s-.45-.87-.58-.58l.06.16c-.37.05-.62-.41-.87-.34s-.77-.14-1.06-.11.27.77-.08,1-.92-.47-1.14-.6-.35-1.07-.69-1.16.08-1.05,0-1.3.19-.56.14-.63a1.93,1.93,0,0,1-.22-.69c-.1-.6-.22-.59-.67-.62,0,0-.13-1.55-.66-1.66A6.18,6.18,0,0,1,61,58.51a4.05,4.05,0,0,0-3-.94,2.5,2.5,0,0,1-2.42-1.18,5.65,5.65,0,0,0-1.17-1.56c-.36-.25-.41-1-.81-1.17s-.14-.33-.33-.46a2.67,2.67,0,0,1-.72-.57c-.22-.38-.5-.82-.75-1.17-.08-.13-.08-.41-.2-.46A7.62,7.62,0,0,1,50,49.65c-.05-.09-.37.26.19.4-.28.48-.78-.55-.82-.54.45-.1.15-.06-.16-.52-.2-.27,0-.19-.28-.11-.42.14-.2-.32-.46-.44A11.49,11.49,0,0,0,46.82,48c-.77-.22-1.53.33-2.16.56h0c-.11,0-.32.28-.38.34.26,0,.66-.18,1-.17,0,0,1,0,.6-.27-.09-.06-.18.1-.27.09,0-.18.07-.17-.07-.17s1.09,0,.28.48c.88.17.18.37.55.59s-.22.72.22.72c.21,0,.37-.13.6-.11s.28.44,0,.54c0,0,.18.59.19.7s.81.26.77.43-.88.06-.8.49c0,.16.47.35.53.5-.23.18-1.9,1.09-1.18,1.67.26.21,1.18.18,1.23.44-.26.1-.86,0-1,.29s-.46.1-.53.48c0,.07-.14.67,0,.68s.13-.16.06-.29c.24.09.09.35.05.55l-.15-.07c0,.29-.18,1.72-.19,1.76-.12.68.56,1.09.39,1.68a4,4,0,0,1-.74,1.41c-.1.14-.43.68-.54.71-.95.23-.28,1.13-.53,1.87S46.18,66.6,45.86,67a10.47,10.47,0,0,0-.48,2.07,1.54,1.54,0,0,0,.53,1.46c.63.6.59.07,1.29.07s1.18.31,1.73.06a8.46,8.46,0,0,1,.94-.5c.15,0,.62,0,.65-.29a1.23,1.23,0,0,0,.18-.28s.24.4.39.43a3.43,3.43,0,0,0,1.1-.18c.51-.16.31-.75.79-.19.43-.11,1.06.09,1.06.24s1.36,1,1.37.81c.26.43,1.91.16,2.13-.25s1-.31,1.29-.23.48.35.92.29c.19,0,.43-.22.53.08s.85-.07,1.08.16c-.11,0-.17.15-.25.23.22-.26.68-.27.82-.65.2-.57.73-.23,1.12-.58s.24,0,.7,0a3.25,3.25,0,0,1,.7,0c.08-.09-.19-.24-.06-.4s.44-.5,0-.73c-.7-.44.46-.73.26,0,0,.13.44,1,.32,1a4.38,4.38,0,0,0,.72-1.32c.57.28.09-1.62.25-1.72a1.19,1.19,0,0,0,1.18.2c.34-.06.23-.89.81-.74,1,.26,1.38,1.49,1.5,2.43.07.43,1.47-.27,1.54-.5.17-.46.28.58.27.55.15.35.22.62.07.7a7.18,7.18,0,0,0,.18,1.51c.48.34.82-1,.78-1.24s0-.47,0-.7.26-.09.35-.25c.24-.42.83-.62,1.06-.05s1.29,1.79.84,2.65c-.14.26.2.91.09,1.29,0,0-.49.89-.37.93-.17,0-.6.52-.76.42a.59.59,0,0,0-.61.12s.11.31.11.32.25-.11.28,0-.68.45-.7.46c-.34.17-.73,0-.87.35-.22.47-1-1.31-1.22-1.37s-.19-.27-.34-.17,1,2.3.73,3.06a9.93,9.93,0,0,1-.77,1.61,2,2,0,0,0-.35.73c.06.06.17.1.21,0,.09.12-.17.17-.13.33s.22.11.23.18,0,.35,0,.28l0,0c-.24.1.17.17.2.21-.37,0,0,.4-.24.6.15-.2,0-.41-.13-.53s-.08.61-.06.57a6.14,6.14,0,0,0-.66,1.11c.09,0,.13-.1.25-.09-.24.28-.59.44-.78.76a.72.72,0,0,1-.1,1,14,14,0,0,0-1.29,1.54s0,0,0,0a.15.15,0,0,1-.23,0c.16,0,.21-.17.23,0,.24-.29.3-1.29.08-.89s-1.35,1.35-1.3,1.8l.23.21c.3-.18.1-.57.48-.79.68-.4.52.26.77.36a.36.36,0,0,1,.36-.08s-.77.75-.27.59c.8-.28.8-1.37,1.4-1.69a5.76,5.76,0,0,1-1,1.85c-.52.42-1.48.61-1.77,1.26s-.7.53-.65,1.19c0,.18.51.11.63.07s-.14.08-.12.18c.85-.1,1.17.11,1.71.84.2-.45,1-1.67.93-.44.27,0,1.31.13,1.34-.43a2,2,0,0,1,.18-.88c.33-.49,0-.2-.08-.6,0-.65.62-1,.65-1.57,0-.39,0-.62.17-.92s.47,0,.48.29c-.15,0-.24,0-.27.11s.17,0,.24,0a2.69,2.69,0,0,1-.06.63s.75-.29.83-.11c.17.38.5-.08.64,0a2.69,2.69,0,0,1-.44,1.58c-.16.25-1.06,1.69-1.39,1.66-.06-.16.12-.23.16-.35-.21.06-.79.32-.9.56.06,0,.49.24.43.4a2.33,2.33,0,0,0-.4.24c-.17.17-.39.33-.38.61s-.53.9-.74.9c-1.2,0,.58-1.76.64-1.71-.13-.13-.55.46-.92.16-.1-.08-.87.1-.88.23s.36.17.4.22c-.88.08-.74.23-.35.61s-.41.21-.45.22-.45.54-.46.67c.24,0,.53-.14.76-.07s-.25.38,0,.42.61-.19.69.2A.44.44,0,0,0,69,92c-.07,0-.11,0-.15,0a.7.7,0,0,1,.32-.29c0,.08-.13.15-.06.26.38-.16.43-.49.68-.76,0,.18-.13.3-.18.46a2,2,0,0,0,.68-.93.36.36,0,0,1-.17-.07,3.58,3.58,0,0,1,.64-1c.06.23-.18.31-.16.5a.75.75,0,0,0,.27-.26,2.63,2.63,0,0,0-.3.84c.58-.26.39-1.1,1-1.31,0,.19-.29.26-.24.49.17-.13.6-1,.88-.86a10.65,10.65,0,0,0-1,1.6c.1-.05.15-.2.29-.14,0,.11-.13.18-.15.31.43-.26,1.41-1.56,1.13-1.8a.6.6,0,0,1,.5-.42c0,.17-.28.34,0,.39.33-.41.63-.82.93-1.24s.66-1,1-1.47l0,0c.3-.5.59-1,.86-1.55h0a24.21,24.21,0,0,0,1.92-5.37C77.9,78.33,78.61,74.11,78.26,73.53ZM46.18,48.36c-.09,0-.11,0,0-.12S46.26,48.24,46.18,48.36Zm1.11-.17c-.12,0-.14,0-.06-.09S47.37,48.13,47.29,48.19Zm2.91,2.1c.21-.08,0,.21,0,0Zm1.67,4.08c-.11.12.09-.12,0,0Zm3.77,6.12c.11,0-.07,0,0,0Zm7.53,8.95c.13,0-.14.07,0,0Zm8.09-1.81c-.14.14,0-.06,0,0Zm-4.85,20.8a1,1,0,0,1,.31-.44C66.71,88.22,66.53,88.28,66.41,88.43Zm1.3-.64a.25.25,0,0,1-.27,0s.47-.37.47-.54C68,87.56,67.77,87.64,67.71,87.79Zm.72-1.63c-.12,0,.18-.07,0,0Zm.94-1.56Zm.49.51h0s0,0,0,0A0,0,0,0,0,69.86,85.11Zm-.22.41c.25-.88.18-.33.2-.35a1,1,0,0,1-.15.28S69.66,85.43,69.64,85.52Zm.15,1.58c0-.09,0-.1.12,0S69.85,87.15,69.79,87.1Zm-1.32,3.74c0-.13.16-.14.23-.24C68.71,90.85,68.69,90.86,68.47,90.84Zm.29-.61.15-.09C68.81,90.44,68.74,90.25,68.76,90.23ZM71,89a.27.27,0,0,1-.15.19c-.12,0,.32-.39.15-.19C71.05,89,71,89.07,71,89Zm.21.07c-.11,0-.12,0,0-.12S71.29,89,71.24,89.07Zm4-21.11c.22-.13-.17.11,0,0Zm-.41,16.12c0,.08,0,.12-.09.18C74.73,84.17,74.74,84.12,74.82,84.08Zm-.21-1.84v.26C74.49,82.42,74.49,82.34,74.61,82.24ZM71.16,81s.8-1,.86-.73c0-.1-.17.51-.11.43a8.89,8.89,0,0,1-1,.67A.87.87,0,0,1,71.16,81Zm-.84,5.08c0-.21,0-.21.23-.28C70.5,85.94,70.36,86,70.32,86.11Zm.31-4.06c.26-.11-.07,0,0,0-.91.44.31-.65.55-.58A1,1,0,0,1,70.63,82.05Zm.46,0Zm.06.67c0-.06.06-.08.11-.06S71.18,82.74,71.15,82.7Zm.47-.38c-.41,0-.52-.55,0-.33a1.23,1.23,0,0,1,.22-1,.36.36,0,0,0,.09.35c.09,0,.13-.15.18-.22s0-.06,0,0,0,0,0,0c0,.21.06,1.13.29.64a18.79,18.79,0,0,1,.58-2c.17,0,.09,1.24.07,1.3A2.09,2.09,0,0,1,71.62,82.32Zm1.25.89v0s0,0,0,0,0-.34.12-.3S73,83.29,72.87,83.21Zm-.39-.57c-.19-.07-.39-.44-.08-.52-.08,0,.83-.41.72-.22a1.09,1.09,0,0,1,.65-.52,3.63,3.63,0,0,1-.36.61s.08-.09,0,0C73,82.45,73,82.83,72.48,82.64ZM74,87.35a2.67,2.67,0,0,1-.58.8,2.35,2.35,0,0,1,.59-.81Zm.34-4.86a.21.21,0,0,1,0,.18h0c0,.11,0,.51.11.57-.08,0,.36-.16.23,0s-.36.58-.47.54S74.22,82.63,74.33,82.49Zm.29,3.5c0,.05-.25.47-.32.44s.37-.64.4-.67a.34.34,0,0,1-.08.23Zm-.19-.48s.38-.45.47-.56C74.82,85.07,74.52,85.63,74.43,85.51Z"/><path class="cls-24" d="M29.34,54.42c.48-.2,1.95-1.77,2.3-1.44.21,0,.83-.78,1-.94.47-.35.88-.79,1.33-1.17.74-.64,1.35-1.42,2.14-2,.32-.23,2.55-1.63,2.9-1.25.19.24.75.08,1,.21a4.16,4.16,0,0,0,.74.29c.08.17-.29.4-.42.46.2.2,0,.2-.11.37a5.48,5.48,0,0,0,1.22-1c0-.11-.17-.12-.15-.34s.27-.21.27-.26c0-.21-.79.28-.63-.13,0,0,.64-.43.75-.51-.05-.09-1,.21-1.16.13,1-.42,1.87-1.05,3-1.49-.4-.07-.72.21-1.13.2a4,4,0,0,1,1-.41l.07,0-.8.22a25.43,25.43,0,0,0-5.86,2.62,1.18,1.18,0,0,0-.19.11l-.66.42-.37.23c-.62.41-1.21.84-1.79,1.3l-.08.06c-.51.41-1,.83-1.49,1.27l-.19.16-.11.12c-.42.42-1.69,1.77-2.29,2.45a4.13,4.13,0,0,0-.27.34s-.06.07-.05.07S29.35,54.41,29.34,54.42Z"/><path class="cls-24" d="M73.4,82v0S73.35,82.05,73.4,82Z"/><path class="cls-24" d="M74.41,83.25c-.07.12,0,.17,0,.15S74.5,83.25,74.41,83.25Z"/><path class="cls-24" d="M51.81,96.42c.25.36,1.86.2,2.31.17s1.09.26,1.5-.07c-.09-.08-.87-.62-1-.29a2.51,2.51,0,0,1-1.11,0c0-.1.11-.12.19-.16-.11,0-.55-.23-.45-.3h0s-.49.27-.55.22.3-.29,0-.5C52.68,95.74,51.66,96.25,51.81,96.42Z"/><path class="cls-24" d="M60.77,71.25c.17-.12.09-.45.08-.45S60.47,71.25,60.77,71.25Z"/><path class="cls-24" d="M60.85,70.8c-.25.11,0,0,0,0Z"/><path class="cls-24" d="M68.18,60.51c.21.19-.13-.25,0,0Z"/><path class="cls-24" d="M64.47,61.34Z"/><path class="cls-24" d="M60.68,97.69s-.18.14-.08.12a3.46,3.46,0,0,0,1.13-.45c-.36.06-.69.24-1,.33C61,97.6,60.65,97.7,60.68,97.69Z"/><path class="cls-24" d="M29.32,54.43h0S29.33,54.44,29.32,54.43Z"/><path class="cls-24" d="M68.52,92.75h0S68.5,92.75,68.52,92.75Z"/><path class="cls-24" d="M32.53,92.64c-.37-.35-.74-.7-1.1-1.06A3.81,3.81,0,0,0,32.53,92.64Z"/><path class="cls-24" d="M27.6,85.62h0C27.59,85.57,27.56,85.48,27.6,85.62Z"/><path class="cls-24" d="M23.45,75.87a.88.88,0,0,1,0,.17c0,.16.05.32.07.48s0,.17.05.26A9.07,9.07,0,0,0,23.45,75.87Z"/><path class="cls-24" d="M62.58,95.36a7.91,7.91,0,0,0-.8.46s.4,0,.45.06c.23.2,0,.09.15.35.1-.17.66,0,.83-.08s.18.31.45.18a8.32,8.32,0,0,1,.85-.41c.77-.31,1.35-1,2.11-1.29a5.39,5.39,0,0,0,2.15-1.74c-.25,0,.14-.26.18-.36-.15,0-.28.16-.42.21.09,0,0,0,0,0-.7.29-1,1.36-1.78,1.62,0-.35,1-.72.78-1-.1-.11-.73.41-.92.4-.42,0-.18-.4-.35-.55a.42.42,0,0,1-.57.16c.28-.12.5-.14.52-.46-.28,0-.81.58-.3-.08s-.5-.94-.88-1.07c-.18-.06-1.49,0-1.51.33a2.64,2.64,0,0,0,.16,1.26c-.23.29-.65.52-.82.86-.27.55-.89.87-1.08,1.47.18-.09.5-.34.68-.4S62.64,95.33,62.58,95.36Z"/><path class="cls-24" d="M54.11,95.83c.17,0,1.28.21.75-.18l.21-.24c-.39.09-.51-.29-.73-.35C53.89,95,53.45,95.65,54.11,95.83Z"/><path class="cls-24" d="M54,69.85c0,.08.11,0,0,0Z"/><path class="cls-24" d="M55.71,96.25s0,0,0,0,0,.11.12.1-.18-.21-.23-.2A.12.12,0,0,1,55.71,96.25Z"/><path class="cls-24" d="M60.29,95.7c.09-.09.72-.41.65-.48s-.54.07-.66,0c-.49-.1-.87.36-1.11.7S60.15,95.82,60.29,95.7Z"/><path class="cls-24" d="M55.59,96.14l0,0s0,0,0,0Z"/><path class="cls-24" d="M71.12,90.69a.11.11,0,0,0-.09.09S71.11,90.74,71.12,90.69Z"/><path class="cls-24" d="M64.07,73.44c1.29-.12-.13-.87,0,0C64.05,73.31,64.29,73.42,64.07,73.44Z"/><path class="cls-24" d="M54.11,95.83c-.15,0,0,0,0,0Z"/><path class="cls-24" d="M47.41,51.59c.25-.2-.31-.29-.19-.08A.2.2,0,0,0,47.41,51.59Z"/><path class="cls-24" d="M68.68,60.62a.83.83,0,0,0-.26-.45c-.12,0-.15.09-.09.19A4,4,0,0,0,68.68,60.62Z"/><path class="cls-24" d="M60.94,95.22Z"/><path class="cls-24" d="M68.33,60.36s.12.1,0,0Z"/><path class="cls-24" d="M66.07,86.65s0,0,0,0h0Z"/><path class="cls-24" d="M65.76,87.88h0Z"/><path class="cls-24" d="M67.11,71.62Z"/><path class="cls-24" d="M69.39,92l.2-.09Z"/><path class="cls-24" d="M65.56,73.06c.35,0,1.44-.19,1.51-.67-.34.09-.28-.12-.57-.25.08-.1.84-.54.61-.52-.39,0-.64.51-1.07.31-.2.34-.29.74-.81.81s.37.2.4.21S65.56,73,65.56,73.06Z"/><path class="cls-24" d="M69.59,91.87c0,.13-.33.16-.2.09a1.33,1.33,0,0,0-.77.61C69.17,92.32,69.37,92.43,69.59,91.87Z"/><path class="cls-24" d="M70.39,91h0Z"/><path class="cls-24" d="M71,90.78s0,0,0,0S71,90.77,71,90.78Z"/><path class="cls-24" d="M70.33,91.1s.06,0,0-.08A.06.06,0,0,0,70.33,91.1Z"/><path class="cls-24" d="M70.89,90.59a1,1,0,0,0-.45.61A1.24,1.24,0,0,0,70.89,90.59Z"/><path class="cls-24" d="M70.33,91.1a1.11,1.11,0,0,0-.48.48A.9.9,0,0,0,70.33,91.1Z"/><path class="cls-24" d="M70,91.73c-.07,0-.11,0-.18,0h0c-.17-.08-.15.31-.15.33S70,91.91,70,91.73Z"/><path class="cls-24" d="M64.49,87.56c.29-.13.19.44.55,0a2.18,2.18,0,0,0,.53-.15c.07,0-.12.62-.13.68.27-.08.25-.21.3-.36s.2-.67.29-1.08h0l0,0c0-.2.07-.35,0-.37s-.89.51-1.09.51c0-.11.1-.13.07-.22-.11.06-.33.49-.43.46a.28.28,0,0,1-.06-.18C64,86.71,64.49,87.5,64.49,87.56Zm.09-.3s-.11.19-.07,0S64.61,87.13,64.58,87.26Z"/><path class="cls-24" d="M65.74,87.74s.08-.19,0,0Z"/><path class="cls-22" d="M31.89,29.12l-5.43-9.07-9.53,5.7,5.43,9.07A46.4,46.4,0,0,1,27,31.68,45.39,45.39,0,0,1,31.89,29.12Z"/><path class="cls-24" d="M75.06,112A46.82,46.82,0,0,0,31.89,29.12,45.39,45.39,0,0,0,27,31.68,46.83,46.83,0,1,0,75.06,112ZM18.39,91.38a38,38,0,1,1,52.13,13.09A38,38,0,0,1,18.39,91.38Z"/><polygon class="cls-22" points="24.45 10.49 18.34 0.28 18.17 0 0 0 0 0.28 0 3.67 9.45 19.47 24.45 10.49"/><polygon class="cls-24" points="8.21 20.21 12.95 28.13 30.44 17.66 25.7 9.74 24.45 10.49 9.45 19.47 8.21 20.21"/><path class="cls-29" d="M113.06,51.46a65.71,65.71,0,0,0-2.57-6.57l-2.75,1.25a62.12,62.12,0,0,1,2.45,6.27Z"/><path class="cls-29" d="M73.86,129.82,75,132.63a67.56,67.56,0,0,0,6.41-2.95L80,127A63.7,63.7,0,0,1,73.86,129.82Z"/><path class="cls-29" d="M112.89,79l3,.35a66.34,66.34,0,0,0,.43-7l-3,0A60.27,60.27,0,0,1,112.89,79Z"/><path class="cls-29" d="M109.92,92.09l2.86,1a63.8,63.8,0,0,0,1.92-6.78l-2.94-.67A61.22,61.22,0,0,1,109.92,92.09Z"/><path class="cls-29" d="M85.76,123.56l1.68,2.51a67,67,0,0,0,5.64-4.24l-2-2.31A62.76,62.76,0,0,1,85.76,123.56Z"/><path class="cls-29" d="M60.91,133.38l.48,3a62.67,62.67,0,0,0,6.89-1.5l-.8-2.91A59.66,59.66,0,0,1,60.91,133.38Z"/><path class="cls-29" d="M113,65.55l3-.31a63.11,63.11,0,0,0-1.09-7l-3,.63A64.74,64.74,0,0,1,113,65.55Z"/><path class="cls-29" d="M33.42,134.76a65.19,65.19,0,0,0,6.89,1.53l.49-3a61.5,61.5,0,0,1-6.56-1.47Z"/><path class="cls-29" d="M8.68,121.62a64.54,64.54,0,0,0,5.62,4.28L16,123.4a61.94,61.94,0,0,1-5.36-4.07Z"/><path class="cls-29" d="M54.37,137.1l-.15-3a60.43,60.43,0,0,1-6.73,0l-.17,3A66.32,66.32,0,0,0,54.37,137.1Z"/><path class="cls-29" d="M75.74,11.42a68.07,68.07,0,0,0-6.66-2.31L68.24,12a62.1,62.1,0,0,1,6.36,2.21Z"/><path class="cls-29" d="M62.2,7.53a68.55,68.55,0,0,0-7-.84l-.2,3a60,60,0,0,1,6.68.8Z"/><path class="cls-29" d="M5.75,114.69a62.87,62.87,0,0,1-4.34-5.13L0,110.62v2c1.14,1.42,2.32,2.82,3.56,4.13Z"/><path class="cls-29" d="M48.27,9.63l-.13-3a66,66,0,0,0-7,.68l.45,3A62.6,62.6,0,0,1,48.27,9.63Z"/><path class="cls-29" d="M88.14,18.13a65.94,65.94,0,0,0-6-3.69l-1.43,2.65a61.9,61.9,0,0,1,5.73,3.52Z"/><path class="cls-29" d="M106.8,105.83a67.62,67.62,0,0,0,3.34-6.22l-2.74-1.28a63.62,63.62,0,0,1-3.17,5.93Z"/><path class="cls-29" d="M96.59,29.4l2.22-2a63.5,63.5,0,0,0-5.09-4.9l-2,2.28A61,61,0,0,1,96.59,29.4Z"/><path class="cls-29" d="M0,33.34v2.8c.43-.61.85-1.23,1.3-1.82Z"/><path class="cls-29" d="M20.34,129.54a67.46,67.46,0,0,0,6.4,3l1.12-2.8a62.59,62.59,0,0,1-6.11-2.83Z"/><path class="cls-29" d="M98.22,117a65,65,0,0,0,4.6-5.36l-2.39-1.84A62.87,62.87,0,0,1,96,114.92Z"/><path class="cls-29" d="M104.63,40.17l2.6-1.52-.19-.33c-1.15-1.91-2.4-3.78-3.72-5.55l-2.42,1.8a61.93,61.93,0,0,1,3.55,5.3Z"/><path class="cls-22" d="M152,273.33l-21-84.25a16.07,16.07,0,0,0-16.31-12.18,15.16,15.16,0,0,0-3.17.46L0,205.09v12l107.94-26.85,0,.2.53-.13,23,92.44L62.21,300h49.14l2.64-.66,26.24-6.52A16.09,16.09,0,0,0,152,273.33Zm-22.41-16.48-10.75-43.22a3.91,3.91,0,1,1,7.59-1.89L137.13,255a3.91,3.91,0,1,1-7.59,1.89Z"/><polygon class="cls-22" points="0 300 6.85 300 0 272.47 0 300"/><path class="cls-28" d="M0,217.1V272l6.81,27.38H61.88l68.93-17.14L108,190.45l0-.2Zm22,76.78L18.08,278a5.65,5.65,0,1,1,2.46-9.63l14.86-6a5.65,5.65,0,0,1,4.28-5.14l.36-.07,2.67-9.78a5.49,5.49,0,0,1-1.81-2.92,5.64,5.64,0,0,1,10.43-4.05l19.75-1.07a5.63,5.63,0,0,1,6.4-3.38l14.81-19.35a5.12,5.12,0,0,1-.46-1.22,5.64,5.64,0,1,1,6.83,4.12l13,52Z"/><path class="cls-24" d="M134.28,259.71a3.91,3.91,0,0,0,2.85-4.75l-10.75-43.22a3.91,3.91,0,1,0-7.59,1.89l10.75,43.22A3.91,3.91,0,0,0,134.28,259.71Z"/><path class="cls-30" d="M96.13,219.6,81.31,239a5.12,5.12,0,0,1,.46,1.22,5.64,5.64,0,0,1-10.43,4L51.59,245.3a5.62,5.62,0,0,1-3.85,3.34l-.37.07-2.66,9.78a5.64,5.64,0,1,1-7.5,8.43l-14.86,6A5.66,5.66,0,0,1,18.08,278L22,293.88l89.59-22.29-13-52A5.55,5.55,0,0,1,96.13,219.6Z"/><path class="cls-31" d="M42.52,257.33a5.65,5.65,0,0,1,2.19,1.16l2.66-9.78a5.74,5.74,0,0,1-2.48-.1,5.84,5.84,0,0,1-2.18-1.17L40,257.22A5.59,5.59,0,0,1,42.52,257.33Z"/><path class="cls-31" d="M52,242.86a5.59,5.59,0,0,1-.42,2.44l19.75-1.07a5.93,5.93,0,0,1-.52-1.33,5.55,5.55,0,0,1-.16-1.06,5.74,5.74,0,0,1,.42-2.44l-19.75,1.07a5.75,5.75,0,0,1,.52,1.33A5.43,5.43,0,0,1,52,242.86Z"/><path class="cls-31" d="M22.19,271.19a5.9,5.9,0,0,1,.16,1.71l14.86-6a5.67,5.67,0,0,1-1.4-2.05,5.38,5.38,0,0,1-.41-2.44l-14.86,6a5.66,5.66,0,0,1,1.41,2A6.39,6.39,0,0,1,22.19,271.19Z"/><path class="cls-31" d="M81.31,239,96.13,219.6a5.61,5.61,0,0,1-3.84-2.93L77.48,236a5.72,5.72,0,0,1,2.25,1A5.61,5.61,0,0,1,81.31,239Z"/><path class="cls-32" d="M22.35,272.9a5.9,5.9,0,0,0-.16-1.71,6.39,6.39,0,0,0-.24-.74,5.65,5.65,0,1,0,.4,2.45Z"/><path class="cls-32" d="M35.81,264.87a5.64,5.64,0,0,0,10.71-3.46A5.65,5.65,0,0,0,40,257.22l-.36.07a5.65,5.65,0,0,0-4.28,5.14,5.38,5.38,0,0,0,.41,2.44Z"/><path class="cls-32" d="M47.37,248.71l.37-.07A5.67,5.67,0,0,0,52,242.86a5.43,5.43,0,0,0-.16-1.06,5.75,5.75,0,0,0-.52-1.33,5.64,5.64,0,0,0-10.43,4.05,5.49,5.49,0,0,0,1.81,2.92,5.84,5.84,0,0,0,2.18,1.17A5.74,5.74,0,0,0,47.37,248.71Z"/><path class="cls-32" d="M70.82,242.9a5.93,5.93,0,0,0,.52,1.33,5.64,5.64,0,0,0,10.43-4,5.12,5.12,0,0,0-.46-1.22,5.61,5.61,0,0,0-1.58-1.9,5.72,5.72,0,0,0-2.25-1,5.63,5.63,0,0,0-6.4,3.38,5.74,5.74,0,0,0-.42,2.44A5.55,5.55,0,0,0,70.82,242.9Z"/><path class="cls-32" d="M93.88,218.57a5.64,5.64,0,0,0,2.25,1,5.55,5.55,0,0,0,2.53,0,5.65,5.65,0,1,0-6.83-4.12,5.12,5.12,0,0,0,.46,1.22A5.64,5.64,0,0,0,93.88,218.57Z"/><path class="cls-33" d="M569.27.77,580.8,59.46l0,.09,21.29-4.18c6.78-1.33,13.68,4.68,15.4,13.45l34.3,174.62c1.45,7.36,6.56,12.77,12.18,13.53a10,10,0,0,0,3.22-.08c5.95-1.17,9.83-7.59,9.55-15a21.08,21.08,0,0,0-.38-3.22L629.56.28,629.5,0H573.21L571.8.28h0Z"/><path class="cls-34" d="M664,257c-5.62-.76-10.73-6.17-12.18-13.53L617.51,68.82c-1.72-8.77-8.62-14.78-15.4-13.45s-10.89,9.51-9.17,18.28l10.74,54.68h0l11.1,56.54,5-1a8.46,8.46,0,0,1,9.93,6.66l13.94,71,.18,0,23.41-4.6A10,10,0,0,1,664,257Z"/><path class="cls-28" d="M603.68,128.33,592.94,73.65c-1.72-8.77,2.39-17,9.17-18.28l-21.29,4.18L544,66.79a9.78,9.78,0,0,0-2.29.76c-5.38,2.52-8.4,9.79-6.88,17.52l11.37,57.86h0l10.41,53,.07.36,58.14-11.42h0l-11.1-56.54Z"/><path class="cls-22" d="M648.28,286.77a8.39,8.39,0,0,0-.13-2.17l-4.53-23.07-13.94-71a8.46,8.46,0,0,0-9.93-6.66l-5,1h0l-58.14,11.42-6,1.19a8.48,8.48,0,0,0-6.67,9.93L562,299.34l.13.66H613.6l3.35-.66,24.53-4.82A8.44,8.44,0,0,0,648.28,286.77Zm-30.83-9.35,9.95-2,2,10-10,1.95Zm8.21-10.81-9.95,2-.3-1.5-1.66-8.46,10-1.95,1.66,8.45ZM615.47,241a5.07,5.07,0,1,1-4,6A5.07,5.07,0,0,1,615.47,241Zm-51.72.68-6.41-32.64,1.76-.34,58.13-11.42h0l.67-.14,6.41,32.64-.67.13h0l-58.14,11.42Zm8.44,13a5.08,5.08,0,1,1,6,4A5.08,5.08,0,0,1,572.19,254.71Zm2.29,11.62,9.95-2,2,10-10,1.95Zm5.65,28.76-2-9.95,10-2,2,9.95Zm11.7-44.24a5.08,5.08,0,1,1,6,4A5.07,5.07,0,0,1,591.83,250.85Zm2.28,11.62,2.45-.48,7.51-1.48,1.54,7.86.42,2.1-10,1.95Zm5.65,28.76-2-10,10-2,2,9.95Z"/><polygon class="cls-30" points="623.65 229.95 624.32 229.82 617.91 197.18 617.24 197.32 617.23 197.32 559.1 208.74 557.34 209.08 563.75 241.72 565.51 241.37 623.64 229.95 623.65 229.95"/><path class="cls-31" d="M578.15,258.71a5.08,5.08,0,1,0-6-4A5.08,5.08,0,0,0,578.15,258.71Z"/><rect class="cls-35" x="575.36" y="265.26" width="10.15" height="10.14" transform="translate(-41.22 116.96) rotate(-11.11)"/><rect class="cls-35" x="579.05" y="284.06" width="10.15" height="10.14" transform="translate(-44.78 118.02) rotate(-11.11)"/><path class="cls-31" d="M597.79,254.85a5.07,5.07,0,1,0-6-4A5.08,5.08,0,0,0,597.79,254.85Z"/><polygon class="cls-35" points="605.61 268.37 604.07 260.51 596.56 261.99 594.11 262.47 596.07 272.42 606.03 270.47 605.61 268.37"/><rect class="cls-35" x="598.69" y="280.2" width="10.15" height="10.14" transform="translate(-43.67 121.73) rotate(-11.11)"/><path class="cls-31" d="M617.43,251a5.07,5.07,0,1,0-6-4A5.06,5.06,0,0,0,617.43,251Z"/><polygon class="cls-35" points="613.75 258.61 615.41 267.07 615.71 268.57 625.66 266.61 625.37 265.11 623.71 256.66 613.75 258.61"/><rect class="cls-35" x="618.33" y="276.35" width="10.15" height="10.14" transform="translate(-42.56 125.45) rotate(-11.11)"/><path class="cls-25" d="M419.67,65.27l-7.08,12.25-7.07-12.25h0l-3.36-5.82a20.89,20.89,0,1,0,20.87,0l-3.36,5.82Z"/><path class="cls-27" d="M452.41,69.78a5.57,5.57,0,1,0-5.57-5.56A5.56,5.56,0,0,0,452.41,69.78Z"/><rect class="cls-22" x="443.31" y="82.19" width="4.87" height="4.87"/><rect class="cls-22" x="480.13" y="82.19" width="4.56" height="4.87"/><rect class="cls-22" x="461.87" y="82.19" width="4.56" height="4.87"/><rect class="cls-22" x="471" y="82.19" width="4.56" height="4.87"/><rect class="cls-22" x="452.74" y="82.19" width="4.56" height="4.87"/><rect class="cls-22" x="489.25" y="82.19" width="4.87" height="4.87"/><polygon class="cls-22" points="489.25 123.57 490.51 123.57 494.13 123.57 494.13 119.01 493.04 119.01 489.25 119.01 489.25 123.57"/><rect class="cls-22" x="489.25" y="91.63" width="4.87" height="4.56"/><rect class="cls-22" x="489.25" y="109.88" width="4.87" height="4.56"/><rect class="cls-22" x="489.25" y="100.76" width="4.87" height="4.56"/><rect class="cls-22" x="489.25" y="128.14" width="4.87" height="4.87"/><rect class="cls-22" x="461.87" y="128.14" width="4.56" height="4.87"/><rect class="cls-22" x="452.74" y="128.14" width="4.56" height="4.87"/><polygon class="cls-22" points="480.13 128.14 480.13 133.01 484.09 133.01 484.69 133.01 484.69 132.23 484.69 128.14 480.13 128.14"/><rect class="cls-22" x="471" y="128.14" width="4.56" height="4.87"/><rect class="cls-22" x="443.31" y="128.14" width="4.87" height="4.87"/><rect class="cls-22" x="443.31" y="91.63" width="4.87" height="4.56"/><rect class="cls-22" x="443.31" y="119.01" width="4.87" height="4.56"/><rect class="cls-22" x="443.31" y="100.76" width="4.87" height="4.56"/><rect class="cls-22" x="443.31" y="109.89" width="4.87" height="4.56"/><rect class="cls-27" x="456.88" y="95.77" width="23.67" height="23.67"/><rect class="cls-22" x="347.02" y="74.16" width="12.3" height="12.3"/><polygon class="cls-27" points="386.1 136.81 386.1 97.26 346.54 97.26 386.1 136.81"/><polygon class="cls-25" points="435.2 128.85 415.71 128.85 425.46 145.73 435.2 128.85"/><path class="cls-28" d="M405.81,41.11c0-.1,0-.2,0-.3v.09Z"/><path class="cls-28" d="M392.53,42.71l.14.3.24.42h0A6.23,6.23,0,0,1,392.53,42.71Z"/><path class="cls-28" d="M433.08,41.62h0l0,.13Z"/><path class="cls-28" d="M392.11,41.62s0,.07,0,.11l0-.12Z"/><path class="cls-28" d="M426.41,46.68a6.91,6.91,0,0,1-6.91-6.91,6.91,6.91,0,0,1-13.67,1.42L408.77,57l1.54,8.27h9.36L423,59.45l9.25-16,.24-.42.15-.32A6.91,6.91,0,0,1,426.41,46.68Z"/><polygon class="cls-28" points="405.68 39.77 405.68 39.77 405.68 39.77 405.68 39.77"/><path class="cls-36" d="M410.31,65.27h0L408.77,57l-2.94-15.81s0-.06,0-.08l0-.21v-.09a7.18,7.18,0,0,1-.09-1h0a6.9,6.9,0,0,1-12.76,3.66h0l9.25,16,3.36,5.82Z"/><polygon class="cls-22" points="412.59 77.52 419.67 65.27 419.67 65.27 410.31 65.27 410.31 65.27 412.59 77.52"/><polygon class="cls-24" points="405.52 65.27 405.52 65.27 412.59 77.52 410.31 65.27 405.52 65.27"/><path class="cls-37" d="M419.51,38.2v1.47s0,.06,0,.1a6.91,6.91,0,0,0,13.17,2.92c0-.09.09-.18.12-.27a2.79,2.79,0,0,0,.14-.37c0-.11.07-.21.11-.31l0-.13a6.93,6.93,0,0,0,.25-1.84V0H419.51V38.2Z"/><path class="cls-38" d="M405.69,38.19V39.6c0,.06,0,.11,0,.17h0a7.18,7.18,0,0,0,.09,1c0,.1,0,.2,0,.3s0,0,0,.08a6.91,6.91,0,0,0,13.67-1.42s0-.07,0-.1V0H405.69V38.19Z"/><path class="cls-39" d="M392.12,41.61l0,.12c0,.11.07.22.11.33s.08.24.13.36.09.19.14.29a6.23,6.23,0,0,0,.39.72,6.9,6.9,0,0,0,12.76-3.66h0c0-.06,0-.11,0-.17V0H391.86V39.77A6.93,6.93,0,0,0,392.12,41.61Z"/><path class="cls-28" d="M296,129.5a6.12,6.12,0,1,0,6.13,6.11A6.12,6.12,0,0,0,296,129.5Z"/><path class="cls-28" d="M139.24,26.17a3.5,3.5,0,1,0,3.51,3.5A3.51,3.51,0,0,0,139.24,26.17Z"/><path class="cls-24" d="M315.79,28.67a2.49,2.49,0,1,0,2.49,2.49A2.5,2.5,0,0,0,315.79,28.67Z"/><path class="cls-24" d="M168.33,240.22a3.49,3.49,0,1,0,3.5,3.47A3.5,3.5,0,0,0,168.33,240.22Z"/><path class="cls-24" d="M35.38,160.65a6,6,0,1,0,6,6A6,6,0,0,0,35.38,160.65Z"/><path class="cls-24" d="M507.38,185.65a6,6,0,1,0,6,6A6,6,0,0,0,507.38,185.65Z"/><path class="cls-28" d="M466.79,239.67a2.49,2.49,0,1,0,2.49,2.49A2.5,2.5,0,0,0,466.79,239.67Z"/><path class="cls-24" d="M767.63,113.64a14.16,14.16,0,0,0-.58-3.93l.25-.08,30,46.08h6.89V98.31H797.3V141a13.81,13.81,0,0,0,.57,3.94l-.24.08-30-46.74h-6.89v57.4h6.9Z"/><polygon class="cls-24" points="844.96 149.97 815.11 149.97 815.11 129.47 840.37 129.47 840.37 123.73 815.11 123.73 815.11 104.05 844.96 104.05 844.96 98.31 808.22 98.31 808.22 155.71 844.96 155.71 844.96 149.97"/><polygon class="cls-24" points="866.64 155.71 873.53 155.71 873.53 104.05 891.73 104.05 891.73 98.31 848.45 98.31 848.45 104.05 866.64 104.05 866.64 155.71"/><path class="cls-24" d="M931,154.05c.91-.77,1.56-1.31,2-1.64a5.12,5.12,0,0,0,2-4.1V133.56a7.12,7.12,0,0,0-.2-2,3.39,3.39,0,0,0-1-1.19l-3.93-3.2a3.93,3.93,0,0,0-2.3-1.06v-.41a3.9,3.9,0,0,0,2.36-1.09l2.79-2.13a3.43,3.43,0,0,0,1.31-2.79v-14a5.14,5.14,0,0,0-2-4.1L930,100a6.26,6.26,0,0,0-3.93-1.64H895.73v57.38H927A6.15,6.15,0,0,0,931,154.05Zm-28.36-50H923a10,10,0,0,1,1.89.12,4.38,4.38,0,0,1,1.15.7,2.68,2.68,0,0,1,.86.94,7.19,7.19,0,0,1,.12,1.6v10.66a6.12,6.12,0,0,1-.17,1.81,3.91,3.91,0,0,1-1.14,1.22l-2.12,1.73a4.4,4.4,0,0,1-1.27.78,9,9,0,0,1-1.93.12h-17.8ZM924,150H902.61v-20.5h19.16a7.51,7.51,0,0,1,1.64.12,5.54,5.54,0,0,1,1.4.94l1.8,1.48,0,0a4.24,4.24,0,0,1,1.23,1.23A5.84,5.84,0,0,1,928,135V146.6a7,7,0,0,1-.12,1.59,2.45,2.45,0,0,1-.86,1,3.75,3.75,0,0,1-1.15.69A7.9,7.9,0,0,1,924,150Z"/><path class="cls-24" d="M940.57,152.41l2,1.64a6.13,6.13,0,0,0,3.93,1.64h30a6.18,6.18,0,0,0,3.94-1.64l2-1.64a5.13,5.13,0,0,0,2-4.1V105.69a5.14,5.14,0,0,0-2-4.1l-2-1.64a6.29,6.29,0,0,0-3.94-1.64h-30a6.24,6.24,0,0,0-3.93,1.64l-2,1.64a5.14,5.14,0,0,0-2,4.1v42.62A5.13,5.13,0,0,0,940.57,152.41Zm4.95-45a6.17,6.17,0,0,1,.12-1.6,2.59,2.59,0,0,1,.86-.94,4.22,4.22,0,0,1,1.15-.7,9.19,9.19,0,0,1,1.89-.12h23.94a10,10,0,0,1,1.89.12,4.32,4.32,0,0,1,1.14.7,2.51,2.51,0,0,1,.86.94,6.18,6.18,0,0,1,.13,1.6v39.2a5.64,5.64,0,0,1-.13,1.59,2.39,2.39,0,0,1-.86,1,4,4,0,0,1-1.14.69,8,8,0,0,1-1.89.13H949.54a7.49,7.49,0,0,1-1.89-.13,3.75,3.75,0,0,1-1.15-.69,2.45,2.45,0,0,1-.86-1,6,6,0,0,1-.12-1.59Z"/><path class="cls-24" d="M990.79,152.43l2,1.64a6.13,6.13,0,0,0,3.94,1.64h30a6.16,6.16,0,0,0,4-1.66l2-1.64a5.13,5.13,0,0,0,2-4.1V105.69a5.14,5.14,0,0,0-2-4.1l-2-1.64a6.19,6.19,0,0,0-4-1.64h-30a6.13,6.13,0,0,0-3.94,1.64l-2,1.64a5.14,5.14,0,0,0-2,4.1v42.64A5.13,5.13,0,0,0,990.79,152.43Zm4.94-45a6.69,6.69,0,0,1,.16-1.6,2.53,2.53,0,0,1,.87-.94,4.17,4.17,0,0,1,1.14-.7,10,10,0,0,1,1.89-.12h23.94a9.8,9.8,0,0,1,1.87.12,4.32,4.32,0,0,1,1.14.7,2.7,2.7,0,0,1,.87.94,7.19,7.19,0,0,1,.12,1.6v39.2a6.51,6.51,0,0,1-.1,1.59,2.55,2.55,0,0,1-.87,1,4,4,0,0,1-1.14.69,8,8,0,0,1-1.89.13h-24a8,8,0,0,1-1.89-.13,3.91,3.91,0,0,1-1.14-.69,2.4,2.4,0,0,1-.87-1,6,6,0,0,1-.12-1.59Z"/><path class="cls-24" d="M1040.66,152.41l2,1.64a6.16,6.16,0,0,0,3.94,1.64h23.45a6.15,6.15,0,0,0,3.93-1.64l2-1.64a5.13,5.13,0,0,0,2-4.1V131.15a5.14,5.14,0,0,0-2-4.1l-2-1.64a6.26,6.26,0,0,0-3.93-1.64h-19.6a8.45,8.45,0,0,1-1.88-.12,4,4,0,0,1-1.15-.7,2.51,2.51,0,0,1-.86-.94,6.11,6.11,0,0,1-.13-1.6v-13a6.18,6.18,0,0,1,.13-1.6,2.59,2.59,0,0,1,.86-.94,4.22,4.22,0,0,1,1.15-.7,9.85,9.85,0,0,1,1.88-.12h15.81a9.85,9.85,0,0,1,1.88.12,4.22,4.22,0,0,1,1.15.7,2.59,2.59,0,0,1,.86.94,7.19,7.19,0,0,1,.12,1.6V109h6.89v-3.28a5.14,5.14,0,0,0-2-4.1l-2-1.64a6.26,6.26,0,0,0-3.93-1.64h-21.81a6.18,6.18,0,0,0-3.87,1.61l-2,1.64a5.14,5.14,0,0,0-2,4.1v17a4.11,4.11,0,0,0,1.72,3.28l2.21,1.89a6.16,6.16,0,0,0,3.94,1.64H1067a9.18,9.18,0,0,1,1.81.12,4.22,4.22,0,0,1,1.15.7,2.59,2.59,0,0,1,.86.94,7.19,7.19,0,0,1,.12,1.6v13.78a7,7,0,0,1-.12,1.59,2.45,2.45,0,0,1-.86,1,3.75,3.75,0,0,1-1.15.69,7.9,7.9,0,0,1-1.88.13h-17.39a7.9,7.9,0,0,1-1.88-.13,3.75,3.75,0,0,1-1.15-.69,2.45,2.45,0,0,1-.86-1,6,6,0,0,1-.13-1.59v-1.56h-6.88v3.26A5.13,5.13,0,0,0,1040.66,152.41Z"/><polygon class="cls-24" points="1098.84 155.71 1105.73 155.71 1105.73 104.05 1124.02 104.05 1124.02 98.31 1080.73 98.31 1080.73 104.05 1098.84 104.05 1098.84 155.71"/><path class="cls-24" d="M890,200.47a6.1,6.1,0,0,1-1.37,1,5.6,5.6,0,0,1-1.52.6,6.42,6.42,0,0,1-1.54.19,5.76,5.76,0,0,1-2.64-.61,7,7,0,0,1-2.1-1.65,8.22,8.22,0,0,1-1.4-2.39,7.93,7.93,0,0,1-.51-2.83,8.41,8.41,0,0,1,.43-2.66,7.36,7.36,0,0,1,1.26-2.36,6.43,6.43,0,0,1,2.06-1.7,6,6,0,0,1,2.83-.65,6.82,6.82,0,0,1,1.47.16,5.66,5.66,0,0,1,1.45.54,5.49,5.49,0,0,1,1.31,1,5.23,5.23,0,0,1,1,1.48l1.38-.85a6.64,6.64,0,0,0-2.49-2.8,7.39,7.39,0,0,0-4.06-1.08,8,8,0,0,0-3.58.79,8.57,8.57,0,0,0-2.65,2,8.83,8.83,0,0,0-1.64,2.84,9.62,9.62,0,0,0,1.77,9.45,8.58,8.58,0,0,0,2.62,2.08,7,7,0,0,0,3.35.8,8.5,8.5,0,0,0,2.09-.27,8.35,8.35,0,0,0,2-.8,8,8,0,0,0,1.73-1.29,5.61,5.61,0,0,0,1.2-1.76L891,199A5.68,5.68,0,0,1,890,200.47Z"/><path class="cls-24" d="M905.31,192.48a6.49,6.49,0,0,0-2-1.48,6.15,6.15,0,0,0-2.58-.55,6.09,6.09,0,0,0-2.58.55,6.68,6.68,0,0,0-2,1.48,7.14,7.14,0,0,0-1.36,7.32A6.51,6.51,0,0,0,896,202a6.15,6.15,0,0,0,4.64,2,6.19,6.19,0,0,0,4.66-2,6.68,6.68,0,0,0,1.34-2.15,7.14,7.14,0,0,0,.47-2.57,6.87,6.87,0,0,0-.49-2.6A6.64,6.64,0,0,0,905.31,192.48Zm-.26,6.77a5.43,5.43,0,0,1-1,1.67,4.91,4.91,0,0,1-1.52,1.12,4.09,4.09,0,0,1-1.83.41,4.26,4.26,0,0,1-1.84-.4,4.32,4.32,0,0,1-1.5-1.11,5.31,5.31,0,0,1-1-1.65,5.41,5.41,0,0,1-.38-2,5.67,5.67,0,0,1,1.4-3.75,4.71,4.71,0,0,1,1.5-1.13,4.2,4.2,0,0,1,3.66,0,4.91,4.91,0,0,1,1.52,1.12,5.48,5.48,0,0,1,1,1.68,5.67,5.67,0,0,1,0,4.08Z"/><path class="cls-24" d="M920.1,192a3.18,3.18,0,0,0-1.2-1.13,3.91,3.91,0,0,0-1.82-.4,6.3,6.3,0,0,0-3.24.88,6.09,6.09,0,0,0-2.29,2.3v-2.95H910v13h1.7v-8a4.59,4.59,0,0,1,.73-1.49,6.1,6.1,0,0,1,1.13-1.19,5.13,5.13,0,0,1,1.39-.77,4.42,4.42,0,0,1,1.5-.28,2.35,2.35,0,0,1,2.11,1.05,6.35,6.35,0,0,1,.69,3.38v7.27H921v-7.62a12.81,12.81,0,0,0-.2-2.33A5.06,5.06,0,0,0,920.1,192Z"/><path class="cls-24" d="M934.68,192a3.18,3.18,0,0,0-1.2-1.13,3.93,3.93,0,0,0-1.83-.4,6.33,6.33,0,0,0-3.24.88,6.06,6.06,0,0,0-2.28,2.3v-2.95h-1.55v13h1.7v-8a4.78,4.78,0,0,1,.72-1.49,5.86,5.86,0,0,1,1.14-1.19,5,5,0,0,1,1.39-.77A4.42,4.42,0,0,1,931,192a2.35,2.35,0,0,1,2.11,1.05,6.35,6.35,0,0,1,.69,3.38v7.27h1.7v-7.62a12.81,12.81,0,0,0-.2-2.33A5.27,5.27,0,0,0,934.68,192Z"/><path class="cls-24" d="M949.4,192.45a6.28,6.28,0,0,0-2-1.46,6.55,6.55,0,0,0-5.21,0,6.34,6.34,0,0,0-2.06,1.45,6.55,6.55,0,0,0-1.35,2.13,6.77,6.77,0,0,0-.49,2.58,7,7,0,0,0,.49,2.63,6.71,6.71,0,0,0,1.36,2.16,6.34,6.34,0,0,0,2.06,1.48,6.46,6.46,0,0,0,2.62.53,6.83,6.83,0,0,0,1.82-.23,6.37,6.37,0,0,0,1.6-.68,6.11,6.11,0,0,0,1.28-1,4.52,4.52,0,0,0,.85-1.32l-1.48-.4a3.24,3.24,0,0,1-.65,1,4.22,4.22,0,0,1-1,.73,5.15,5.15,0,0,1-1.15.48,4.65,4.65,0,0,1-3-.19,4.69,4.69,0,0,1-1.48-1,5.3,5.3,0,0,1-1.07-1.54,5.59,5.59,0,0,1-.48-1.94h11.15a1.47,1.47,0,0,0,0-.27v-.4a7,7,0,0,0-.47-2.55A6.9,6.9,0,0,0,949.4,192.45ZM940,196.5a6,6,0,0,1,.46-1.9,4.83,4.83,0,0,1,1-1.5,4.57,4.57,0,0,1,1.49-1,4.69,4.69,0,0,1,1.8-.35,4.63,4.63,0,0,1,1.78.35,4.75,4.75,0,0,1,1.48,1,5.55,5.55,0,0,1,1.05,1.49,5.38,5.38,0,0,1,.49,1.91Z"/><path class="cls-24" d="M962.68,201.08a4,4,0,0,1-.9.71,4.84,4.84,0,0,1-1.14.49,4.36,4.36,0,0,1-1.24.17,4.16,4.16,0,0,1-1.84-.41,4.87,4.87,0,0,1-1.51-1.12,5.41,5.41,0,0,1-1-1.69,6,6,0,0,1,0-4.15,5.12,5.12,0,0,1,1-1.64,4.9,4.9,0,0,1,1.5-1.09,4.51,4.51,0,0,1,1.87-.4,4.25,4.25,0,0,1,2.18.57,3.92,3.92,0,0,1,1.54,1.56l1.65-.53a5.44,5.44,0,0,0-2.07-2.26,6.1,6.1,0,0,0-3.23-.84,6.53,6.53,0,0,0-2.65.53,6.17,6.17,0,0,0-2.06,1.44,6.52,6.52,0,0,0-1.34,2.13,7.44,7.44,0,0,0,0,5.23,6.74,6.74,0,0,0,1.37,2.16,6.27,6.27,0,0,0,2.07,1.48,6.5,6.5,0,0,0,2.63.53,6.59,6.59,0,0,0,1.78-.23,6.23,6.23,0,0,0,1.58-.68,5.63,5.63,0,0,0,1.24-1,4.47,4.47,0,0,0,.8-1.29l-1.68-.5A2.33,2.33,0,0,1,962.68,201.08Z"/><path class="cls-24" d="M972.65,202a3.16,3.16,0,0,1-1.27.24,1.75,1.75,0,0,1-1.07-.34,1.33,1.33,0,0,1-.51-1.06V192h3v-1.35h-3v-4.4h-1.7v4.4h-1.8V192h1.8v9.32a2.51,2.51,0,0,0,.23,1.1,2.27,2.27,0,0,0,.6.79,2.42,2.42,0,0,0,.87.46,3.6,3.6,0,0,0,1.05.15,4.65,4.65,0,0,0,1-.1,7,7,0,0,0,.85-.22c.25-.08.47-.17.66-.25l.44-.2-.45-1.38A5.06,5.06,0,0,1,972.65,202Z"/><rect class="cls-24" x="975.93" y="190.68" width="1.7" height="13.03"/><rect class="cls-24" x="975.93" y="185.45" width="1.7" height="2.5"/><path class="cls-24" d="M991.47,192a3.15,3.15,0,0,0-1.19-1.13,3.93,3.93,0,0,0-1.83-.4,6.3,6.3,0,0,0-3.24.88,6.16,6.16,0,0,0-2.29,2.3v-2.95h-1.54v13h1.7v-8a4.57,4.57,0,0,1,.72-1.49,5.86,5.86,0,0,1,1.14-1.19,5,5,0,0,1,1.39-.77,4.42,4.42,0,0,1,1.5-.28,2.35,2.35,0,0,1,2.11,1.05,6.36,6.36,0,0,1,.68,3.38v7.27h1.71v-7.62a11.94,11.94,0,0,0-.21-2.33A4.87,4.87,0,0,0,991.47,192Z"/><path class="cls-24" d="M1006.12,193.4a8.07,8.07,0,0,0-2.09-2.11,5,5,0,0,0-2.91-.84,5.58,5.58,0,0,0-2.46.55,6,6,0,0,0-1.91,1.48,6.78,6.78,0,0,0-1.24,2.16,7.78,7.78,0,0,0-.43,2.59,7.08,7.08,0,0,0,1.71,4.6,6.36,6.36,0,0,0,1.92,1.49,5.57,5.57,0,0,0,5.19-.17,5.39,5.39,0,0,0,2.05-2v2.57a4.23,4.23,0,0,1-.37,1.84,3.56,3.56,0,0,1-1,1.3,4.55,4.55,0,0,1-1.48.78,6.27,6.27,0,0,1-1.8.26,6.5,6.5,0,0,1-2.75-.59,4.55,4.55,0,0,1-2-1.84l-1.06.83a6.38,6.38,0,0,0,2.23,2.15,7.23,7.23,0,0,0,3.63.8,8.66,8.66,0,0,0,2.46-.35,5.72,5.72,0,0,0,2-1.05,5.12,5.12,0,0,0,1.38-1.74,5.35,5.35,0,0,0,.51-2.39V190.68h-1.53Zm-.17,5.83a3.06,3.06,0,0,1-.53,1.17,4.58,4.58,0,0,1-1,1,4.73,4.73,0,0,1-1.32.74,4.16,4.16,0,0,1-1.47.27,4.33,4.33,0,0,1-1.9-.41,5,5,0,0,1-1.54-1.12,5.29,5.29,0,0,1-1-1.67,5.38,5.38,0,0,1-.37-2,6,6,0,0,1,.31-1.92,5.28,5.28,0,0,1,.92-1.7,4.53,4.53,0,0,1,1.46-1.21,4.06,4.06,0,0,1,2-.47,4.2,4.2,0,0,1,1.39.25,5.41,5.41,0,0,1,1.28.68,5.15,5.15,0,0,1,1.83,2.32Z"/><path class="cls-24" d="M1028.18,194.6a4.13,4.13,0,0,0,1.87-1.66,4.65,4.65,0,0,0,.68-2.46,4.93,4.93,0,0,0-.29-1.64,4.61,4.61,0,0,0-.82-1.45,4.17,4.17,0,0,0-1.27-1,3.58,3.58,0,0,0-1.67-.4h-8.56V203.7h8.38a5.59,5.59,0,0,0,1.93-.33,4.89,4.89,0,0,0,1.57-1,4.7,4.7,0,0,0,1.08-1.45,4.31,4.31,0,0,0,.4-1.84,4.76,4.76,0,0,0-.89-2.85A4.44,4.44,0,0,0,1028.18,194.6Zm-8.3-7.12h6.24a2.63,2.63,0,0,1,1.16.26,3.26,3.26,0,0,1,.91.7,3.05,3.05,0,0,1,.6,1,3.8,3.8,0,0,1,.21,1.27,3.41,3.41,0,0,1-.22,1.24,3.53,3.53,0,0,1-.63,1,3.11,3.11,0,0,1-1,.72,2.66,2.66,0,0,1-1.21.28h-6.1Zm9.6,12.61a3.56,3.56,0,0,1-.69,1.08,3.27,3.27,0,0,1-1,.73,2.83,2.83,0,0,1-1.26.28h-6.62v-6.73h6.8a2.66,2.66,0,0,1,1.21.29,3.31,3.31,0,0,1,1.61,1.83,3.65,3.65,0,0,1,.23,1.26A3.45,3.45,0,0,1,1029.48,200.09Z"/><path class="cls-24" d="M1038,191.45a6.06,6.06,0,0,0-2,2.35v-3.12h-1.6v13h1.7v-8.1a4.83,4.83,0,0,1,1.8-2.47,5.32,5.32,0,0,1,3-.95v-1.55a1.39,1.39,0,0,0-.32,0A4.6,4.6,0,0,0,1038,191.45Z"/><rect class="cls-24" x="1043.2" y="185.45" width="1.7" height="2.5"/><rect class="cls-24" x="1043.2" y="190.68" width="1.7" height="13.03"/><path class="cls-24" d="M1052.6,202.23a3.36,3.36,0,0,1-.65.07,1.5,1.5,0,0,1-1.13-.41,1.58,1.58,0,0,1-.4-1.14v-15.3h-1.7v15.88a2.49,2.49,0,0,0,.68,1.86,2.54,2.54,0,0,0,1.85.66,7.12,7.12,0,0,0,1.19-.12,5,5,0,0,0,1.16-.33l-.3-1.37A4.77,4.77,0,0,1,1052.6,202.23Z"/><path class="cls-24" d="M1059.4,202.23a3.36,3.36,0,0,1-.65.07,1.5,1.5,0,0,1-1.13-.41,1.58,1.58,0,0,1-.4-1.14v-15.3h-1.7v15.88a2.49,2.49,0,0,0,.68,1.86,2.54,2.54,0,0,0,1.85.66,7.12,7.12,0,0,0,1.19-.12,5,5,0,0,0,1.16-.33l-.3-1.37A4.77,4.77,0,0,1,1059.4,202.23Z"/><rect class="cls-24" x="1062.25" y="190.68" width="1.7" height="13.03"/><rect class="cls-24" x="1062.25" y="185.45" width="1.7" height="2.5"/><path class="cls-24" d="M1077.65,201.5v-5.87a5.1,5.1,0,0,0-1.4-3.8,5.26,5.26,0,0,0-3.85-1.38,8.8,8.8,0,0,0-4.9,1.7l.6,1.13a9.85,9.85,0,0,1,2.12-1.15,5.69,5.69,0,0,1,2-.4,3.59,3.59,0,0,1,2.7,1,3.8,3.8,0,0,1,1,2.74v1.17a9.3,9.3,0,0,0-1.83-.5,12.71,12.71,0,0,0-2-.17,8,8,0,0,0-2.2.29,5.53,5.53,0,0,0-1.73.81,3.79,3.79,0,0,0-1.12,1.25,3.16,3.16,0,0,0-.4,1.57,4,4,0,0,0,.32,1.59,3.91,3.91,0,0,0,.92,1.29,4.3,4.3,0,0,0,1.37.86,4.6,4.6,0,0,0,1.71.31,6.92,6.92,0,0,0,2.94-.62,6,6,0,0,0,2.26-1.8l0,1a1.22,1.22,0,0,0,.39.9,1.45,1.45,0,0,0,1,.33,4.14,4.14,0,0,0,.65-.08v-1.5C1077.86,202.2,1077.65,202,1077.65,201.5Zm-1.7-1.65a1.32,1.32,0,0,1-.11.49,1.6,1.6,0,0,1-.34.49,4,4,0,0,1-1.69,1.32,5.76,5.76,0,0,1-2.44.5,3.3,3.3,0,0,1-1.22-.22,2.86,2.86,0,0,1-1.64-1.53,2.65,2.65,0,0,1-.24-1.12,2.29,2.29,0,0,1,1.13-2,5.16,5.16,0,0,1,2.92-.75,9.64,9.64,0,0,1,1.87.18,10.71,10.71,0,0,1,1.76.5Z"/><path class="cls-24" d="M1091.42,192a3.18,3.18,0,0,0-1.2-1.13,3.91,3.91,0,0,0-1.82-.4,6.3,6.3,0,0,0-3.24.88,6.16,6.16,0,0,0-2.29,2.3v-2.95h-1.55v13h1.7v-8a4.8,4.8,0,0,1,.73-1.49,5.86,5.86,0,0,1,1.14-1.19,4.93,4.93,0,0,1,1.38-.77,4.42,4.42,0,0,1,1.5-.28,2.36,2.36,0,0,1,2.12,1.05,6.46,6.46,0,0,1,.68,3.38v7.27h1.7v-7.62a12,12,0,0,0-.2-2.33A5.06,5.06,0,0,0,1091.42,192Z"/><path class="cls-24" d="M1104.75,201.08a4,4,0,0,1-.9.71,4.84,4.84,0,0,1-1.14.49,4.36,4.36,0,0,1-1.24.17,4.09,4.09,0,0,1-1.83-.41,4.91,4.91,0,0,1-1.52-1.12,5.41,5.41,0,0,1-1-1.69,5.73,5.73,0,0,1-.38-2.08,5.56,5.56,0,0,1,.37-2.07,5,5,0,0,1,1-1.64,4.67,4.67,0,0,1,1.5-1.09,4.43,4.43,0,0,1,1.86-.4,4.31,4.31,0,0,1,2.19.57,3.89,3.89,0,0,1,1.53,1.56l1.65-.53a5.31,5.31,0,0,0-2.07-2.26,6.07,6.07,0,0,0-3.23-.84,6.57,6.57,0,0,0-2.65.53,6.27,6.27,0,0,0-2.06,1.44,6.69,6.69,0,0,0-1.34,2.13,7.31,7.31,0,0,0-.47,2.6,7,7,0,0,0,.49,2.63,6.54,6.54,0,0,0,1.36,2.16,6.27,6.27,0,0,0,2.07,1.48,6.5,6.5,0,0,0,2.63.53,6.66,6.66,0,0,0,1.79-.23,6.16,6.16,0,0,0,1.57-.68,5.41,5.41,0,0,0,1.24-1,4.47,4.47,0,0,0,.8-1.29l-1.68-.5A2.33,2.33,0,0,1,1104.75,201.08Z"/><path class="cls-24" d="M1119.75,192.45a6.39,6.39,0,0,0-2-1.46,6.55,6.55,0,0,0-5.21,0,6.34,6.34,0,0,0-2.06,1.45,6.55,6.55,0,0,0-1.35,2.13,6.77,6.77,0,0,0-.49,2.58,7,7,0,0,0,.49,2.63,6.54,6.54,0,0,0,1.36,2.16,6.2,6.2,0,0,0,4.67,2,6.9,6.9,0,0,0,1.83-.23,6.53,6.53,0,0,0,1.6-.68,5.8,5.8,0,0,0,1.27-1,4.32,4.32,0,0,0,.85-1.32l-1.47-.4a3.24,3.24,0,0,1-.65,1,4.45,4.45,0,0,1-1,.73,5.36,5.36,0,0,1-1.15.48,4.53,4.53,0,0,1-1.25.17,4.47,4.47,0,0,1-1.79-.36,4.85,4.85,0,0,1-1.49-1,5.48,5.48,0,0,1-1.06-1.54,5.6,5.6,0,0,1-.49-1.94h11.15a.82.82,0,0,0,0-.27v-.4a7,7,0,0,0-1.8-4.68Zm-9.4,4.05a5.7,5.7,0,0,1,.46-1.9,4.83,4.83,0,0,1,1-1.5,4.63,4.63,0,0,1,1.48-1,4.77,4.77,0,0,1,1.8-.35,4.64,4.64,0,0,1,1.79.35,4.75,4.75,0,0,1,1.48,1,5.55,5.55,0,0,1,1,1.49,5.37,5.37,0,0,1,.48,1.91Z"/><line class="cls-40" x1="760.73" y1="174.31" x2="1124.02" y2="174.31"/></g></g></svg>