<svg xmlns="http://www.w3.org/2000/svg" viewBox="0 0 155 155"><defs><style>.cls-1{fill:#ffda7b;}.cls-2{fill:#fff;}.cls-3{fill:#f2f2f2;}.cls-4{fill:#d9d8d7;}.cls-5{fill:#e6e5e5;}.cls-6{fill:#474f59;}</style></defs><title>courses-yellow</title><g id="Layer_2" data-name="Layer 2"><g id="Layer_3" data-name="Layer 3"><circle class="cls-1" cx="77.5" cy="77.5" r="77.5"/><rect class="cls-2" x="55.94" y="45.41" width="12.32" height="64.18"/><rect class="cls-3" x="68.26" y="45.41" width="18.48" height="64.18"/><rect class="cls-4" x="86.74" y="45.41" width="12.32" height="64.18"/><polygon class="cls-2" points="68.26 45.41 77.5 23.85 86.74 45.41 68.26 45.41"/><polygon class="cls-5" points="86.74 45.41 77.5 23.85 99.06 45.41 86.74 45.41"/><polygon class="cls-3" points="55.94 45.41 77.5 23.85 68.26 45.41 55.94 45.41"/><polygon class="cls-2" points="68.26 109.59 77.5 131.15 86.74 109.59 68.26 109.59"/><polygon class="cls-5" points="86.74 109.59 77.5 131.15 99.06 109.59 86.74 109.59"/><polygon class="cls-3" points="55.94 109.59 77.5 131.15 68.26 109.59 55.94 109.59"/><path class="cls-2" d="M51.57,63.84a9.38,9.38,0,0,0-9.37,9.37,9.38,9.38,0,0,0-9.37-9.37,9.38,9.38,0,0,0,9.37-9.37A9.38,9.38,0,0,0,51.57,63.84Z"/><path class="cls-2" d="M126.44,38.81a5,5,0,0,0-5,5,5,5,0,0,0-5-5,5,5,0,0,0,5-5A5,5,0,0,0,126.44,38.81Z"/><path class="cls-2" d="M105.42,127.15a5,5,0,0,0-5,5,5,5,0,0,0-5-5,5,5,0,0,0,5-5A5,5,0,0,0,105.42,127.15Z"/><path class="cls-2" d="M75.26,11.4a4,4,0,0,0-4,4,4,4,0,0,0-4-4,4,4,0,0,0,4-4A4,4,0,0,0,75.26,11.4Z"/><path class="cls-2" d="M56.36,27.06a2.5,2.5,0,0,0-2.5,2.5,2.5,2.5,0,0,0-2.5-2.5,2.51,2.51,0,0,0,2.5-2.5A2.51,2.51,0,0,0,56.36,27.06Z"/><path class="cls-2" d="M116.73,115.56a1.5,1.5,0,0,0-1.5,1.5,1.5,1.5,0,0,0-1.5-1.5,1.5,1.5,0,0,0,1.5-1.5A1.5,1.5,0,0,0,116.73,115.56Z"/><polygon class="cls-6" points="42.5 137.18 34.67 132.66 42.5 128.14 43.52 129.89 38.72 132.66 43.52 135.43 42.5 137.18"/><polygon class="cls-6" points="59.52 137.18 58.5 135.43 63.3 132.66 58.51 129.89 59.52 128.14 67.35 132.66 59.52 137.18"/><rect class="cls-6" x="42.94" y="131.65" width="16.14" height="2.03" transform="translate(-78.92 75.04) rotate(-45.05)"/><rect class="cls-6" x="117.92" y="83.72" width="15.95" height="2.03"/><rect class="cls-6" x="117.92" y="88.03" width="7.97" height="2.03"/><rect class="cls-6" x="117.92" y="79.4" width="15.95" height="2.03"/><path class="cls-6" d="M113,82.66h-2V76.48a3.05,3.05,0,0,1,.9-2.18,3.09,3.09,0,0,1,2.18-.9v2a1,1,0,0,0-.74.3,1.06,1.06,0,0,0-.31.75Z"/><path class="cls-6" d="M109.88,85.74v-2a1.06,1.06,0,0,0,1.05-1.06h2a3.09,3.09,0,0,1-3.08,3.08Z"/><path class="cls-6" d="M114,96.06A3.07,3.07,0,0,1,110.93,93V86.79h2V93A1,1,0,0,0,114,94Z"/><path class="cls-6" d="M113,86.79h-2a1.06,1.06,0,0,0-1.05-1.05v-2A3.07,3.07,0,0,1,113,86.79Z"/><path class="cls-6" d="M140.84,82.66h-2V76.48a1,1,0,0,0-.31-.75,1,1,0,0,0-.74-.3v-2a3.07,3.07,0,0,1,3.07,3.08Z"/><path class="cls-6" d="M141.89,85.74a3.07,3.07,0,0,1-3.07-3.08h2a1.06,1.06,0,0,0,.31.75,1.08,1.08,0,0,0,.74.31Z"/><path class="cls-6" d="M137.77,96.06V94a1.06,1.06,0,0,0,1-1V86.79h2V93a3.07,3.07,0,0,1-3.07,3.08Z"/><path class="cls-6" d="M140.84,86.79h-2a3,3,0,0,1,.9-2.17,3,3,0,0,1,2.17-.9v2a1.06,1.06,0,0,0-1,1.05Z"/><path class="cls-6" d="M16.49,90.64l-4,10.24h2.19l.85-2.33h4.09l.9,2.33h2.25L18.67,90.64Zm-.32,6.18L17.56,93,19,96.82Z"/><path class="cls-6" d="M27.89,93.29a2.76,2.76,0,0,0-2.15,1V90.64h-2v10.24H25.6V99.79a3.15,3.15,0,0,0,1.06.94,2.76,2.76,0,0,0,1.26.31,2.85,2.85,0,0,0,2.2-1,4.32,4.32,0,0,0,.9-2.93,4.09,4.09,0,0,0-.89-2.82A2.9,2.9,0,0,0,27.89,93.29Zm.66,5.65a1.37,1.37,0,0,1-1.11.55,1.55,1.55,0,0,1-1.35-.78,3.18,3.18,0,0,1-.37-1.7,2.54,2.54,0,0,1,.47-1.67,1.53,1.53,0,0,1,2.36,0A3,3,0,0,1,29,97.19,2.71,2.71,0,0,1,28.55,98.94Z"/><path class="cls-6" d="M37.24,98a2,2,0,0,1-.51,1.1,1.31,1.31,0,0,1-.91.31,1.45,1.45,0,0,1-1.19-.54A3,3,0,0,1,34.18,97a2.59,2.59,0,0,1,.44-1.69,1.46,1.46,0,0,1,1.17-.51,1.32,1.32,0,0,1,.9.3,1.35,1.35,0,0,1,.44.87l1.94-.35a3.29,3.29,0,0,0-1.15-1.78,3.57,3.57,0,0,0-2.16-.58,3.43,3.43,0,0,0-2.62,1,4.71,4.71,0,0,0,0,5.71,3.42,3.42,0,0,0,2.6,1,3.58,3.58,0,0,0,2.28-.67,3.44,3.44,0,0,0,1.16-2Z"/></g></g></svg>